<?xml version="1.0" encoding="UTF-8" standalone="no"?>
<!-- Created with Inkscape (http://www.inkscape.org/) -->

<svg
   version="1.1"
   id="svg59355"
   xml:space="preserve"
   width="1326.007"
   height="158.04933"
   viewBox="0 0 1326.0069 158.04933"
   sodipodi:docname="AppDynamics_Logo_Master_RGB_DynamicUltra.svg"
   inkscape:version="1.1.1 (3bf5ae0d25, 2021-09-20)"
   xmlns:inkscape="http://www.inkscape.org/namespaces/inkscape"
   xmlns:sodipodi="http://sodipodi.sourceforge.net/DTD/sodipodi-0.dtd"
   xmlns="http://www.w3.org/2000/svg"
   xmlns:svg="http://www.w3.org/2000/svg"><defs
     id="defs59359"><clipPath
       clipPathUnits="userSpaceOnUse"
       id="clipPath59369"><path
         d="M 0,356.526 H 1232.493 V 0 H 0 Z"
         id="path59367" /></clipPath></defs><sodipodi:namedview
     id="namedview59357"
     pagecolor="#ffffff"
     bordercolor="#666666"
     borderopacity="1.0"
     inkscape:pageshadow="2"
     inkscape:pageopacity="0.0"
     inkscape:pagecheckerboard="0"
     showgrid="false"
     inkscape:zoom="0.68945795"
     inkscape:cx="663.56476"
     inkscape:cy="79.772813"
     inkscape:window-width="1920"
     inkscape:window-height="1010"
     inkscape:window-x="-6"
     inkscape:window-y="-6"
     inkscape:window-maximized="1"
     inkscape:current-layer="g59361"
     fit-margin-top="0"
     fit-margin-left="0"
     fit-margin-right="0"
     fit-margin-bottom="0" /><g
     id="g59361"
     inkscape:groupmode="layer"
     inkscape:label="AppDynamics_Logo_Master_RGB_DynamicUltra"
     transform="matrix(1.3333333,0,0,-1.3333333,-158.65866,316.70813)"><g
       id="g59363"><g
         id="g59365"
         clip-path="url(#clipPath59369)"><g
           id="g59371"
           transform="translate(726.8562,202.1727)"><path
             d="M 0,0 V -36.659 L -33.743,5.668 h -7.31 v -59.496 h 3.936 c 3.131,0 5.669,2.538 5.669,5.669 v 36.318 L 2.295,-53.828 H 9.52 V 5.668 H 5.669 C 2.538,5.668 0,3.131 0,0 M 55.094,-32.664 67.674,-4.36 80.253,-32.664 Z M 62.489,5.668 35.8,-53.828 h 10.115 l 5.609,12.494 h 32.214 l 5.696,-12.494 H 99.546 L 72.858,5.668 Z M -95.764,-20.597 -112.168,5.668 h -11.305 V 5.244 l 22.949,-34.679 v -24.393 h 3.851 c 3.131,0 5.669,2.538 5.669,5.669 v 18.724 L -67.375,5.244 V 5.668 H -78.85 Z M 289.832,-2.32 c 6.009,0 11.441,-2.443 15.379,-6.38 l 6.488,6.488 c -5.598,5.599 -13.324,9.07 -21.867,9.07 -17.088,0 -30.938,-13.851 -30.938,-30.937 0,-17.087 13.85,-30.94 30.938,-30.94 8.543,0 16.269,3.473 21.867,9.072 l -6.488,6.487 c -3.938,-3.937 -9.37,-6.379 -15.379,-6.379 -12.018,0 -21.76,9.741 -21.76,21.76 0,12.016 9.742,21.759 21.76,21.759 m 72.928,-16.066 c -7.821,1.106 -14.451,2.721 -14.451,8.5 0,5.696 5.78,9.01 13.77,9.01 6.204,-0.085 11.9,-2.55 14.704,-6.629 l 7.225,4.845 c -5.015,7.989 -13.6,10.029 -22.184,10.029 -10.71,0 -23.034,-4.761 -22.949,-17.085 0,-12.748 11.219,-15.723 23.034,-17.339 8.329,-1.105 15.214,-3.314 15.214,-9.774 0,-7.48 -7.904,-9.859 -15.044,-9.859 -6.885,0 -14.28,2.549 -18.53,9.774 l -7.139,-4.761 c 5.44,-10.028 14.194,-13.513 25.584,-13.513 12.409,0 24.565,5.015 24.649,18.359 0,13.345 -11.645,16.744 -23.883,18.443 m -534.604,-26.262 h -13.089 v 41.222 h 13.089 c 14.025,0 20.144,-10.029 20.399,-20.058 0.255,-10.455 -5.864,-21.164 -20.399,-21.164 m 0,50.316 h -22.524 v -59.496 h 22.524 c 20.824,0 30.174,15.214 29.834,30.259 -0.255,14.704 -9.52,29.237 -29.834,29.237 M 156.562,-22.294 136.928,5.583 h -11.05 v -59.496 h 3.851 c 3.131,0 5.669,2.538 5.669,5.669 v 39.973 l 19.974,-28.133 h 2.04 l 20.229,28.133 v -45.642 h 3.85 c 3.131,0 5.669,2.538 5.669,5.669 V 5.583 h -11.049 z m 63.609,22.293 v -53.828 h 3.766 c 3.131,0 5.668,2.538 5.668,5.67 V 5.668 h -3.765 c -3.131,0 -5.669,-2.538 -5.669,-5.669 M -318.597,-26.8 h -18.019 V -3 h 18.019 c 15.639,0 15.724,-23.8 0,-23.8 m 0,32.554 c -9.094,0 -18.444,-0.086 -27.539,-0.086 v -59.496 h 3.851 c 3.131,0 5.669,2.538 5.669,5.669 v 12.604 h 18.019 c 28.474,0.171 28.389,41.309 0,41.309 m -98.322,-38.418 12.578,28.304 12.58,-28.304 z m 7.394,38.332 -26.688,-59.496 h 10.114 l 5.61,12.494 h 32.213 l 5.695,-12.494 h 10.115 L -399.155,5.668 Z M -242.713,-26.8 h -18.019 V -3 h 18.019 c 15.639,0 15.724,-23.8 0,-23.8 m 0,32.554 c -9.095,0 -18.444,-0.086 -27.539,-0.086 v -59.496 h 3.851 c 3.131,0 5.669,2.538 5.669,5.669 v 12.604 h 18.019 c 28.474,0.171 28.389,41.309 0,41.309"
             style="fill:#4e3eb1;fill-opacity:1;fill-rule:nonzero;stroke:none"
             id="path59373" /></g><g
           id="g59375"
           transform="translate(226.113,128.5311)"><path
             d="M 0,0 -1.113,-2.789 -2.227,0 h -0.784 v -4.241 h 0.753 v 2.682 l 0.922,-2.29 h 0.445 l 0.923,2.29 V -4.241 H 0.785 V 0 Z m -6.765,-0.636 h 1.115 v -3.605 h 0.753 v 3.605 h 1.112 V 0 h -2.98 z M -75.722,39.68 -92.047,76.332 c -9.215,-7.694 -15.072,-19.262 -15.072,-32.195 0,-23.161 18.781,-41.944 41.943,-41.944 2.018,0 4.01,0.147 5.951,0.422 l -16.274,36.558 c -0.077,0.172 -0.154,0.335 -0.223,0.507 M -65.176,109 c -5.35,0 -10.546,-0.644 -15.518,-1.872 l 9.558,-21.478 c 1.949,0.275 3.942,0.421 5.96,0.421 23.161,0 41.934,-18.773 41.934,-41.934 0,-12.942 -5.857,-24.51 -15.071,-32.204 l 9.558,-21.47 c 17.167,11.662 28.443,31.346 28.443,53.674 0,35.82 -29.044,64.863 -64.864,64.863"
             style="fill:#4e3eb1;fill-opacity:1;fill-rule:nonzero;stroke:none"
             id="path59377" /></g></g></g></g></svg>
