<?xml version="1.0" encoding="UTF-8" standalone="no"?>
<svg
   width="500"
   height="150.99194"
   version="1.1"
   id="svg40"
   sodipodi:docname="Rookout-ar21.svg"
   inkscape:version="1.1.1 (3bf5ae0d25, 2021-09-20)"
   xmlns:inkscape="http://www.inkscape.org/namespaces/inkscape"
   xmlns:sodipodi="http://sodipodi.sourceforge.net/DTD/sodipodi-0.dtd"
   xmlns="http://www.w3.org/2000/svg"
   xmlns:svg="http://www.w3.org/2000/svg">
  <defs
     id="defs44" />
  <sodipodi:namedview
     id="namedview42"
     pagecolor="#ffffff"
     bordercolor="#666666"
     borderopacity="1.0"
     inkscape:pageshadow="2"
     inkscape:pageopacity="0.0"
     inkscape:pagecheckerboard="0"
     showgrid="false"
     fit-margin-top="0"
     fit-margin-left="0"
     fit-margin-right="0"
     fit-margin-bottom="0"
     inkscape:zoom="2.2041667"
     inkscape:cx="253.83743"
     inkscape:cy="45.36862"
     inkscape:window-width="1920"
     inkscape:window-height="1010"
     inkscape:window-x="-6"
     inkscape:window-y="-6"
     inkscape:window-maximized="1"
     inkscape:current-layer="svg40" />
  <g
     id="g858"
     transform="scale(4.6784063)">
    <path
       d="m 42.978,21.300113 -3.22,-3.624 c 2.025,-0.405 2.693,-1.883 2.693,-3.34 0,-1.842 -1.316,-3.523 -3.827,-3.523 h -5.062 v 10.61 h 2.004 v -3.546 h 1.923 l 3.098,3.543 h 2.39 z m -4.353,-8.645 c 1.255,0 1.822,0.85 1.822,1.7 0,0.85 -0.547,1.7 -1.822,1.7 h -3.057 v -3.4 z m 10.204,-2.065 c -3.665,0 -5.467,2.814 -5.467,5.608 0,2.794 1.74,5.487 5.467,5.487 3.727,0 5.426,-2.754 5.446,-5.507 0.02,-2.774 -1.802,-5.588 -5.446,-5.588 z m 0,1.822 c 2.51,0 3.503,2.004 3.482,3.786 -0.02,1.74 -0.972,3.624 -3.482,3.624 -2.51,0 -3.442,-1.863 -3.482,-3.604 -0.06,-1.782 0.972,-3.806 3.482,-3.806 z m 11.743,-1.822 c -3.685,0 -5.467,2.814 -5.467,5.608 0,2.794 1.72,5.487 5.467,5.487 3.725,0 5.426,-2.754 5.446,-5.507 0.04,-2.774 -1.782,-5.588 -5.446,-5.588 z m 0,1.822 c 2.51,0 3.503,2.004 3.482,3.786 -0.02,1.74 -0.972,3.624 -3.482,3.624 -2.51,0 -3.442,-1.863 -3.482,-3.604 -0.06,-1.782 0.972,-3.806 3.482,-3.806 z m 20.63,-1.822 c -3.665,0 -5.467,2.814 -5.467,5.608 0,2.794 1.74,5.487 5.467,5.487 3.746,0 5.426,-2.754 5.446,-5.507 0.02,-2.774 -1.802,-5.588 -5.446,-5.588 z m 0,1.822 c 2.51,0 3.503,2.004 3.482,3.786 -0.02,1.74 -0.972,3.624 -3.482,3.624 -2.51,0 -3.442,-1.863 -3.482,-3.604 -0.06,-1.782 0.972,-3.806 3.482,-3.806 z m 13.93,-1.6 v 6.094 c 0,1.822 -0.952,2.936 -2.592,2.936 -1.66,0 -2.754,-1.012 -2.754,-2.936 v -6.094 h -1.984 v 6.094 c 0,3.2 2.166,4.758 4.717,4.758 2.673,0 4.596,-1.62 4.596,-4.758 v -6.094 z m -28.102,10.61 h 2.004 v -4.738 l 4.495,4.738 h 2.47 v -0.12 l -5.122,-5.365 4.717,-5.102 v -0.06 h -2.5 l -4.07,4.576 v -4.555 H 67.02 Z m 34.48,0 h 2.004 v -8.807 h 3.36 v -1.822 h -8.746 v 1.822 h 3.38 z"
       fill="#54476e"
       id="path2" />
    <g
       transform="matrix(0.367588,0,0,0.367588,-2.205528,-2.4628396)"
       id="g38">
      <g
         fill-rule="evenodd"
         id="g12">
        <path
           d="M 53.5,6.7 C 52.8,7.9 52,9 51,9.9 c -2.1,1.7 -4.8,1.9 -7.4,1.7 h -0.2 c -8.6,0 -15.6,7 -15.6,15.6 v 6.9 l -0.3,0.3 c -3.9,3.4 -5.4,8.2 -5.4,13.2 0,5.6 2.1,11.6 5.2,16.6 h -9.8 c -3,0 -5.2,-1.7 -6,-4.3 H 6 v 0.7 c 0,6.7 5.4,9.7 11.3,9.7 h 12.5 l -2.6,9.5 c -0.7,2.4 -0.7,5.1 0.5,7.4 0.9,1.7 2.4,3 4.3,3.4 1.3,0.3 2.7,0.2 4,-0.3 l 0.8,-0.3 0.4,0.7 0.6,0.9 c 1.4,1.8 3.5,2.9 5.8,2.9 2.3,0 4.4,-1.1 5.8,-2.9 l 0.6,-0.9 0.4,-0.7 0.8,0.3 c 1.2,0.5 2.6,0.6 3.9,0.3 1.9,-0.5 3.4,-1.7 4.3,-3.4 1.2,-2.3 1.1,-5 0.4,-7.4 l -2.6,-9.5 h 12.5 c 5.9,0 11.3,-3 11.3,-9.7 V 60 h -5.6 c -0.8,2.6 -3,4.3 -6,4.3 h -9.8 c 3.1,-5 5.2,-11 5.2,-16.6 0,-5.1 -1.5,-9.8 -5.4,-13.2 l -0.1,-0.1 7.6,-4.9 C 65.7,26.1 60.5,21.6 57.7,20.1 57.3,19.2 56.8,18.4 56.2,17.7 L 55.8,17.3 56,16.8 C 57.1,13.9 55.2,9.5 53.5,6.7"
           fill="#54476e"
           id="path4" />
        <path
           d="m 54.5,70.4 2.8,10.2 c 2.2,8.1 -5.6,10.8 -8.5,3.9 0.5,10.3 -11.1,10.3 -10.6,0 -2.8,6.9 -10.8,4.2 -8.6,-3.9 l 2.8,-10.2 h 1.5 c 3.3,0 5.9,1.8 6.7,5.1 h 5.7 c 0.8,-3.3 3.3,-5.1 6.7,-5.1 z m -9.7,-50 c 2.6,0 4.7,2.1 4.7,4.7 0,2.6 -2.1,4.7 -4.7,4.7 -2.6,0 -4.7,-2.1 -4.7,-4.7 0,-2.6 2.1,-4.7 4.7,-4.7 z m 11.8,15 c 3.6,2.5 5.8,6.4 5.8,12.3 0,4.5 -1.5,9.4 -4,13.7 C 57.8,61 56.9,61 55.7,60.8 55,60.7 54.4,60 53.2,60 c -1.3,0 -1.9,0.7 -2.6,0.8 -1.4,0.2 -2.3,0.1 -2.9,0.7 -0.4,0.4 -0.7,1.2 -0.8,1.8 0,0.3 -0.1,0.7 -0.1,1.1 v 1.1 c -1.1,0.6 -2,1.6 -2.7,3 l -0.6,1 -0.6,-1 C 42.1,67 41.2,66.1 40.2,65.4 v -1.1 c 0,-0.4 0,-0.8 -0.1,-1.1 -0.1,-0.6 -0.3,-1.4 -0.8,-1.8 -0.6,-0.6 -1.5,-0.5 -2.9,-0.7 -0.7,-0.1 -1.3,-0.8 -2.6,-0.8 -1.3,0 -1.8,0.7 -2.5,0.8 -1.2,0.2 -2.1,0.2 -2.7,0.6 -2.4,-4.3 -4,-9.2 -4,-13.7 0,-5.8 2.2,-9.8 5.8,-12.3 l 3.3,-2.1 c 0.8,-0.5 0.9,-1.1 -0.4,-1 l -3,0.3 v -5.4 c 0,-7.2 5.9,-13.1 13.1,-13.1 0,0 8.2,0.4 9.8,-3.2 1.5,2.9 0.7,5.3 -0.8,6.7 1.2,0.5 2.2,1.8 3,3.3 -3,4.3 -3.1,11 1.2,14.6 z"
           fill="#af6bd6"
           id="path6" />
        <path
           d="m 28.6,61.4 c -2.4,-4.3 -4,-9.2 -4,-13.7 0,-5.8 2.2,-9.8 5.8,-12.3 l 3.3,-2.1 c 0.8,-0.5 0.9,-1.1 -0.4,-1 l -3,0.3 v -5.4 c 0,-4.6 2.4,-8.6 6,-11 -4.8,5.6 -2,14.9 2.8,17.3 C 27.4,40.7 31,50.9 36.3,60.7 35.6,60.6 35,60 33.8,60 32.5,60 32,60.7 31.3,60.8 30.1,61 29.2,61 28.6,61.4 M 53.2,11 c 1.5,2.9 0.7,5.3 -0.8,6.7 -0.8,-0.3 -1.2,-0.5 -1.9,-0.6 -0.2,0 -0.3,-0.3 0,-0.5 1.7,-1.2 2.8,-2.8 2.7,-5.6 z M 43.9,92.2 C 41,92.4 38,89.9 38.2,84.5 35.4,91.4 27.4,88.7 29.6,80.6 l 2.8,-10.2 h 1.5 c 3.3,0 5.9,1.8 6.7,5.1 h 5.6 v 0.1 c -2.7,5.5 -2.3,10.7 -2.3,16.6 z"
           fill="#8c55b7"
           id="path8" />
        <path
           d="m 43.5,39.2 c 6.6,0 12,5 12,13.5 0,2.5 -0.6,5.1 -1.6,7.4 C 53.6,60 53.4,60 53.1,60 c -1.3,0 -1.9,0.7 -2.6,0.8 -1.4,0.2 -2.3,0.1 -2.9,0.7 -0.4,0.4 -0.7,1.2 -0.8,1.8 0,0.3 -0.1,0.7 -0.1,1.1 v 1.1 c -1.1,0.6 -2,1.6 -2.7,3 l -0.6,1 -0.6,-1 C 42,67 41.1,66.1 40.1,65.4 v -1.1 c 0,-0.4 0,-0.8 -0.1,-1.1 -0.1,-0.6 -0.3,-1.4 -0.8,-1.8 -0.6,-0.6 -1.5,-0.5 -2.9,-0.7 -0.7,-0.1 -1.3,-0.8 -2.6,-0.8 -0.3,0 -0.5,0 -0.7,0.1 -1,-2.3 -1.6,-4.9 -1.6,-7.4 0.1,-8.4 5.4,-13.4 12.1,-13.4"
           fill="#ffffff"
           id="path10" />
      </g>
      <path
         d="m 60.9,25 c -1.3,-1.2 -2.8,-2.2 -4.2,-3 -1.2,2.1 -1.6,4.1 -1.5,5.8 0.1,2.1 0.8,3.9 1.7,5 l 7.2,-4.2 c -0.9,-1.2 -2,-2.5 -3.2,-3.6"
         fill="#ffb03f"
         id="path14" />
      <path
         d="m 55.4,29.8 c 0.3,1.3 0.9,2.3 1.5,3.1 l 7.2,-4.2 c -2.8,0.8 -5.8,1.2 -8.7,1.1"
         fill="#ed9140"
         id="path16" />
      <path
         d="m 62.5,27.7 c -1.3,-1.7 -2.9,-2.9 -5,-4.2 -0.4,0.5 -0.6,1.1 -0.7,1.8 l 5.7,2.4"
         fill="#ffce92"
         id="path18" />
      <path
         d="m 46.3,22 a 1.54,1.54 0 0 1 1.5,1.5 1.54,1.54 0 0 1 -1.5,1.5 1.54,1.54 0 0 1 -1.5,-1.5 C 44.7,22.6 45.4,22 46.3,22"
         fill-rule="evenodd"
         fill="#ffffff"
         id="path20" />
      <path
         d="m 34.6,62.4 c -0.2,-0.2 -0.5,-0.3 -0.8,-0.3 -0.3,0 -0.5,0.1 -0.7,0.3 -0.2,0.2 -0.3,0.4 -0.3,0.7 v 4.8 c 0,0.3 0.1,0.5 0.3,0.7 a 1.08,1.08 0 0 0 0.7,0.3 c 0.3,0 0.5,-0.1 0.7,-0.3 0.2,-0.2 0.3,-0.4 0.3,-0.7 v -4.8 c 0.1,-0.3 0,-0.6 -0.2,-0.7 m -3.9,0 c -0.1,0 -0.1,0 0,0 -0.4,0 -0.7,0.2 -0.9,0.4 -0.2,0.2 -0.4,0.5 -0.4,0.8 0,0.3 -0.1,0.6 -0.1,0.9 v 2.7 c 0,0.3 0.2,0.6 0.4,0.8 0.2,0.2 0.5,0.4 0.8,0.4 h 0.1 c 0.2,0 0.4,-0.1 0.6,-0.3 0.2,-0.2 0.3,-0.4 0.3,-0.7 v -4.1 c 0,-0.3 -0.1,-0.5 -0.3,-0.7 -0.1,-0.1 -0.3,-0.2 -0.5,-0.2 z m 7.2,0.5 C 37.7,62.7 37.4,62.5 37.1,62.5 H 37 c -0.2,0 -0.4,0.1 -0.6,0.3 -0.2,0.2 -0.3,0.4 -0.3,0.7 v 4.3 c 0,0.3 0.1,0.5 0.3,0.7 0.1,0.2 0.3,0.2 0.5,0.3 H 37 c 0.3,0 0.6,-0.2 0.8,-0.4 0.2,-0.2 0.4,-0.6 0.5,-0.9 0,-0.3 0.1,-0.6 0.1,-0.9 v -1.8 c 0,-0.3 0,-0.6 -0.1,-0.9 0,-0.5 -0.2,-0.8 -0.4,-1 z"
         fill="#ed9140"
         id="path22" />
      <path
         d="m 35,65.8 c -0.3,0.5 -0.7,0.8 -1.1,0.8 -0.4,0 -0.8,-0.3 -1.1,-0.9 v -2.6 c 0,-0.3 0.1,-0.5 0.3,-0.7 a 1.08,1.08 0 0 1 0.7,-0.3 c 0.3,0 0.6,0.1 0.8,0.3 0.2,0.2 0.3,0.4 0.3,0.7 v 2.4 z m -3.5,-0.5 c -0.3,0.5 -0.7,0.7 -1.1,0.7 -0.5,0 -0.9,-0.4 -1.2,-0.9 v -0.6 c 0,-0.3 0,-0.6 0.1,-0.9 0,-0.3 0.2,-0.6 0.4,-0.8 0.2,-0.2 0.5,-0.4 0.8,-0.4 h 0.1 c 0.2,0 0.4,0.1 0.6,0.3 0.2,0.2 0.3,0.4 0.3,0.7 z m 6.4,-2.4 C 37.7,62.7 37.4,62.5 37.1,62.5 H 37 c -0.2,0 -0.4,0.1 -0.6,0.3 -0.2,0.2 -0.3,0.4 -0.3,0.7 v 1.7 c 0.3,0.5 0.7,0.9 1.1,0.9 0.4,0 0.8,-0.3 1.1,-0.8 v -0.6 c 0,-0.3 0,-0.6 -0.1,-0.9 0.1,-0.4 -0.1,-0.7 -0.3,-0.9 z"
         fill="#ffb03f"
         id="path24" />
      <path
         d="m 52.3,62.4 c 0.2,-0.2 0.5,-0.3 0.8,-0.3 0.3,0 0.5,0.1 0.7,0.3 0.2,0.2 0.3,0.4 0.3,0.7 v 4.8 c 0,0.3 -0.1,0.5 -0.3,0.7 a 1.08,1.08 0 0 1 -0.7,0.3 c -0.3,0 -0.5,-0.1 -0.7,-0.3 C 52.1,68.5 52,68.2 52,68 v -4.8 c 0,-0.4 0.1,-0.7 0.3,-0.8 m 4,0 c 0.4,0 0.7,0.2 0.9,0.4 0.2,0.2 0.4,0.5 0.4,0.8 0,0.3 0.1,0.6 0.1,0.9 v 2.7 c 0,0.3 -0.2,0.6 -0.4,0.8 -0.2,0.2 -0.5,0.4 -0.8,0.4 h -0.1 c -0.2,0 -0.4,-0.1 -0.6,-0.3 -0.2,-0.2 -0.3,-0.4 -0.3,-0.7 v -4.1 c 0,-0.3 0.1,-0.5 0.3,-0.7 0,-0.1 0.2,-0.2 0.5,-0.2 z M 49,62.9 c 0.2,-0.2 0.5,-0.4 0.8,-0.4 h 0.1 c 0.2,0 0.4,0.1 0.6,0.3 0.2,0.2 0.3,0.4 0.3,0.7 v 4.3 c 0,0.3 -0.1,0.5 -0.3,0.7 -0.1,0.2 -0.3,0.2 -0.5,0.3 h -0.1 c -0.3,0 -0.6,-0.2 -0.8,-0.4 -0.2,-0.2 -0.4,-0.6 -0.5,-0.9 0,-0.3 -0.1,-0.6 -0.1,-0.9 v -1.8 c 0,-0.3 0,-0.6 0.1,-0.9 0,-0.5 0.2,-0.8 0.4,-1 z"
         fill="#ed9140"
         id="path26" />
      <path
         d="m 52,65.8 c 0.3,0.5 0.7,0.8 1.1,0.8 0.4,0 0.8,-0.3 1.1,-0.9 v -2.6 c 0,-0.3 -0.1,-0.5 -0.3,-0.7 a 1.08,1.08 0 0 0 -0.7,-0.3 c -0.3,0 -0.6,0.1 -0.8,0.3 -0.2,0.2 -0.3,0.4 -0.3,0.7 v 2.4 z m 3.4,-0.5 c 0.3,0.5 0.7,0.7 1.1,0.7 0.5,0 0.9,-0.4 1.2,-0.9 v -0.6 c 0,-0.3 0,-0.6 -0.1,-0.9 0,-0.3 -0.2,-0.6 -0.4,-0.8 -0.2,-0.2 -0.5,-0.4 -0.8,-0.4 h -0.1 c -0.2,0 -0.4,0.1 -0.6,0.3 -0.2,0.2 -0.3,0.4 -0.3,0.7 z M 49,62.9 c 0.2,-0.2 0.5,-0.4 0.8,-0.4 h 0.1 c 0.2,0 0.4,0.1 0.6,0.3 0.2,0.2 0.3,0.4 0.3,0.7 v 1.7 c -0.3,0.5 -0.7,0.9 -1.1,0.9 -0.4,0 -0.8,-0.3 -1.1,-0.8 v -0.6 c 0,-0.3 0,-0.6 0.1,-0.9 -0.1,-0.4 0.1,-0.7 0.3,-0.9 z"
         fill="#ffb03f"
         id="path28" />
      <g
         fill-rule="evenodd"
         id="g36">
        <circle
           r="5.4000001"
           cy="24.799999"
           cx="45.299999"
           fill="#af6bd6"
           id="circle30" />
        <circle
           r="3.9000001"
           cy="24.9"
           cx="44.900002"
           fill="#54476e"
           id="circle32" />
        <circle
           r="1.3"
           cy="23.4"
           cx="46.200001"
           fill="#ffffff"
           id="circle34" />
      </g>
    </g>
  </g>
</svg>
