<?xml version="1.0" encoding="UTF-8" standalone="no"?>
<!-- Created with Inkscape (http://www.inkscape.org/) -->

<svg
   version="1.1"
   id="svg2847"
   xml:space="preserve"
   width="822.66669"
   height="213.33333"
   viewBox="0 0 822.66669 213.33333"
   sodipodi:docname="Fauna-logo-color.svg"
   inkscape:version="1.1.1 (3bf5ae0d25, 2021-09-20)"
   xmlns:inkscape="http://www.inkscape.org/namespaces/inkscape"
   xmlns:sodipodi="http://sodipodi.sourceforge.net/DTD/sodipodi-0.dtd"
   xmlns="http://www.w3.org/2000/svg"
   xmlns:svg="http://www.w3.org/2000/svg"><defs
     id="defs2851"><clipPath
       clipPathUnits="userSpaceOnUse"
       id="clipPath2861"><path
         d="M 0,0 H 617 V 160 H 0 Z"
         id="path2859" /></clipPath></defs><sodipodi:namedview
     id="namedview2849"
     pagecolor="#ffffff"
     bordercolor="#666666"
     borderopacity="1.0"
     inkscape:pageshadow="2"
     inkscape:pageopacity="0.0"
     inkscape:pagecheckerboard="0"
     showgrid="false"
     inkscape:zoom="1.3772285"
     inkscape:cx="411.33334"
     inkscape:cy="106.37305"
     inkscape:window-width="1920"
     inkscape:window-height="1001"
     inkscape:window-x="-7"
     inkscape:window-y="-7"
     inkscape:window-maximized="1"
     inkscape:current-layer="g2853" /><g
     id="g2853"
     inkscape:groupmode="layer"
     inkscape:label="Fauna-logo-color"
     transform="matrix(1.3333333,0,0,-1.3333333,0,213.33333)"><g
       id="g2855"><g
         id="g2857"
         clip-path="url(#clipPath2861)"><g
           id="g2863"
           transform="translate(194.7871,95.4597)"><path
             d="m 0,0 v 5.834 c 0,19.184 16.482,33.375 35.851,33.375 3.884,0 7.768,-0.578 9.5,-1.156 L 40.89,20.918 c -1.575,0.579 -3.307,0.789 -5.039,0.789 -10.078,0 -16.849,-7.358 -16.849,-15.925 V -0.053 H 42.254 V -14.401 H 19.002 V -87.354 H 0 v 73.005 H -11.232 V 0 Z"
             style="fill:#3f00a5;fill-opacity:1;fill-rule:nonzero;stroke:none"
             id="path2865" /></g><g
           id="g2867"
           transform="translate(259.875,51.7834)"><path
             d="m 0,0 c 0,-16.872 11.81,-30.064 26.35,-30.064 12.387,0 26.559,10.301 26.559,30.064 0,16.661 -11.442,30.063 -26.559,30.063 C 11.81,30.063 0,16.503 0,0 m -19.001,0 c 0,25.228 18.214,44.623 42.254,44.623 12.387,0 23.253,-6.623 29.656,-16.504 V 43.624 H 71.858 V -43.678 H 52.857 v 15.505 C 46.243,-38.054 35.43,-44.676 23.2,-44.676 -0.787,-44.623 -19.001,-25.019 -19.001,0"
             style="fill:#3f00a5;fill-opacity:1;fill-rule:nonzero;stroke:none"
             id="path2869" /></g><g
           id="g2871"
           transform="translate(343.9619,44.7981)"><path
             d="M 0,0 V 50.614 H 18.791 V -1.209 c 0,-11.248 8.503,-20.971 20.523,-20.971 15.327,0 23.622,12.982 23.622,22.127 v 50.615 h 18.79 v -87.301 h -18.79 v 11.825 C 56.951,-32.482 47.45,-37.738 36.375,-37.738 13.542,-37.633 0,-20.341 0,0"
             style="fill:#3f00a5;fill-opacity:1;fill-rule:nonzero;stroke:none"
             id="path2873" /></g><g
           id="g2875"
           transform="translate(436.1855,8.1575)"><path
             d="M 0,0 V 87.301 H 18.791 V 75.475 c 5.826,7.568 15.327,12.824 26.56,12.824 22.675,0 36.427,-17.292 36.427,-37.631 V 0.053 H 62.987 v 51.823 c 0,11.826 -9.081,20.971 -20.733,20.971 -15.484,0 -23.463,-13.56 -23.463,-22.127 V 0.105 L 0,0.105 Z"
             style="fill:#3f00a5;fill-opacity:1;fill-rule:nonzero;stroke:none"
             id="path2877" /></g><g
           id="g2879"
           transform="translate(545.4678,51.7834)"><path
             d="M 0,0 C 0,-16.872 11.812,-30.064 26.351,-30.064 38.738,-30.064 52.91,-19.763 52.91,0 52.91,16.661 41.467,30.063 26.351,30.063 11.812,30.063 0,16.503 0,0 m -19.001,0 c 0,25.228 18.214,44.623 42.254,44.623 12.389,0 23.253,-6.623 29.657,-16.504 V 43.624 H 71.911 V -43.678 H 52.91 v 15.505 C 46.296,-38.054 35.483,-44.676 23.253,-44.676 -0.787,-44.623 -19.001,-25.019 -19.001,0"
             style="fill:#3f00a5;fill-opacity:1;fill-rule:nonzero;stroke:none"
             id="path2881" /></g><g
           id="g2883"
           transform="translate(112.2222,126.3621)"><path
             d="m 0,0 c -9.92,-3.311 -14.697,-9.25 -17.951,-18.501 -0.84,-2.47 -2.94,-5.203 -5.302,-7.043 l 8.136,-8.725 -25.825,18.081 -71.28,49.826 c 0,0 5.144,-33.428 6.929,-45.727 1.259,-8.672 3.411,-12.561 10.235,-16.503 l 2.729,-1.472 11.758,-6.202 -6.981,3.627 32.228,-17.608 -0.21,-0.472 -34.695,16.082 c 1.837,-6.307 5.406,-18.447 6.928,-23.809 1.628,-5.781 3.465,-7.884 9.081,-9.934 l 10.341,-3.785 6.403,2.524 -8.136,-5.414 -40.679,-51.665 c 27.032,25.123 49.917,34.058 66.662,41.364 21.363,9.25 34.223,15.189 42.621,36.528 5.984,14.98 10.655,34.164 16.587,41.575 L 32.229,8.935 C 32.229,8.935 6.036,1.997 0,0"
             style="fill:#3f00a5;fill-opacity:1;fill-rule:nonzero;stroke:none"
             id="path2885" /></g></g></g></g></svg>
