<?xml version="1.0" encoding="UTF-8" standalone="no"?>
<!-- Generator: Adobe Illustrator 22.1.0, SVG Export Plug-In . SVG Version: 6.00 Build 0)  -->

<svg
   version="1.1"
   id="Layer_1"
   x="0px"
   y="0px"
   viewBox="0 0 499.99998 134.50445"
   xml:space="preserve"
   sodipodi:docname="infoblox-logo.svg"
   width="500"
   height="134.50446"
   inkscape:version="1.1.1 (3bf5ae0d25, 2021-09-20)"
   xmlns:inkscape="http://www.inkscape.org/namespaces/inkscape"
   xmlns:sodipodi="http://sodipodi.sourceforge.net/DTD/sodipodi-0.dtd"
   xmlns="http://www.w3.org/2000/svg"
   xmlns:svg="http://www.w3.org/2000/svg"><defs
   id="defs87" /><sodipodi:namedview
   id="namedview85"
   pagecolor="#ffffff"
   bordercolor="#666666"
   borderopacity="1.0"
   inkscape:pageshadow="2"
   inkscape:pageopacity="0.0"
   inkscape:pagecheckerboard="0"
   showgrid="false"
   fit-margin-top="0"
   fit-margin-left="0"
   fit-margin-right="0"
   fit-margin-bottom="0"
   inkscape:zoom="4.8800737"
   inkscape:cx="92.928924"
   inkscape:cy="25.306995"
   inkscape:window-width="1920"
   inkscape:window-height="1001"
   inkscape:window-x="-7"
   inkscape:window-y="-7"
   inkscape:window-maximized="1"
   inkscape:current-layer="Layer_1" />
<style
   type="text/css"
   id="style2">
	.st0{fill:#231F20;}
	.st1{fill:#95C840;}
	.st2{fill:#59C9E6;}
	.st3{fill:#EBE719;}
	.st4{fill:#50C0AF;}
	.st5{fill:#0377BB;}
	.st6{fill:#78BC43;}
	.st7{fill:#109FDA;}
</style>
<g
   id="g82"
   transform="matrix(2.6219192,0,0,2.6219192,-40.377556,-19.14001)">
	<g
   id="g40">
		<g
   id="g38">
			<g
   id="g36">
				<path
   class="st0"
   d="M 42.2,26.9 V 44.3 H 37.9 V 28.1 c 0,-1.5 -0.3,-2.7 -0.8,-3.4 -0.6,-0.7 -1.4,-1.1 -2.6,-1.1 -0.9,0 -1.9,0.3 -2.9,0.8 -1,0.5 -2,1.3 -3,2.3 v 17.7 h -4.2 v -24 h 3.9 v 3.2 c 1.4,-1.3 2.7,-2.2 3.9,-2.7 1.2,-0.5 2.4,-0.8 3.6,-0.8 2,0 3.6,0.6 4.7,1.8 1.1,1.1 1.7,2.8 1.7,5"
   id="path4" />
				<path
   class="st0"
   d="m 56.1,11.2 v 3.5 c -1,-0.1 -1.4,-0.1 -1.8,-0.1 -0.4,0 -0.7,-0.1 -0.9,-0.1 -1,0 -1.7,0.2 -2.1,0.7 -0.4,0.5 -0.6,1.2 -0.6,2.3 v 2.8 H 56 v 3.6 H 50.7 V 44.3 H 46.5 V 23.9 20.3 16.9 c 0,-2 0.5,-3.5 1.6,-4.5 1,-1 2.5,-1.6 4.5,-1.6 0.4,0 0.9,0 1.4,0.1 0.4,0.1 1,0.2 2.1,0.3"
   id="path6" />
				<path
   class="st0"
   d="m 66.9,19.9 c 3.1,0 5.6,1.1 7.3,3.2 1.7,2.1 2.6,5.1 2.6,9 0,3.9 -0.9,6.9 -2.6,9 -1.7,2.1 -4.2,3.2 -7.3,3.2 -3.1,0 -5.6,-1.1 -7.3,-3.2 C 57.9,39 57,36 57,32.1 c 0,-3.8 0.9,-6.8 2.6,-9 1.7,-2.1 4.1,-3.2 7.3,-3.2 m 0,3.7 c -1.8,0 -3.2,0.7 -4.2,2.1 -0.9,1.4 -1.4,3.5 -1.4,6.3 0,2.8 0.5,4.9 1.4,6.4 0.9,1.4 2.3,2.2 4.2,2.2 1.8,0 3.2,-0.7 4.1,-2.2 1,-1.4 1.4,-3.6 1.4,-6.3 0,-2.8 -0.5,-4.9 -1.4,-6.4 -0.9,-1.4 -2.3,-2.1 -4.1,-2.1"
   id="path8" />
				<rect
   x="104.3"
   y="11"
   class="st0"
   width="4.1999998"
   height="33.400002"
   id="rect10" />
				<rect
   x="15.8"
   y="11"
   class="st0"
   width="4.1999998"
   height="33.400002"
   id="rect12" />
				<path
   class="st0"
   d="m 84.9,44.4 v -2.6 c 0.7,0.7 1.4,1.3 2.3,1.7 1,0.5 2.2,0.8 3.5,0.8 3,0 5.3,-1.1 6.9,-3.2 1.7,-2.2 2.5,-5.2 2.5,-9 0,-3.7 -0.9,-6.6 -2.6,-8.8 -1.7,-2.2 -4,-3.2 -6.9,-3.2 -1.2,0 -2.2,0.3 -3.2,0.7 -1,0.5 -1.8,1.2 -2.5,2.2 V 11 h -4.2 v 33.4 z m 9.4,-5.9 c -1,1.5 -2.4,2.2 -4.2,2.2 -1,0 -1.9,-0.2 -2.7,-0.7 C 86.6,39.5 85.7,38.8 85,37.8 V 26.4 c 0.8,-0.9 1.6,-1.7 2.4,-2.1 0.8,-0.5 1.7,-0.7 2.6,-0.7 1.9,0 3.4,0.7 4.4,2.2 1,1.5 1.5,3.7 1.5,6.5 -0.2,2.7 -0.6,4.8 -1.6,6.2"
   id="path14" />
				<path
   class="st0"
   d="m 122.5,19.9 c 3.1,0 5.6,1.1 7.3,3.2 1.7,2.1 2.6,5.1 2.6,9 0,3.9 -0.9,6.9 -2.6,9 -1.7,2.1 -4.2,3.2 -7.3,3.2 -3.1,0 -5.6,-1.1 -7.3,-3.2 -1.7,-2.1 -2.6,-5.1 -2.6,-9 0,-3.8 0.9,-6.8 2.6,-9 1.7,-2.1 4.2,-3.2 7.3,-3.2 m 0,3.7 c -1.8,0 -3.2,0.7 -4.2,2.1 -0.9,1.4 -1.4,3.5 -1.4,6.3 0,2.8 0.5,4.9 1.4,6.4 0.9,1.4 2.3,2.2 4.2,2.2 1.8,0 3.2,-0.7 4.1,-2.2 1,-1.4 1.4,-3.6 1.4,-6.3 0,-2.8 -0.5,-4.9 -1.4,-6.4 -0.9,-1.4 -2.3,-2.1 -4.1,-2.1"
   id="path16" />
				<polygon
   class="st0"
   points="145.5,31.5 153.1,44.2 148.2,44.2 143,34.7 137.8,44.2 133.2,44.2 140.7,31.5 133.8,20 138.7,20 143.1,28 147.6,20 152.2,20 "
   id="polygon18" />
				<path
   class="st1"
   d="M 167.2,28.1 160,22.7 c -0.2,-0.2 -0.3,-0.4 -0.3,-0.5 0,-0.2 0.1,-0.4 0.3,-0.5 0,0 7.2,-5.4 7.2,-5.4 0.5,-0.4 1.5,-0.4 2.1,0 0,0 7.2,5.4 7.2,5.4 0.2,0.2 0.3,0.4 0.3,0.5 0,0.2 -0.1,0.4 -0.3,0.5 l -7.2,5.4 c -0.6,0.4 -1.6,0.4 -2.1,0"
   id="path20" />
				<path
   class="st2"
   d="M 167.2,45.5 160,40.1 c -0.2,-0.2 -0.3,-0.4 -0.3,-0.5 0,-0.2 0.1,-0.4 0.3,-0.5 0,0 7.2,-5.4 7.2,-5.4 0.5,-0.4 1.5,-0.4 2.1,0 0,0 7.2,5.4 7.2,5.4 0.2,0.2 0.3,0.4 0.3,0.5 0,0.2 -0.1,0.4 -0.3,0.5 l -7.2,5.4 c -0.6,0.5 -1.6,0.5 -2.1,0"
   id="path22" />
				<path
   class="st3"
   d="m 178.8,19.5 -7.2,-5.4 c -0.2,-0.2 -0.3,-0.4 -0.3,-0.6 0,-0.2 0.1,-0.4 0.3,-0.5 0,0 7.2,-5.4 7.2,-5.4 0.6,-0.4 1.5,-0.4 2.1,0 l 7.2,5.4 c 0.2,0.2 0.3,0.4 0.3,0.5 0,0.2 -0.1,0.4 -0.3,0.6 l -7.2,5.4 c -0.6,0.4 -1.5,0.4 -2.1,0"
   id="path24" />
				<path
   class="st4"
   d="m 178.8,36.9 -7.2,-5.4 c -0.2,-0.2 -0.3,-0.4 -0.3,-0.5 0,-0.2 0.1,-0.4 0.3,-0.5 0,0 7.2,-5.4 7.2,-5.4 0.6,-0.4 1.5,-0.4 2.1,0 l 7.2,5.4 c 0.2,0.2 0.3,0.4 0.3,0.5 0,0.2 -0.1,0.4 -0.3,0.5 l -7.2,5.4 c -0.6,0.4 -1.5,0.4 -2.1,0"
   id="path26" />
				<path
   class="st5"
   d="m 178.8,54.6 -7.2,-5.4 c -0.2,-0.2 -0.3,-0.4 -0.3,-0.6 0,-0.2 0.1,-0.4 0.3,-0.5 0,0 7.2,-5.4 7.2,-5.4 0.6,-0.4 1.5,-0.4 2.1,0 l 7.2,5.4 c 0.2,0.2 0.3,0.4 0.3,0.5 0,0.2 -0.1,0.4 -0.3,0.6 l -7.2,5.4 c -0.6,0.4 -1.5,0.4 -2.1,0"
   id="path28" />
				<path
   class="st6"
   d="m 190.4,28.1 -7.2,-5.4 c -0.2,-0.2 -0.3,-0.4 -0.3,-0.5 0,-0.2 0.1,-0.4 0.3,-0.5 0,0 7.2,-5.4 7.2,-5.4 0.5,-0.4 1.5,-0.4 2.1,0 0,0 7.2,5.4 7.2,5.4 0.2,0.2 0.3,0.4 0.3,0.5 0,0.2 -0.1,0.4 -0.3,0.5 l -7.2,5.4 c -0.5,0.4 -1.5,0.4 -2.1,0"
   id="path30" />
				<path
   class="st7"
   d="m 190.4,45.5 -7.2,-5.4 c -0.2,-0.2 -0.3,-0.4 -0.3,-0.5 0,-0.2 0.1,-0.4 0.3,-0.5 0,0 7.2,-5.4 7.2,-5.4 0.5,-0.4 1.5,-0.4 2.1,0 0,0 7.2,5.4 7.2,5.4 0.2,0.2 0.3,0.4 0.3,0.5 0,0.2 -0.1,0.4 -0.3,0.5 l -7.2,5.4 c -0.5,0.5 -1.5,0.5 -2.1,0"
   id="path32" />
				<path
   class="st0"
   d="m 206.1,30.9 c 0,1.7 -1.3,3.1 -3.1,3.1 -1.7,0 -3.1,-1.4 -3.1,-3.1 0,-1.7 1.3,-3.1 3.1,-3.1 1.8,0.1 3.1,1.4 3.1,3.1 m -5.7,0 c 0,1.5 1.1,2.6 2.6,2.6 1.5,0 2.6,-1.2 2.6,-2.6 0,-1.5 -1.1,-2.6 -2.6,-2.6 -1.4,0 -2.6,1.2 -2.6,2.6 m 2,1.8 H 202 v -3.6 h 1.4 c 0.8,0 1.2,0.3 1.2,1 0,0.6 -0.4,0.9 -0.9,1 l 1.1,1.6 h -0.5 l -1,-1.6 h -0.7 v 1.6 z m 0.6,-1.9 c 0.5,0 1.1,0 1.1,-0.6 0,-0.5 -0.4,-0.6 -0.8,-0.6 h -0.8 v 1.2 z"
   id="path34" />
			</g>
		</g>
	</g>
	<g
   id="g80">
		<path
   class="st0"
   d="m 20.9,58.4 -4.5,-6.1 v 6.1 h -1 v -7.6 h 1 l 4.4,6 v -6 h 1 v 7.6 z"
   id="path42" />
		<path
   class="st0"
   d="m 23.6,58.4 v -7.6 h 5 v 0.8 h -4.1 v 2.5 h 4 V 55 h -4 v 2.6 h 4.1 v 0.8 z"
   id="path44" />
		<path
   class="st0"
   d="M 35.4,58.4 33,55.2 30.6,58.5 h -1.2 l 3,-3.9 -2.8,-3.7 h 1.2 l 2.3,3.1 2.3,-3.1 h 1.2 l -2.8,3.7 3,3.9 h -1.4 z"
   id="path46" />
		<path
   class="st0"
   d="m 39.5,58.4 v -6.8 h -2.4 v -0.8 h 5.8 v 0.8 h -2.4 v 6.8 z"
   id="path48" />
		<path
   class="st0"
   d="m 47.1,58.4 v -7.6 h 1 v 6.8 h 3.6 v 0.8 z"
   id="path50" />
		<path
   class="st0"
   d="m 53,58.4 v -7.6 h 5 v 0.8 h -4.1 v 2.5 h 4 V 55 h -4 v 2.6 H 58 v 0.8 z"
   id="path52" />
		<path
   class="st0"
   d="m 61.8,58.4 -3.1,-7.6 h 1.1 l 2.6,6.6 2.6,-6.6 h 1.1 L 63,58.4 Z"
   id="path54" />
		<path
   class="st0"
   d="m 67,58.4 v -7.6 h 5 v 0.8 h -4 v 2.5 h 4 V 55 h -4 v 2.6 h 4.1 v 0.8 z"
   id="path56" />
		<path
   class="st0"
   d="m 73.6,58.4 v -7.6 h 1 v 6.8 h 3.6 v 0.8 z"
   id="path58" />
		<path
   class="st0"
   d="m 87.8,58.4 -4.5,-6.1 v 6.1 h -1 v -7.6 h 1 l 4.4,6 v -6 h 1 v 7.6 z"
   id="path60" />
		<path
   class="st0"
   d="m 90.5,58.4 v -7.6 h 5 v 0.8 h -4.1 v 2.5 h 4 V 55 h -4 v 2.6 h 4.1 v 0.8 z"
   id="path62" />
		<path
   class="st0"
   d="m 98.9,58.4 v -6.8 h -2.4 v -0.8 h 5.8 v 0.8 h -2.4 v 6.8 z"
   id="path64" />
		<path
   class="st0"
   d="m 109.4,58.4 -1.7,-6.2 -1.7,6.2 h -1 l -2.2,-7.6 h 1.1 l 1.7,6.4 1.8,-6.4 h 0.8 l 1.8,6.4 1.7,-6.4 h 1.1 l -2.2,7.6 z"
   id="path66" />
		<path
   class="st0"
   d="m 113.2,54.6 c 0,-2.3 1.5,-3.9 3.8,-3.9 2.3,0 3.8,1.7 3.8,3.9 0,2.3 -1.5,3.9 -3.8,3.9 -2.3,0.1 -3.8,-1.6 -3.8,-3.9 z m 6.6,0 c 0,-1.8 -1.1,-3.1 -2.8,-3.1 -1.7,0 -2.8,1.3 -2.8,3.1 0,1.8 1.1,3.1 2.8,3.1 1.7,0 2.8,-1.3 2.8,-3.1 z"
   id="path68" />
		<path
   class="st0"
   d="m 126.7,58.4 -2,-3 h -1.5 v 3 h -1 v -7.6 h 3.1 c 1.4,0 2.4,0.9 2.4,2.3 0,1.4 -0.9,2.1 -2,2.2 l 2.1,3.1 z m 0,-5.3 c 0,-0.9 -0.6,-1.5 -1.5,-1.5 h -2 v 2.9 h 2 c 0.9,0.1 1.5,-0.5 1.5,-1.4 z"
   id="path70" />
		<path
   class="st0"
   d="m 133.8,58.4 -2.9,-3.4 -0.8,0.9 v 2.6 h -1 v -7.6 h 1 v 3.9 l 3.4,-3.9 h 1.2 l -3.2,3.6 3.5,4 h -1.2 z"
   id="path72" />
		<path
   class="st0"
   d="m 136.1,58.4 v -7.6 h 1 v 7.6 z"
   id="path74" />
		<path
   class="st0"
   d="m 144.3,58.4 -4.5,-6.1 v 6.1 h -1 v -7.6 h 1 l 4.4,6 v -6 h 1 v 7.6 z"
   id="path76" />
		<path
   class="st0"
   d="m 146.7,54.6 c 0,-2.4 1.8,-3.9 3.9,-3.9 1.4,0 2.3,0.6 3,1.4 l -0.8,0.5 c -0.5,-0.6 -1.3,-1.1 -2.2,-1.1 -1.7,0 -2.9,1.3 -2.9,3.1 0,1.8 1.3,3.1 2.9,3.1 0.9,0 1.7,-0.4 2.1,-0.8 V 55.3 H 150 v -0.8 h 3.6 v 2.8 c -0.7,0.8 -1.8,1.3 -3,1.3 -2.2,0 -3.9,-1.6 -3.9,-4 z"
   id="path78" />
	</g>
</g>
</svg>
