<svg id="Layer_1" data-name="Layer 1" xmlns="http://www.w3.org/2000/svg" viewBox="0 0 162.612 24.465"><defs><style>.cls-1{fill:#c72c48;}</style></defs><title>Main page_footer_J</title><rect class="cls-1" x="52.751" y="0.414" width="9.108" height="23.63"/><path class="cls-1" d="M41.711.74,23.223,10.66a.919.919,0,0,1-.856,0L3.879.74A2.808,2.808,0,0,0,2.558.414H2.535A2.4,2.4,0,0,0,0,2.641V24.017H9.1V13.842a.918.918,0,0,1,1.385-.682l10.361,5.568a3.634,3.634,0,0,0,3.336.028l10.933-5.634a.917.917,0,0,1,1.371.69V24.017h9.1V2.641A2.4,2.4,0,0,0,43.055.414h-.023A2.808,2.808,0,0,0,41.711.74Z"/><path class="cls-1" d="M107.275.414H98.038V11.169a.913.913,0,0,1-1.338.706L72.762.675A2.824,2.824,0,0,0,71.571.414h-.016A2.4,2.4,0,0,0,69.02,2.641V24.018h9.163V13.275a.914.914,0,0,1,1.337-.707l24.032,11.2a2.813,2.813,0,0,0,1.188.26h0a2.4,2.4,0,0,0,2.535-2.227Z"/><path class="cls-1" d="M114.436,24.044V.414h4.191v23.63Z"/><path class="cls-1" d="M143.292,24.465c-11.274,0-19.272-4.7-19.272-12.232C124.02,4.741,132.066,0,143.292,0s19.32,4.7,19.32,12.233S154.71,24.465,143.292,24.465Zm0-21.333c-8.383,0-14.84,3.217-14.84,9.1,0,5.926,6.457,9.1,14.84,9.1s14.887-3.174,14.887-9.1C158.179,6.349,151.675,3.132,143.292,3.132Z"/></svg>