<?xml version="1.0" encoding="UTF-8" standalone="no"?>
<!-- Created with Inkscape (http://www.inkscape.org/) -->

<svg
   version="1.1"
   id="svg2"
   xml:space="preserve"
   width="500.00003"
   height="142.77274"
   viewBox="0 0 500.00003 142.77274"
   sodipodi:docname="Vates_logo.svg"
   inkscape:version="1.1.1 (3bf5ae0d25, 2021-09-20)"
   xmlns:inkscape="http://www.inkscape.org/namespaces/inkscape"
   xmlns:sodipodi="http://sodipodi.sourceforge.net/DTD/sodipodi-0.dtd"
   xmlns="http://www.w3.org/2000/svg"
   xmlns:svg="http://www.w3.org/2000/svg"><defs
     id="defs6"><clipPath
       clipPathUnits="userSpaceOnUse"
       id="clipPath18"><path
         d="M 0,0 H 2970 V 850 H 0 Z"
         id="path16" /></clipPath></defs><sodipodi:namedview
     id="namedview4"
     pagecolor="#ffffff"
     bordercolor="#666666"
     borderopacity="1.0"
     inkscape:pageshadow="2"
     inkscape:pageopacity="0.0"
     inkscape:pagecheckerboard="0"
     showgrid="false"
     fit-margin-top="0"
     fit-margin-left="0"
     fit-margin-right="0"
     fit-margin-bottom="0"
     inkscape:zoom="0.78030303"
     inkscape:cx="408.17476"
     inkscape:cy="-64.07767"
     inkscape:window-width="1920"
     inkscape:window-height="1010"
     inkscape:window-x="-6"
     inkscape:window-y="-6"
     inkscape:window-maximized="1"
     inkscape:current-layer="g8" /><g
     id="g8"
     inkscape:groupmode="layer"
     inkscape:label="Vates_logo"
     transform="matrix(1.3333333,0,0,-1.3333333,0,113.33333)"><g
       id="g916"
       transform="matrix(1.264939,0,0,1.264939,0,-22.519812)"><g
         id="g10"
         transform="scale(0.1)"><g
           id="g12"><g
             id="g14"
             clip-path="url(#clipPath18)"><path
               d="M 208.59,303.281 0,850 H 77.1914 L 250.469,389.691 424.059,850 h 76.882 L 292.5,303.281 Z"
               style="fill:#000000;fill-opacity:1;fill-rule:nonzero;stroke:none"
               id="path20" /><path
               d="m 704.84,509.531 c -54.371,0 -92.11,-6.25 -113.121,-18.75 -20.938,-12.5 -31.41,-33.75 -31.41,-63.75 0,-23.871 7.851,-42.812 23.601,-56.871 15.699,-14.07 37.11,-21.101 64.211,-21.101 37.391,0 67.348,13.211 89.848,39.691 22.582,26.559 33.91,61.762 33.91,105.629 v 15.152 z M 839.219,537.34 V 303.281 h -67.34 v 62.188 c -15.32,-24.918 -34.5,-43.278 -57.5,-55.16 -22.93,-11.758 -51.02,-17.649 -84.219,-17.649 -42,0 -75.39,11.75 -100.16,35.309 -24.801,23.511 -37.191,55.082 -37.191,94.691 0,46.129 15.39,80.93 46.25,104.371 30.941,23.438 77.07,35.16 138.441,35.16 h 94.379 v 6.559 c 0,31.02 -10.238,55.039 -30.629,72.031 -20.309,16.949 -48.91,25.469 -85.781,25.469 -23.438,0 -46.328,-2.809 -68.59,-8.441 -22.188,-5.618 -43.559,-14.059 -64.07,-25.309 v 62.191 c 24.691,9.571 48.64,16.719 71.882,21.399 23.2,4.769 45.778,7.191 67.649,7.191 59.379,0 103.68,-15.39 132.969,-46.09 29.261,-30.742 43.91,-77.351 43.91,-139.851 z"
               style="fill:#000000;fill-opacity:1;fill-rule:nonzero;stroke:none"
               id="path22" /><path
               d="M 1044.14,829.84 V 713.441 h 138.75 V 661.09 H 1044.14 V 438.441 c 0,-33.441 4.57,-54.961 13.75,-64.531 9.14,-9.5 27.73,-14.219 55.78,-14.219 h 69.22 v -56.41 h -69.22 c -51.99,0 -87.89,9.688 -107.65,29.059 -19.809,19.461 -29.692,54.851 -29.692,106.101 V 661.09 h -49.379 v 52.351 h 49.379 V 829.84 Z"
               style="fill:#000000;fill-opacity:1;fill-rule:nonzero;stroke:none"
               id="path24" /><path
               d="m 1622.38,525.16 v -32.969 h -309.84 c 2.89,-46.371 16.87,-81.679 41.87,-105.941 25,-24.301 59.85,-36.41 104.54,-36.41 25.93,0 51.01,3.172 75.31,9.539 24.26,6.32 48.36,15.82 72.34,28.43 v -63.59 c -24.18,-10.309 -48.98,-18.129 -74.37,-23.438 -25.43,-5.39 -51.18,-8.121 -77.19,-8.121 -65.55,0 -117.42,18.981 -155.63,57.031 -38.12,38.118 -57.18,89.688 -57.18,154.688 0,67.07 18.12,120.312 54.37,159.68 36.25,39.461 85.16,59.222 146.72,59.222 55.08,0 98.67,-17.769 130.78,-53.281 32.19,-35.551 48.28,-83.828 48.28,-144.84 z m -67.5,19.84 c -0.43,36.879 -10.74,66.289 -30.93,88.281 -20.12,21.949 -46.8,32.969 -80,32.969 -37.62,0 -67.74,-10.629 -90.32,-31.871 -22.5,-21.258 -35.47,-51.18 -38.9,-89.688 z"
               style="fill:#000000;fill-opacity:1;fill-rule:nonzero;stroke:none"
               id="path26" /><path
               d="m 1994.26,701.41 v -63.75 c -19.06,9.762 -38.87,17.07 -59.38,21.871 -20.54,4.879 -41.79,7.348 -63.75,7.348 -33.43,0 -58.55,-5.16 -75.31,-15.469 -16.68,-10.238 -25,-25.551 -25,-45.941 0,-15.629 5.98,-27.93 17.97,-36.879 11.95,-8.86 36.01,-17.34 72.19,-25.469 l 22.97,-5.152 c 47.89,-10.239 81.91,-24.688 102.03,-43.438 20.07,-18.672 30.15,-44.691 30.15,-78.121 0,-38.051 -15.08,-68.211 -45.15,-90.469 -30.12,-22.191 -71.57,-33.281 -124.38,-33.281 -21.99,0 -44.92,2.141 -68.75,6.399 -23.75,4.261 -48.83,10.671 -75.15,19.222 v 69.528 c 24.88,-12.93 49.41,-22.61 73.59,-29.059 24.14,-6.48 48.12,-9.691 71.87,-9.691 31.64,0 56.02,5.39 73.13,16.25 17.07,10.941 25.62,26.25 25.62,45.941 0,18.32 -6.17,32.379 -18.43,42.191 -12.31,9.758 -39.34,19.137 -81.1,28.118 l -23.43,5.632 c -41.8,8.75 -71.96,22.188 -90.47,40.309 -18.56,18.199 -27.82,43.199 -27.82,75 0,38.52 13.64,68.281 40.94,89.219 27.38,21.011 66.25,31.562 116.56,31.562 24.89,0 48.32,-1.832 70.32,-5.472 21.95,-3.668 42.22,-9.137 60.78,-16.399 z"
               style="fill:#000000;fill-opacity:1;fill-rule:nonzero;stroke:none"
               id="path28" /><path
               d="m 288.672,140.512 v -14.383 c -5.621,2.582 -10.942,4.57 -15.942,5.941 -5,1.328 -9.8,2.032 -14.371,2.032 -8.129,0 -14.379,-1.563 -18.75,-4.692 -4.379,-3.121 -6.558,-7.609 -6.558,-13.43 0,-4.808 1.437,-8.441 4.371,-10.941 2.887,-2.418 8.437,-4.379 16.558,-5.9374 l 8.911,-1.8711 c 11.019,-2.1094 19.14,-5.7813 24.379,-11.1016 5.308,-5.3086 7.96,-12.418 7.96,-21.25 0,-10.6172 -3.55,-18.707 -10.621,-24.2187 -7.109,-5.4297 -17.5,-8.1211 -31.25,-8.1211 -5.238,0 -10.738,0.6211 -16.558,1.8711 -5.86,1.1406 -11.879,2.8593 -18.129,5.1601 v 15.1602 c 6.019,-3.3594 11.918,-5.9024 17.656,-7.6602 5.703,-1.6797 11.402,-2.5 17.031,-2.5 8.442,0 14.922,1.6406 19.532,5 4.57,3.3203 6.879,8.0508 6.879,14.2188 0,5.3906 -1.68,9.6093 -5,12.6601 -3.25,3 -8.598,5.2305 -16.098,6.711 l -9.063,1.8789 c -11.058,2.1914 -19.058,5.6211 -24.058,10.3125 -4.93,4.6874 -7.352,11.1684 -7.352,19.5274 0,9.691 3.36,17.269 10.16,22.82 6.871,5.621 16.289,8.43 28.282,8.43 5.078,0 10.308,-0.469 15.629,-1.399 5.308,-0.941 10.781,-2.351 16.402,-4.218 z"
               style="fill:#979797;fill-opacity:1;fill-rule:nonzero;stroke:none"
               id="path30" /><path
               d="m 349.379,107.379 c -7.188,0 -12.93,-2.891 -17.188,-8.5899 -4.179,-5.6289 -6.25,-13.3594 -6.25,-23.1289 0,-9.8008 2.071,-17.5 6.25,-23.1211 4.137,-5.6289 9.879,-8.4375 17.188,-8.4375 7.18,0 12.851,2.8086 17.031,8.4375 4.141,5.6211 6.25,13.3203 6.25,23.1211 0,9.6914 -2.109,17.3906 -6.25,23.1289 -4.18,5.6989 -9.851,8.5899 -17.031,8.5899 z m 0,11.41 c 11.641,0 20.82,-3.867 27.5,-11.559 6.75,-7.6206 10.152,-18.1284 10.152,-31.5698 0,-13.4297 -3.402,-24.0196 -10.152,-31.711 -6.68,-7.6211 -15.859,-11.4101 -27.5,-11.4101 -11.801,0 -21.02,3.789 -27.66,11.4101 -6.68,7.6914 -10,18.2813 -10,31.711 0,13.4414 3.32,23.9492 10,31.5698 6.64,7.692 15.859,11.559 27.66,11.559 z"
               style="fill:#979797;fill-opacity:1;fill-rule:nonzero;stroke:none"
               id="path32" /><path
               d="m 409.18,34.7188 h 13.5898 v 113.91 H 409.18 Z"
               style="fill:#979797;fill-opacity:1;fill-rule:nonzero;stroke:none"
               id="path34" /><path
               d="m 449.449,67.0703 v 49.6917 h 13.442 V 67.5391 c 0,-7.7383 1.488,-13.5586 4.531,-17.5 3.008,-3.8672 7.539,-5.7774 13.598,-5.7774 7.261,0 13,2.2578 17.179,6.8672 4.262,4.6914 6.41,11.0195 6.41,19.0703 v 46.5628 h 13.442 V 34.7305 h -13.442 v 12.6484 c -3.238,-5 -7.031,-8.75 -11.41,-11.25 -4.289,-2.3789 -9.289,-3.5898 -15,-3.5898 -9.488,0 -16.679,2.8906 -21.558,8.75 -4.801,5.9414 -7.192,14.5312 -7.192,25.7812 z"
               style="fill:#979797;fill-opacity:1;fill-rule:nonzero;stroke:none"
               id="path36" /><path
               d="m 559.102,140.039 v -23.277 h 27.66 v -10.473 h -27.66 V 61.7617 c 0,-6.6836 0.859,-11.0234 2.66,-12.9726 1.867,-1.8789 5.617,-2.8086 11.25,-2.8086 h 13.75 v -11.25 h -13.75 c -10.434,0 -17.621,1.9101 -21.563,5.7812 -3.988,3.9375 -5.937,11.0078 -5.937,21.25 v 44.5273 h -9.852 v 10.473 h 9.852 v 23.277 z"
               style="fill:#979797;fill-opacity:1;fill-rule:nonzero;stroke:none"
               id="path38" /><path
               d="m 604.449,116.762 h 13.6016 V 34.7307 H 604.449 Z m 0,31.867 h 13.6016 V 131.6017 H 604.449 Z"
               style="fill:#979797;fill-opacity:1;fill-rule:nonzero;stroke:none"
               id="path40" /><path
               d="m 677.891,107.379 c -7.192,0 -12.93,-2.891 -17.192,-8.5899 -4.179,-5.6289 -6.25,-13.3594 -6.25,-23.1289 0,-9.8008 2.071,-17.5 6.25,-23.1211 4.141,-5.6289 9.891,-8.4375 17.192,-8.4375 7.187,0 12.847,2.8086 17.031,8.4375 4.137,5.6211 6.25,13.3203 6.25,23.1211 0,9.6914 -2.113,17.3906 -6.25,23.1289 -4.184,5.6989 -9.844,8.5899 -17.031,8.5899 z m 0,11.41 c 11.64,0 20.82,-3.867 27.5,-11.559 6.757,-7.6206 10.16,-18.1284 10.16,-31.5698 0,-13.4297 -3.403,-24.0196 -10.16,-31.711 -6.68,-7.6211 -15.86,-11.4101 -27.5,-11.4101 -11.801,0 -21.012,3.789 -27.661,11.4101 -6.679,7.6914 -10,18.2813 -10,31.711 0,13.4414 3.321,23.9492 10,31.5698 6.649,7.692 15.86,11.559 27.661,11.559 z"
               style="fill:#979797;fill-opacity:1;fill-rule:nonzero;stroke:none"
               id="path42" /><path
               d="M 805.941,84.2617 V 34.7305 H 792.5 v 49.0586 c 0,7.8125 -1.52,13.6328 -4.531,17.4999 -3.047,3.832 -7.617,5.781 -13.75,5.781 -7.188,0 -12.93,-2.34 -17.188,-7.031 -4.179,-4.6093 -6.25,-10.8984 -6.25,-18.9101 V 34.7305 h -13.59 v 82.0315 h 13.59 v -12.813 c 3.199,5 7.028,8.672 11.41,11.09 4.368,2.5 9.411,3.75 15.149,3.75 9.379,0 16.449,-2.93 21.25,-8.75 4.89,-5.859 7.351,-14.4492 7.351,-25.7773 z"
               style="fill:#979797;fill-opacity:1;fill-rule:nonzero;stroke:none"
               id="path44" /><path
               d="m 884.961,114.41 v -12.808 c -3.75,1.949 -7.731,3.437 -11.871,4.378 -4.07,0.93 -8.289,1.399 -12.66,1.399 -6.801,0 -11.84,-1.051 -15.16,-3.117 -3.36,-1.992 -5,-5.0003 -5,-9.0628 0,-3.1289 1.179,-5.5898 3.601,-7.3476 2.379,-1.8008 7.219,-3.5118 14.527,-5.1524 l 4.532,-1.0976 c 9.57,-1.9922 16.332,-4.8399 20.308,-8.5899 4.063,-3.75 6.102,-8.9922 6.102,-15.6328 0,-7.6094 -3.051,-13.668 -9.07,-18.1172 -5.93,-4.4922 -14.219,-6.7226 -24.84,-6.7226 -4.379,0 -8.981,0.4726 -13.75,1.4101 -4.692,0.8203 -9.692,2.0703 -15,3.75 v 13.9024 c 5,-2.6211 9.879,-4.5313 14.691,-5.7813 4.879,-1.25 9.68,-1.8711 14.367,-1.8711 6.332,0 11.25,1.0117 14.692,3.1211 3.441,2.1914 5.16,5.2305 5.16,9.2188 0,3.6328 -1.25,6.4414 -3.75,8.4414 -2.5,1.9492 -7.93,3.8203 -16.25,5.6211 l -4.692,1.0976 c -8.359,1.75 -14.378,4.4492 -18.128,8.1211 -3.668,3.6289 -5.469,8.6289 -5.469,15 0,7.6997 2.699,13.6287 8.129,17.8087 5.511,4.262 13.281,6.41 23.281,6.41 5,0 9.687,-0.391 14.059,-1.09 4.46,-0.75 8.519,-1.84 12.191,-3.289 z"
               style="fill:#979797;fill-opacity:1;fill-rule:nonzero;stroke:none"
               id="path46" /><path
               d="m 1003.16,134.102 c -10.738,0 -19.289,-4.024 -25.621,-12.032 -6.25,-8.05 -9.379,-18.98 -9.379,-32.8083 0,-13.75 3.129,-24.6523 9.379,-32.6601 6.332,-8.0508 14.883,-12.0313 25.621,-12.0313 10.71,0 19.22,3.9805 25.47,12.0313 6.33,8.0078 9.53,18.9101 9.53,32.6601 0,13.8283 -3.2,24.7583 -9.53,32.8083 -6.25,8.008 -14.76,12.032 -25.47,12.032 z m 0,12.027 c 15.32,0 27.54,-5.149 36.72,-15.469 9.26,-10.308 13.91,-24.14 13.91,-41.3983 0,-17.1914 -4.65,-30.9414 -13.91,-41.25 -9.18,-10.3125 -21.4,-15.4726 -36.72,-15.4726 -15.308,0 -27.609,5.082 -36.871,15.3125 -9.18,10.3086 -13.75,24.0976 -13.75,41.4101 0,17.2583 4.57,31.0903 13.75,41.3983 9.262,10.32 21.563,15.469 36.871,15.469 z"
               style="fill:#979797;fill-opacity:1;fill-rule:nonzero;stroke:none"
               id="path48" /><path
               d="M 1089.34,47.0703 V 3.48047 h -13.6 V 116.762 h 13.6 v -12.5 c 2.81,4.879 6.32,8.508 10.62,10.937 4.38,2.379 9.57,3.59 15.63,3.59 9.88,0 17.96,-3.988 24.21,-11.879 6.25,-7.9295 9.38,-18.3592 9.38,-31.2498 0,-12.9297 -3.13,-23.3594 -9.38,-31.25 -6.25,-7.9297 -14.33,-11.8711 -24.21,-11.8711 -6.06,0 -11.25,1.2109 -15.63,3.5898 -4.3,2.3906 -7.81,6.0195 -10.62,10.9414 z m 45.78,28.5899 c 0,9.8906 -2.03,17.6601 -6.1,23.289 -4.06,5.6208 -9.64,8.4298 -16.72,8.4298 -7.18,0 -12.81,-2.809 -16.87,-8.4298 -4.06,-5.6289 -6.09,-13.3984 -6.09,-23.289 0,-9.9219 2.03,-17.6485 6.09,-23.2813 4.06,-5.6172 9.69,-8.4297 16.87,-8.4297 7.08,0 12.66,2.8125 16.72,8.4297 4.07,5.6328 6.1,13.3594 6.1,23.2813 z"
               style="fill:#979797;fill-opacity:1;fill-rule:nonzero;stroke:none"
               id="path50" /><path
               d="m 1241.64,79.1016 v -6.5625 h -62.03 c 0.62,-9.3008 3.44,-16.3672 8.44,-21.25 5,-4.8086 11.91,-7.1875 20.78,-7.1875 5.19,0 10.19,0.6289 15,1.8789 4.88,1.25 9.72,3.1211 14.53,5.6211 V 38.9492 c -4.81,-2.1094 -9.77,-3.6797 -14.84,-4.6875 -5.12,-1.1406 -10.28,-1.7226 -15.47,-1.7226 -13.05,0 -23.4,3.789 -31.1,11.4101 -7.61,7.6914 -11.4,18 -11.4,30.9297 0,13.4414 3.59,24.1016 10.78,32.0311 7.26,7.891 17.07,11.879 29.37,11.879 11.02,0 19.77,-3.59 26.25,-10.777 6.45,-7.114 9.69,-16.7229 9.69,-28.9104 z m -13.59,3.9101 c -0.12,7.3789 -2.19,13.2774 -6.25,17.6483 -3.99,4.461 -9.3,6.719 -15.94,6.719 -7.5,0 -13.56,-2.149 -18.13,-6.399 -4.49,-4.3003 -7.03,-10.2808 -7.65,-17.9683 z"
               style="fill:#979797;fill-opacity:1;fill-rule:nonzero;stroke:none"
               id="path52" /><path
               d="M 1331.84,84.2617 V 34.7305 h -13.44 v 49.0586 c 0,7.8125 -1.52,13.6328 -4.53,17.4999 -3.05,3.832 -7.62,5.781 -13.75,5.781 -7.19,0 -12.93,-2.34 -17.19,-7.031 -4.18,-4.6093 -6.25,-10.8984 -6.25,-18.9101 V 34.7305 h -13.59 v 82.0315 h 13.59 v -12.813 c 3.2,5 7.03,8.672 11.41,11.09 4.37,2.5 9.41,3.75 15.15,3.75 9.38,0 16.45,-2.93 21.25,-8.75 4.89,-5.859 7.35,-14.4492 7.35,-25.7773 z"
               style="fill:#979797;fill-opacity:1;fill-rule:nonzero;stroke:none"
               id="path54" /><path
               d="m 1472.77,140.512 v -14.383 c -5.62,2.582 -10.93,4.57 -15.93,5.941 -5,1.328 -9.81,2.032 -14.38,2.032 -8.12,0 -14.37,-1.563 -18.75,-4.692 -4.37,-3.121 -6.56,-7.609 -6.56,-13.43 0,-4.808 1.44,-8.441 4.37,-10.941 2.89,-2.418 8.44,-4.379 16.57,-5.9374 l 8.9,-1.8711 c 11.02,-2.1094 19.14,-5.7813 24.38,-11.1016 5.31,-5.3086 7.97,-12.418 7.97,-21.25 0,-10.6172 -3.56,-18.707 -10.63,-24.2187 -7.11,-5.4297 -17.5,-8.1211 -31.25,-8.1211 -5.23,0 -10.74,0.6211 -16.56,1.8711 -5.86,1.1406 -11.88,2.8593 -18.13,5.1601 v 15.1602 c 6.02,-3.3594 11.92,-5.9024 17.66,-7.6602 5.7,-1.6797 11.41,-2.5 17.03,-2.5 8.44,0 14.92,1.6406 19.53,5 4.57,3.3203 6.88,8.0508 6.88,14.2188 0,5.3906 -1.68,9.6093 -5,12.6601 -3.25,3 -8.6,5.2305 -16.1,6.711 l -9.06,1.8789 c -11.05,2.1914 -19.06,5.6211 -24.06,10.3125 -4.92,4.6874 -7.35,11.1684 -7.35,19.5274 0,9.691 3.36,17.269 10.16,22.82 6.88,5.621 16.29,8.43 28.28,8.43 5.08,0 10.31,-0.469 15.63,-1.399 5.31,-0.941 10.78,-2.351 16.4,-4.218 z"
               style="fill:#979797;fill-opacity:1;fill-rule:nonzero;stroke:none"
               id="path56" /><path
               d="m 1533.48,107.379 c -7.19,0 -12.93,-2.891 -17.19,-8.5899 -4.18,-5.6289 -6.25,-13.3594 -6.25,-23.1289 0,-9.8008 2.07,-17.5 6.25,-23.1211 4.14,-5.6289 9.88,-8.4375 17.19,-8.4375 7.18,0 12.85,2.8086 17.03,8.4375 4.14,5.6211 6.25,13.3203 6.25,23.1211 0,9.6914 -2.11,17.3906 -6.25,23.1289 -4.18,5.6989 -9.85,8.5899 -17.03,8.5899 z m 0,11.41 c 11.64,0 20.82,-3.867 27.5,-11.559 6.75,-7.6206 10.15,-18.1284 10.15,-31.5698 0,-13.4297 -3.4,-24.0196 -10.15,-31.711 -6.68,-7.6211 -15.86,-11.4101 -27.5,-11.4101 -11.8,0 -21.02,3.789 -27.66,11.4101 -6.68,7.6914 -10,18.2813 -10,31.711 0,13.4414 3.32,23.9492 10,31.5698 6.64,7.692 15.86,11.559 27.66,11.559 z"
               style="fill:#979797;fill-opacity:1;fill-rule:nonzero;stroke:none"
               id="path58" /><path
               d="m 1592.03,67.0703 v 49.6917 h 13.44 V 67.5391 c 0,-7.7383 1.48,-13.5586 4.53,-17.5 3.01,-3.8672 7.54,-5.7774 13.59,-5.7774 7.27,0 13.01,2.2578 17.19,6.8672 4.26,4.6914 6.41,11.0195 6.41,19.0703 v 46.5628 h 13.43 V 34.7305 h -13.43 v 12.6484 c -3.24,-5 -7.03,-8.75 -11.41,-11.25 -4.3,-2.3789 -9.3,-3.5898 -15,-3.5898 -9.49,0 -16.68,2.8906 -21.56,8.75 -4.81,5.9414 -7.19,14.5312 -7.19,25.7812 z"
               style="fill:#979797;fill-opacity:1;fill-rule:nonzero;stroke:none"
               id="path60" /><path
               d="m 1735.86,104.102 c -1.56,0.937 -3.24,1.597 -5,2.027 -1.8,0.391 -3.75,0.633 -5.94,0.633 -7.62,0 -13.44,-2.5 -17.5,-7.5003 -4.06,-4.9219 -6.09,-11.9922 -6.09,-21.25 V 34.7305 h -13.6 v 82.0315 h 13.6 v -12.813 c 2.81,5 6.44,8.672 10.94,11.09 4.57,2.5 10.15,3.75 16.71,3.75 0.94,0 1.92,-0.117 2.97,-0.309 1.14,-0.121 2.39,-0.281 3.75,-0.468 z"
               style="fill:#979797;fill-opacity:1;fill-rule:nonzero;stroke:none"
               id="path62" /><path
               d="M 1805.94,113.629 V 100.98 c -3.75,2.071 -7.58,3.629 -11.41,4.68 -3.87,1.141 -7.73,1.719 -11.56,1.719 -8.75,0 -15.59,-2.809 -20.47,-8.4298 -4.8,-5.5508 -7.19,-13.289 -7.19,-23.289 0,-10 2.39,-17.7696 7.19,-23.2813 4.88,-5.5391 11.72,-8.2773 20.47,-8.2773 3.83,0 7.69,0.5078 11.56,1.5586 3.83,1.0195 7.66,2.5781 11.41,4.6914 v -12.5 c -3.75,-1.8008 -7.66,-3.0821 -11.72,-3.9024 -3.99,-0.9375 -8.24,-1.4101 -12.81,-1.4101 -12.31,0 -22.11,3.832 -29.38,11.5625 -7.3,7.8086 -10.94,18.3203 -10.94,31.5586 0,13.3203 3.64,23.8281 10.94,31.5698 7.38,7.692 17.5,11.559 30.31,11.559 4.14,0 8.21,-0.469 12.19,-1.41 3.95,-0.859 7.74,-2.109 11.41,-3.75 z"
               style="fill:#979797;fill-opacity:1;fill-rule:nonzero;stroke:none"
               id="path64" /><path
               d="m 1899.53,79.1016 v -6.5625 h -62.03 c 0.62,-9.3008 3.44,-16.3672 8.44,-21.25 5,-4.8086 11.91,-7.1875 20.78,-7.1875 5.19,0 10.19,0.6289 15,1.8789 4.88,1.25 9.73,3.1211 14.53,5.6211 V 38.9492 c -4.8,-2.1094 -9.77,-3.6797 -14.84,-4.6875 -5.12,-1.1406 -10.28,-1.7226 -15.47,-1.7226 -13.05,0 -23.4,3.789 -31.1,11.4101 -7.61,7.6914 -11.4,18 -11.4,30.9297 0,13.4414 3.59,24.1016 10.78,32.0311 7.26,7.891 17.07,11.879 29.37,11.879 11.02,0 19.77,-3.59 26.25,-10.777 6.45,-7.114 9.69,-16.7229 9.69,-28.9104 z m -13.59,3.9101 c -0.12,7.3789 -2.19,13.2774 -6.25,17.6483 -3.99,4.461 -9.3,6.719 -15.94,6.719 -7.5,0 -13.55,-2.149 -18.13,-6.399 -4.49,-4.3003 -7.03,-10.2808 -7.65,-17.9683 z"
               style="fill:#979797;fill-opacity:1;fill-rule:nonzero;stroke:none"
               id="path66" /><path
               d="m 2255.23,671.41 h 122.5 c 76.45,-37.191 133.68,-73.601 171.72,-109.219 38.01,-35.632 57.03,-71.019 57.03,-106.101 0,-35.309 -19.02,-70.891 -57.03,-106.711 -38.04,-35.75 -95.27,-72.078 -171.72,-109.07 h -122.5 c 67.82,36.062 118.44,71.882 151.88,107.5 33.44,35.711 50.16,71.8 50.16,108.281 0,36.332 -16.72,72.23 -50.16,107.66 -33.44,35.512 -84.06,71.41 -151.88,107.66 z"
               style="fill:#d40000;fill-opacity:1;fill-rule:nonzero;stroke:none"
               id="path68" /><path
               d="m 2306.29,798.672 h 229.53 c 143.32,-59.184 250.63,-117.113 321.88,-173.75 71.25,-56.684 106.87,-112.934 106.87,-168.75 0,-56.172 -35.62,-112.652 -106.87,-169.531 -71.25,-56.871 -178.56,-114.762 -321.88,-173.75 h -229.53 c 127.19,57.418 222.07,114.449 284.69,171.25 62.57,56.757 93.9,114.097 93.9,172.031 0,57.887 -31.33,115.039 -93.9,171.406 -62.62,56.332 -157.5,113.363 -284.69,171.094 z"
               style="fill:#d40000;fill-opacity:1;fill-rule:nonzero;stroke:none"
               id="path70" /></g></g></g></g></g></svg>
