<?xml version="1.0" encoding="UTF-8" standalone="no"?>
<svg
   width="500"
   height="132.70555"
   viewBox="0 0 500 132.70555"
   fill="none"
   version="1.1"
   id="svg6"
   sodipodi:docname="Storj_logo.svg"
   inkscape:version="1.1.1 (3bf5ae0d25, 2021-09-20)"
   xmlns:inkscape="http://www.inkscape.org/namespaces/inkscape"
   xmlns:sodipodi="http://sodipodi.sourceforge.net/DTD/sodipodi-0.dtd"
   xmlns="http://www.w3.org/2000/svg"
   xmlns:svg="http://www.w3.org/2000/svg">
  <defs
     id="defs10" />
  <sodipodi:namedview
     id="namedview8"
     pagecolor="#ffffff"
     bordercolor="#666666"
     borderopacity="1.0"
     inkscape:pageshadow="2"
     inkscape:pageopacity="0.0"
     inkscape:pagecheckerboard="0"
     showgrid="false"
     fit-margin-top="0"
     fit-margin-left="0"
     fit-margin-right="0"
     fit-margin-bottom="0"
     inkscape:zoom="6.5308642"
     inkscape:cx="81.07656"
     inkscape:cy="21.436673"
     inkscape:window-width="1920"
     inkscape:window-height="1010"
     inkscape:window-x="-6"
     inkscape:window-y="-6"
     inkscape:window-maximized="1"
     inkscape:current-layer="svg6" />
  <g
     id="g829"
     transform="matrix(3.0870677,0,0,3.0870677,-1.0717424e-5,2.237482e-4)">
    <path
       d="m 19.0985,42.9875 c -1.9607,0 -3.5564,-1.5628 -3.6094,-3.5107 L 5.3292,33.6112 c -0.52836,0.2862 -1.09834,0.427 -1.66278,0.4351 l -0.05583,3e-4 C 2.36416,34.0452 1.1524,33.3977 0.484356,32.2406 -0.495995,30.5426 0.0595741,28.3793 1.72001,27.3595 V 15.628 C 0.0595741,14.6082 -0.495995,12.4448 0.484356,10.7468 1.14243,9.60702 2.32811,8.96173 3.55481,8.94135 L 3.61059,8.94086 C 4.19322,8.94019 4.78342,9.08068 5.3292,9.37625 L 15.4891,3.5106 C 15.5416,1.58252 17.1055,0.0317574 19.0388,4.11987e-4 l 0.0597,-4.844662e-4 c 1.9607,0 3.5564,1.5627624792 3.6094,3.5106424792 L 32.8676,9.3764 C 33.396,9.09016 33.9661,8.94932 34.5307,8.94123 l 0.0558,-3.7e-4 c 1.2464,0.00143 2.4582,0.64889 3.1262,1.80594 0.9804,1.698 0.4248,3.8614 -1.2356,4.8812 v 11.7315 c 1.6604,1.0198 2.216,3.1831 1.2356,4.8811 -0.6581,1.1399 -1.8437,1.7851 -3.0704,1.8055 l -0.0558,5e-4 c -0.5826,7e-4 -1.1728,-0.1398 -1.7186,-0.4353 l -10.16,5.8656 c -0.0524,1.9281 -1.6164,3.4788 -3.5496,3.5102 z m 0,-37.65741 0.0468,-6.3e-4 c 0.0039,-10e-5 0.0078,-2.2e-4 0.0117,-3.5e-4 l -0.0117,3.5e-4 c 0.0156,-4.2e-4 0.0312,-0.00105 0.0467,-0.00188 l -0.035,0.00153 c 0.0171,-5.7e-4 0.0341,-0.00139 0.051,-0.00245 l -0.016,9.2e-4 c 0.0159,-8.5e-4 0.0317,-0.00192 0.0474,-0.00319 L 19.208,5.32666 c 0.0155,-9.8e-4 0.0309,-0.00216 0.0463,-0.00354 l -0.0149,0.00127 c 0.014,-0.00114 0.0279,-0.00244 0.0418,-0.0039 L 19.2543,5.32312 C 19.2713,5.3216 19.2882,5.31983 19.305,5.31782 L 19.2812,5.32049 C 19.2968,5.31883 19.3125,5.31696 19.3281,5.31488 L 19.305,5.31782 c 0.0143,-0.00171 0.0285,-0.00359 0.0426,-0.00564 l -0.0195,0.0027 C 19.3457,5.31253 19.3632,5.30992 19.3807,5.30703 L 19.3476,5.31218 C 19.3619,5.3101 19.3762,5.30784 19.3904,5.30541 l -0.0097,0.00162 c 0.0148,-0.00245 0.0296,-0.00509 0.0444,-0.00792 l -0.0347,0.0063 C 19.4061,5.30274 19.4216,5.29985 19.4372,5.29675 L 19.4251,5.29911 C 19.444,5.29546 19.4629,5.2915 19.4817,5.28724 l -0.0445,0.00951 c 0.0357,-0.00714 0.0711,-0.01539 0.106,-0.02471 0.0088,-0.00231 0.0175,-0.00473 0.0263,-0.00722 l -0.0263,0.00722 c 0.0144,-0.00384 0.0287,-0.00788 0.043,-0.01208 l -0.0167,0.00486 c 0.0128,-0.00363 0.0255,-0.0074 0.0382,-0.01133 l -0.0215,0.00647 c 0.7121,-0.21022 1.2317,-0.86906 1.2317,-1.64928 0,-0.9496 -0.7698,-1.71941 -1.7194,-1.71941 -0.9496,0 -1.7194,0.76981 -1.7194,1.71941 0,0.77172 0.5084,1.4247 1.2086,1.64225 0.0087,0.00277 0.0176,0.00542 0.0264,0.00801 L 18.5877,5.25293 C 18.6008,5.257 18.614,5.26091 18.6272,5.26468 L 18.6141,5.26094 c 0.0141,0.00412 0.0282,0.00806 0.0424,0.01183 L 18.6272,5.26468 c 0.0152,0.00433 0.0305,0.00846 0.0459,0.01238 L 18.6565,5.27277 c 0.0338,0.00893 0.0679,0.01686 0.1023,0.02375 0.0055,0.0011 0.0109,0.00217 0.0164,0.00322 L 18.7588,5.29652 c 0.016,0.00321 0.0321,0.00618 0.0482,0.00894 L 18.7752,5.29974 c 0.0133,0.00251 0.0265,0.00488 0.0399,0.00709 L 18.807,5.30546 c 0.0144,0.00245 0.0289,0.00474 0.0434,0.00683 L 18.8151,5.30683 c 0.0177,0.00294 0.0355,0.00561 0.0534,0.008 L 18.8504,5.31229 c 0.0138,0.002 0.0277,0.00384 0.0416,0.0055 L 18.8685,5.31483 c 0.0158,0.00211 0.0316,0.004 0.0475,0.00568 L 18.892,5.31779 c 0.0169,0.00202 0.0338,0.0038 0.0507,0.00532 L 18.916,5.32051 c 0.0138,0.00146 0.0277,0.00276 0.0417,0.00389 l -0.015,-0.00129 c 0.0154,0.00139 0.0309,0.00257 0.0464,0.00354 L 18.9577,5.3244 c 0.0157,0.00127 0.0315,0.00234 0.0473,0.00319 L 18.9891,5.32665 C 19.006,5.32772 19.023,5.32853 19.04,5.32911 L 19.005,5.32759 c 0.031,0.00166 0.0622,0.0025 0.0935,0.0025 z m 5.5894,11.80041 6.3964,-3.6929 c -0.0046,-0.018 -0.009,-0.036 -0.0133,-0.054 -0.0013,-0.0055 -0.0026,-0.0111 -0.0039,-0.0168 -0.0029,-0.0124 -0.0057,-0.0247 -0.0084,-0.037 -0.002,-0.009 -0.004,-0.0181 -0.0059,-0.0271 -0.0022,-0.0106 -0.0044,-0.0212 -0.0066,-0.0317 -0.0022,-0.0112 -0.0045,-0.0224 -0.0066,-0.0336 -0.0062,-0.032 -0.012,-0.0641 -0.0173,-0.0962 -0.0013,-0.0082 -0.0026,-0.0164 -0.0039,-0.0246 -0.0124,-0.0786 -0.0222,-0.1572 -0.0293,-0.2359 -8e-4,-0.0089 -0.0016,-0.0177 -0.0023,-0.0265 -0.0028,-0.0333 -0.0051,-0.0667 -0.007,-0.1 -10e-5,-0.0028 -3e-4,-0.0057 -4e-4,-0.0085 l 4e-4,0.0085 c -9e-4,-0.0172 -0.0017,-0.0343 -0.0024,-0.0515 -5e-4,-0.0104 -8e-4,-0.0208 -0.0012,-0.0312 -3e-4,-0.0115 -7e-4,-0.0229 -9e-4,-0.0343 -2e-4,-0.0087 -4e-4,-0.0174 -5e-4,-0.0261 -10e-5,-0.0087 -2e-4,-0.0173 -3e-4,-0.026 -10e-5,-0.0079 -10e-5,-0.0158 -10e-5,-0.0237 l 10e-5,0.0237 c -0.0016,-0.1923 0.0122,-0.384 0.041,-0.573 0.0047,-0.0314 0.0099,-0.0628 0.0155,-0.0941 0.0025,-0.0137 0.005,-0.0273 0.0076,-0.0409 0.0055,-0.0288 0.0113,-0.0577 0.0176,-0.0864 0.0022,-0.0104 0.0045,-0.0207 0.0068,-0.0311 0.0017,-0.0075 0.0034,-0.0149 0.0051,-0.0223 0.0016,-0.007 0.0033,-0.0139 0.0049,-0.0209 0.0032,-0.0134 0.0064,-0.0266 0.0097,-0.0398 0.0099,-0.0394 0.0204,-0.0786 0.0316,-0.1177 0.008,-0.0281 0.0164,-0.056 0.0251,-0.0839 0.0029,-0.0095 0.0059,-0.0189 0.0089,-0.0282 0.0025,-0.0077 0.005,-0.0155 0.0075,-0.0232 0.003,-0.0089 0.006,-0.0179 0.009,-0.0268 0.0041,-0.0122 0.0083,-0.0243 0.0125,-0.0364 0.002,-0.006 0.0041,-0.0119 0.0062,-0.0178 0.0042,-0.0119 0.0085,-0.0236 0.0128,-0.0354 9e-4,-0.0025 0.0018,-0.005 0.0028,-0.0076 0.0056,-0.0152 0.0113,-0.0302 0.017,-0.0452 0.0136,-0.0353 0.0277,-0.0704 0.0424,-0.1053 0.0117,-0.0278 0.0238,-0.0555 0.0362,-0.0831 0.0042,-0.0093 0.0085,-0.0187 0.0128,-0.028 0.0028,-0.006 0.0055,-0.012 0.0083,-0.0179 0.0059,-0.0126 0.0118,-0.0252 0.0179,-0.0377 0.0042,-0.0088 0.0084,-0.0175 0.0127,-0.0261 0.0039,-0.008 0.0078,-0.0159 0.0118,-0.0238 0.0051,-0.0103 0.0103,-0.0206 0.0156,-0.0308 0.0032,-0.0063 0.0066,-0.0128 0.0099,-0.0192 0.0055,-0.0106 0.0111,-0.0211 0.0166,-0.0316 0.0032,-0.0059 0.0063,-0.0118 0.0095,-0.0177 0.0157,-0.029 0.0318,-0.0579 0.0484,-0.0866 L 22.2261,5.41634 C 22.2242,5.4195 22.2224,5.42266 22.2206,5.42581 22.2035,5.45508 22.1861,5.48404 22.1683,5.51274 22.1652,5.51762 22.1622,5.52249 22.1591,5.52736 22.1524,5.53816 22.1455,5.54896 22.1386,5.55972 22.1341,5.56671 22.1296,5.57361 22.1252,5.58049 22.1196,5.58907 22.1139,5.59773 22.1081,5.60636 22.1029,5.6142 22.0977,5.62196 22.0925,5.6297 22.0891,5.63476 22.0856,5.63984 22.0822,5.64491 22.0262,5.72678 21.967,5.80622 21.9047,5.88304 21.8866,5.90546 21.8681,5.92769 21.8494,5.94969 21.832,5.97013 21.8144,5.99038 21.7965,6.01043 21.788,6.01995 21.7795,6.02941 21.771,6.03882 21.7662,6.04406 21.7614,6.04932 21.7566,6.05457 21.7516,6.05996 21.7467,6.06531 21.7417,6.07065 21.7211,6.0928 21.7001,6.11471 21.6789,6.13635 21.6124,6.20431 21.5432,6.2697 21.4715,6.3323 L 21.465,6.33788 c -0.0231,0.02007 -0.0464,0.03985 -0.07,0.05933 -0.0039,0.00316 -0.0076,0.00626 -0.0114,0.00935 -0.0088,0.0072 -0.0177,0.01442 -0.0267,0.0216 -0.008,0.00646 -0.0161,0.01288 -0.0242,0.01925 -0.0044,0.0035 -0.0089,0.00699 -0.0133,0.01046 -0.0292,0.02277 -0.0586,0.04509 -0.0885,0.06696 -0.0018,0.00135 -0.0035,0.00261 -0.0053,0.00387 -0.009,0.00658 -0.0181,0.01317 -0.0272,0.01972 -0.0218,0.01559 -0.0437,0.03093 -0.0658,0.04602 L 21.1233,6.60072 C 21.0614,6.64276 20.998,6.68293 20.9334,6.72114 20.9271,6.72486 20.9208,6.72857 20.9145,6.73225 20.8882,6.74757 20.8617,6.76257 20.835,6.77724 20.8242,6.78316 20.8135,6.78899 20.8027,6.79477 20.7964,6.79818 20.79,6.80157 20.7836,6.80494 20.7763,6.80883 20.7689,6.81269 20.7615,6.81654 20.7489,6.8231 20.7362,6.82958 20.7235,6.83599 20.7184,6.83857 20.7133,6.84116 20.7081,6.84374 20.6789,6.8583 20.6495,6.87244 20.62,6.8862 20.6132,6.88936 20.6063,6.89252 20.5995,6.89566 20.5691,6.90955 20.5386,6.92299 20.5079,6.93602 20.4777,6.94886 20.4472,6.96131 20.4165,6.97335 20.3883,6.98439 20.36,6.99509 20.3315,7.00545 20.3247,7.00793 20.3179,7.01038 20.3111,7.0128 20.2979,7.01751 20.2845,7.02217 20.2712,7.02675 20.2679,7.02789 20.2647,7.02899 20.2614,7.03009 20.2468,7.03505 20.2321,7.03996 20.2173,7.04476 20.2118,7.04657 20.2062,7.04836 20.2007,7.05014 20.1858,7.05489 20.1709,7.05956 20.156,7.06413 20.1526,7.06517 20.1492,7.0662 20.1458,7.06722 20.1334,7.07096 20.121,7.07464 20.1086,7.07826 c -0.0107,0.0031 -0.0213,0.00615 -0.032,0.00915 -0.0027,7.6e-4 -0.0054,0.0015 -0.0081,0.00225 l 10e-5,6.95374 c 1.9755,0.2442 3.672,1.4212 4.6193,3.0871 z M 13.838,17.2771 c 0.8839,-1.6599 2.4822,-2.8356 4.3393,-3.178 V 7.10285 C 18.1565,7.09738 18.1358,7.09172 18.1151,7.08589 18.106,7.08331 18.0969,7.0807 18.0878,7.07806 18.0181,7.05778 17.9492,7.03543 17.8813,7.0111 17.8752,7.00895 17.8692,7.00677 17.8632,7.00458 17.8499,6.99973 17.8366,6.99482 17.8234,6.98984 17.8188,6.98808 17.8141,6.9863 17.8094,6.98452 17.7968,6.9797 17.7843,6.97483 17.7718,6.96989 17.7654,6.96736 17.759,6.96481 17.7526,6.96224 17.7383,6.95649 17.7241,6.95065 17.7098,6.94473 17.7059,6.94307 17.7019,6.9414 17.6979,6.93972 17.6662,6.92637 17.6348,6.91261 17.6036,6.89841 17.5951,6.89454 17.5867,6.89065 17.5783,6.88673 17.5532,6.87509 17.5283,6.86316 17.5035,6.85094 17.4881,6.84335 17.4728,6.83566 17.4576,6.82787 17.4485,6.82325 17.4394,6.81854 17.4303,6.8138 17.4265,6.8118 17.4228,6.80983 17.419,6.80785 17.4047,6.80031 17.3903,6.79264 17.3761,6.78489 17.371,6.78211 17.3658,6.7793 17.3607,6.77649 17.352,6.77168 17.3433,6.76686 17.3346,6.762 17.3071,6.74654 17.2798,6.73075 17.2527,6.71461 17.2468,6.7111 17.241,6.7076 17.2351,6.70408 17.2239,6.69729 17.2127,6.69042 17.2015,6.68349 17.1945,6.67918 17.1875,6.67484 17.1806,6.67047 17.1737,6.66613 17.1667,6.66174 17.1598,6.65732 17.1518,6.65221 17.1438,6.64711 17.1359,6.64199 17.1106,6.62551 17.0853,6.6087 17.0603,6.59157 17.0516,6.58557 17.0428,6.57952 17.0341,6.57344 16.9895,6.54227 16.9456,6.51013 16.9025,6.47704 16.8941,6.47066 16.8858,6.46422 16.8775,6.45773 L 16.8708,6.45247 C 16.8358,6.42499 16.8013,6.39687 16.7674,6.36813 16.7589,6.36103 16.7506,6.35391 16.7423,6.34676 16.7337,6.3393 16.7251,6.33181 16.7165,6.32429 16.7106,6.31915 16.7047,6.31394 16.6989,6.30872 16.6941,6.30445 16.6894,6.30022 16.6847,6.29599 16.6166,6.23476 16.5508,6.17096 16.4876,6.10476 16.4818,6.09871 16.476,6.0926 16.4703,6.08647 16.4442,6.05883 16.4186,6.03078 16.3934,6.00234 L 16.3918,6.00054 C 16.3476,5.95043 16.3047,5.89907 16.2632,5.84653 16.2569,5.83866 16.2507,5.83073 16.2445,5.82278 16.2388,5.8154 16.2332,5.80802 16.2275,5.80062 16.2215,5.79284 16.2156,5.78503 16.2097,5.77719 16.2054,5.77135 16.2011,5.76556 16.1967,5.75975 16.189,5.74941 16.1813,5.73894 16.1737,5.72842 16.1691,5.72199 16.1645,5.71558 16.1599,5.70915 16.1539,5.70081 16.1479,5.69246 16.1421,5.68408 16.137,5.67687 16.132,5.66958 16.1269,5.66227 16.1202,5.65266 16.1137,5.64308 16.1071,5.63346 16.1026,5.62674 16.0981,5.61998 16.0936,5.6132 16.0548,5.5553 16.0178,5.49623 15.9825,5.43605 L 15.9711,5.41634 6.73887,10.7465 c 0.01951,0.0339 0.03808,0.0674 0.0561,0.1011 0.0062,0.0116 0.01232,0.0232 0.01839,0.0349 0.00455,0.0087 0.00905,0.0175 0.01351,0.0262 0.00263,0.0052 0.00524,0.0103 0.00784,0.0155 0.01601,0.0317 0.03154,0.0637 0.0466,0.096 0.00279,0.0059 0.00554,0.0118 0.00828,0.0178 0.0053,0.0115 0.01054,0.023 0.01572,0.0346 0.00243,0.0054 0.00484,0.0108 0.00724,0.0162 0.00531,0.012 0.01055,0.0241 0.01574,0.0361 0.02168,0.0506 0.04219,0.1015 0.06153,0.1528 0.01851,0.0492 0.03596,0.0988 0.05232,0.1487 0.00202,0.0061 0.00404,0.0123 0.00604,0.0186 0.02436,0.0756 0.0462,0.152 0.06553,0.2291 0.0022,0.0088 0.00437,0.0175 0.0065,0.0263 0.00728,0.03 0.01417,0.06 0.02068,0.0902 0.00159,0.0073 0.00314,0.0146 0.00466,0.0218 0.00294,0.0141 0.00581,0.0282 0.00859,0.0423 0.00129,0.0065 0.00255,0.013 0.0038,0.0195 0.00997,0.052 0.0188,0.1042 0.02648,0.1567 0.00273,0.0186 0.00532,0.0373 0.00777,0.056 0.00326,0.0249 0.00625,0.0499 0.00899,0.0749 0.00575,0.0524 0.01035,0.105 0.01381,0.1577 6.8e-4,0.0105 0.00132,0.0209 0.00191,0.0313 4.6e-4,0.0081 8.9e-4,0.0161 0.00129,0.0242 0.0017,0.0339 0.00293,0.0679 0.00367,0.102 7.8e-4,0.0361 0.00103,0.0721 7.3e-4,0.1082 -7e-5,0.0086 -1.7e-4,0.0173 -3.1e-4,0.026 -10e-5,0.0065 -2.1e-4,0.0128 -3.4e-4,0.0192 -7.2e-4,0.0345 -0.00194,0.0692 -0.00366,0.1038 -6.1e-4,0.0123 -0.00128,0.0247 -0.00202,0.037 -5.1e-4,0.0084 -0.00104,0.0168 -0.0016,0.0252 -4.6e-4,0.0068 -9.3e-4,0.0136 -0.00143,0.0204 -0.00289,0.0398 -0.00645,0.0796 -0.01068,0.1194 -7e-5,6e-4 -1.4e-4,0.0012 -2e-4,0.0018 l 2e-4,-0.0018 C 7.19383,13.0181 7.18227,13.0999 7.16784,13.1816 7.16643,13.1895 7.165,13.1974 7.16355,13.2053 7.1617,13.2154 7.15981,13.2254 7.15787,13.2355 7.1521,13.2654 7.14594,13.2954 7.13938,13.3252 7.13393,13.3501 7.12819,13.375 7.12218,13.3998 Z m 21.6074,-3.2358 c 0.8224,-0.4748 1.1042,-1.5264 0.6294,-2.3488 -0.4748,-0.8224 -1.5264,-1.1041 -2.3488,-0.6293 -0.6482,0.3742 -0.9606,1.1069 -0.8312,1.8031 0.0011,0.0068 0.0025,0.0136 0.0038,0.0204 l -0.0038,-0.0204 c 0.0024,0.0129 0.0049,0.0258 0.0076,0.0387 l -0.0038,-0.0183 c 0.0033,0.0165 0.0068,0.033 0.0106,0.0495 L 32.9024,12.905 c 0.0037,0.0173 0.0076,0.0346 0.0118,0.0519 l -0.005,-0.0207 c 0.0031,0.0136 0.0064,0.0271 0.0099,0.0407 l -0.0049,-0.02 c 0.0035,0.0148 0.0073,0.0295 0.0113,0.0442 l -0.0064,-0.0242 c 0.0041,0.0161 0.0085,0.0321 0.0131,0.0481 l -0.0067,-0.0239 c 0.0037,0.0137 0.0076,0.0274 0.0117,0.0411 l -0.005,-0.0172 c 0.0145,0.0506 0.0314,0.1007 0.0507,0.1502 0.0027,0.007 0.0055,0.0139 0.0083,0.0209 l -0.0083,-0.0209 c 0.0061,0.0157 0.0125,0.0313 0.0191,0.0468 l -0.0108,-0.0259 c 0.0058,0.0142 0.0118,0.0284 0.0179,0.0426 L 33.002,13.222 c 0.0055,0.0131 0.0112,0.0261 0.0171,0.0391 l -0.01,-0.0224 c 0.0074,0.0168 0.015,0.0335 0.0229,0.0502 l -0.0129,-0.0278 c 0.0063,0.0139 0.0128,0.0277 0.0195,0.0415 L 33.032,13.2889 c 0.0066,0.0137 0.0133,0.0274 0.0202,0.041 l -0.0136,-0.0273 c 0.0082,0.0168 0.0167,0.0336 0.0254,0.0502 l -0.0118,-0.0229 c 0.0099,0.0196 0.0203,0.039 0.031,0.0583 l 0.0135,0.0237 c 0.0235,0.0408 0.0485,0.0803 0.0749,0.1186 0.0038,0.0055 0.0076,0.0109 0.0114,0.0162 l -0.0114,-0.0162 c 0.0185,0.0267 0.0376,0.0528 0.0573,0.0782 0.0035,0.0045 0.0069,0.0089 0.0104,0.0132 l -0.0104,-0.0132 c 0.0081,0.0103 0.0162,0.0206 0.0245,0.0307 l -0.0141,-0.0175 c 0.0111,0.0141 0.0225,0.0279 0.034,0.0415 l -0.0199,-0.024 c 0.0093,0.0115 0.0188,0.0228 0.0284,0.034 l -0.0085,-0.01 c 0.0086,0.0103 0.0173,0.0204 0.0262,0.0304 l -0.0177,-0.0204 c 0.023,0.0269 0.0468,0.053 0.0713,0.0782 0.0177,0.0182 0.0358,0.036 0.0542,0.0533 0.017,0.016 0.0343,0.0317 0.0519,0.047 0.0096,0.0082 0.0191,0.0163 0.0287,0.0242 l -0.0287,-0.0242 c 0.0114,0.0099 0.0228,0.0195 0.0344,0.029 l -0.0057,-0.0048 c 0.5378,0.4459 1.3171,0.5349 1.9575,0.1652 z M 4.80324,13.7921 4.8171,13.7786 c 0.01755,-0.0172 0.03475,-0.0349 0.0516,-0.053 0.00236,-0.0026 0.00463,-0.005 0.00689,-0.0075 L 4.8687,13.7256 c 0.01057,-0.0114 0.021,-0.0229 0.03129,-0.0346 l -0.0244,0.0271 C 4.88681,13.7059 4.89789,13.6935 4.9088,13.681 l -0.00881,0.01 C 4.91068,13.6789 4.92121,13.6666 4.93158,13.6542 L 4.9088,13.681 c 0.00934,-0.0108 0.01855,-0.0217 0.02765,-0.0327 l -0.00487,0.0059 c 0.00877,-0.0106 0.01743,-0.0212 0.02597,-0.032 l -0.0211,0.0261 C 4.94845,13.6338 4.96024,13.619 4.97182,13.604 L 4.95755,13.6222 C 4.96725,13.61 4.97681,13.5976 4.98621,13.585 l -0.01439,0.019 c 0.0087,-0.0113 0.01727,-0.0227 0.02573,-0.0343 L 4.98621,13.585 c 0.00912,-0.0122 0.0181,-0.0245 0.02692,-0.0369 l -0.01558,0.0216 c 0.00959,-0.0131 0.01902,-0.0263 0.02828,-0.0398 l -0.0127,0.0182 c 0.03096,-0.0437 0.0601,-0.0891 0.08728,-0.1362 0.00454,-0.0078 0.00901,-0.0157 0.01342,-0.0236 l -0.01342,0.0236 c 0.02021,-0.035 0.03904,-0.0704 0.05652,-0.1062 0.00428,-0.0087 0.00848,-0.0175 0.0126,-0.0263 l -0.0126,0.0263 C 5.1619,13.2956 5.16675,13.2854 5.1715,13.2752 L 5.16953,13.2794 C 5.17628,13.265 5.18282,13.2505 5.18914,13.2359 5.19101,13.2317 5.19286,13.2274 5.19469,13.2231 l -0.00555,0.0128 c 0.02769,-0.0637 0.0513,-0.1285 0.07087,-0.1941 0.00121,-0.0041 0.0024,-0.0081 0.00357,-0.0122 l -0.00357,0.0122 c 0.00442,-0.0149 0.00864,-0.0297 0.01265,-0.0447 l -0.00908,0.0325 c 0.0046,-0.0159 0.00896,-0.0318 0.01308,-0.0477 l -0.004,0.0152 C 5.27647,12.983 5.2801,12.9688 5.28354,12.9545 l -0.00688,0.0274 c 0.00828,-0.032 0.01559,-0.0641 0.02196,-0.0963 9.6e-4,-0.0045 0.00182,-0.0089 0.00267,-0.0134 L 5.29862,12.8856 C 5.43737,12.1836 5.12527,11.4409 4.47106,11.0632 3.64868,10.5884 2.59711,10.8701 2.12231,11.6925 c -0.4748,0.8224 -0.19303,1.874 0.62935,2.3488 0.67878,0.3919 1.51372,0.2683 2.05158,-0.2492 z M 6.12888,27.8456 10.2249,25.4807 C 9.52845,24.6232 9.11106,23.53 9.11106,22.3392 c 0,-1.792 0.94524,-3.3631 2.36444,-4.2421 L 6.21203,15.0582 C 6.1907,15.0804 6.16912,15.1023 6.14729,15.1238 6.10954,15.1611 6.07109,15.1974 6.03196,15.2327 5.87312,15.3762 5.70305,15.504 5.52414,15.6155 5.45446,15.659 5.38346,15.6999 5.31126,15.7383 l -0.00222,0.0012 c -0.0328,0.0174 -0.06584,0.0344 -0.09912,0.0507 -0.04787,0.0236 -0.09617,0.0461 -0.1449,0.0675 -0.01638,0.0072 -0.03279,0.0142 -0.04925,0.0212 -0.0373,0.0157 -0.07488,0.0308 -0.1127,0.0452 -0.02428,0.0093 -0.04857,0.0183 -0.07295,0.027 -0.04568,0.0164 -0.09169,0.0318 -0.13797,0.0463 -0.02825,0.0089 -0.05658,0.0174 -0.08501,0.0255 -0.05,0.0144 -0.10032,0.0276 -0.1509,0.0398 C 4.42617,16.07 4.39597,16.0768 4.36568,16.0833 4.33669,16.0895 4.30759,16.0954 4.27843,16.1009 4.27251,16.102 4.26668,16.1031 4.26084,16.1041 4.23885,16.1082 4.21674,16.112 4.1946,16.1157 4.16531,16.1205 4.13602,16.1249 4.10668,16.129 c -0.00315,4e-4 -0.00624,9e-4 -0.00934,0.0013 -0.00609,8e-4 -0.01226,0.0016 -0.01843,0.0024 -0.0343,0.0046 -0.06864,0.0086 -0.10305,0.0121 -0.03322,0.0034 -0.06642,0.0063 -0.09966,0.0088 -0.00774,6e-4 -0.01548,0.0011 -0.02322,0.0016 -0.03375,0.0023 -0.06756,0.0042 -0.10142,0.0055 -0.00688,3e-4 -0.01374,5e-4 -0.0206,8e-4 -0.02101,7e-4 -0.04202,0.0012 -0.06304,0.0016 l -0.05579,5e-4 h -7.8e-4 v 10.6603 h 7.8e-4 c 0.11165,1e-4 0.22303,0.0055 0.33375,0.0159 0.01979,0.0018 0.03953,0.0038 0.05925,0.006 0.04514,0.005 0.09021,0.0108 0.13514,0.0175 0.03137,0.0047 0.06264,0.0098 0.09383,0.0152 0.04174,0.0074 0.08331,0.0154 0.12473,0.0242 0.03325,0.007 0.06633,0.0145 0.09929,0.0225 l 0.05965,0.0149 c 0.11159,0.029 0.2218,0.0632 0.33021,0.1027 0.02512,0.0091 0.05005,0.0185 0.07488,0.0282 0.05177,0.0201 0.10266,0.0413 0.15307,0.0636 0.0086,0.0038 0.01728,0.0077 0.02594,0.0116 0.02077,0.0094 0.04137,0.019 0.06188,0.0287 0.03891,0.0185 0.07751,0.0377 0.11579,0.0576 0.10686,0.0555 0.21115,0.1165 0.31244,0.1828 0.02558,0.0167 0.05097,0.0338 0.07615,0.0512 0.01029,0.0072 0.02057,0.0143 0.03081,0.0216 0.03181,0.0225 0.06326,0.0455 0.09436,0.0691 0.11699,0.0886 0.2291,0.1848 0.33558,0.2884 z m 25.96762,-0.0268 0.0192,-0.0186 c 0.0625,-0.0586 0.1268,-0.1147 0.1928,-0.1683 0.1167,-0.0947 0.2386,-0.1815 0.3649,-0.2602 l 0.0019,-0.0012 c 0.0275,-0.0171 0.0553,-0.0339 0.0832,-0.0503 0.0066,-0.0038 0.0132,-0.0076 0.0198,-0.0115 l -0.0198,0.0115 c 0.054,-0.0315 0.1087,-0.0617 0.1641,-0.0904 0.0791,-0.0409 0.1595,-0.0788 0.2411,-0.1137 0.1224,-0.0523 0.2475,-0.0979 0.3747,-0.1364 0.0088,-0.0026 0.0176,-0.0053 0.0263,-0.0078 0.0284,-0.0084 0.057,-0.0164 0.0856,-0.0241 0.0468,-0.0126 0.0939,-0.0242 0.1411,-0.0349 0.0111,-0.0025 0.0223,-0.0049 0.0334,-0.0073 0.0317,-0.0069 0.0636,-0.0133 0.0955,-0.0193 0.0028,-5e-4 0.0056,-0.0011 0.0084,-0.0016 0.016,-0.0029 0.032,-0.0058 0.048,-0.0085 l -0.048,0.0085 c 0.0245,-0.0045 0.049,-0.0088 0.0736,-0.0128 0.0324,-0.0054 0.0648,-0.0102 0.0974,-0.0147 0.0346,-0.0047 0.0692,-0.0089 0.104,-0.0127 0.0059,-6e-4 0.012,-0.0012 0.018,-0.0019 0.0325,-0.0033 0.065,-0.0062 0.0976,-0.0086 0.0082,-6e-4 0.0165,-0.0012 0.0247,-0.0018 0.0324,-0.0022 0.0647,-0.0039 0.0971,-0.0053 0.0084,-3e-4 0.0168,-6e-4 0.0252,-9e-4 0.0038,-10e-5 0.0075,-2e-4 0.0112,-4e-4 0.036,-0.0011 0.0721,-0.0017 0.1081,-0.0017 l -0.0077,2e-4 0.0071,-2e-4 h 6e-4 V 16.1636 h -6e-4 C 34.5185,16.1635 34.4521,16.1616 34.3859,16.1578 34.3583,16.1563 34.3307,16.1544 34.3032,16.1522 34.2661,16.1493 34.229,16.1458 34.192,16.1417 34.1534,16.1374 34.1148,16.1325 34.0764,16.127 34.0503,16.1233 34.0243,16.1193 33.9984,16.115 33.9671,16.1098 33.9358,16.1042 33.9047,16.0982 33.8748,16.0925 33.8451,16.0863 33.8154,16.0799 33.7303,16.0613 33.6459,16.0396 33.5624,16.0149 33.4654,15.9863 33.37,15.9537 33.2761,15.9172 33.2423,15.9041 33.2086,15.8904 33.1752,15.8763 33.1646,15.8718 33.1539,15.8672 33.1433,15.8626 33.0987,15.8432 33.0545,15.8229 33.0108,15.8018 32.988,15.7907 32.9652,15.7795 32.9426,15.7679 32.8722,15.732 32.8029,15.6938 32.7348,15.6533 32.7141,15.6409 32.6936,15.6284 32.6731,15.6156 L 32.6215,15.5829 C 32.6043,15.5717 32.5871,15.5604 32.5701,15.549 32.3707,15.4151 32.1836,15.2605 32.012,15.0859 l -6.5161,3.7619 c 2.0747,0.2606 3.6846,2.0147 3.7193,4.1518 l 5e-4,0.0704 c 0,0.9708 -0.3251,1.8658 -0.8724,2.5818 z M 18.8761,25.4341 h 6.0841 c 1.3057,0 2.3642,-1.0584 2.3642,-2.3641 0,-1.3057 -1.0585,-2.3642 -2.3642,-2.3642 l -1.3026,-10e-5 -0.0699,-0.8698 c -0.1787,-2.2218 -2.0407,-3.9482 -4.2845,-3.9482 -1.7924,0 -3.3774,1.1071 -4.012,2.7514 l -0.2335,0.6052 h -0.9604 c -1.7092,0 -3.0949,1.3856 -3.0949,3.0949 0,1.7093 1.3857,3.0949 3.0949,3.0949 h 4.6226 c 0.021,0 0.0416,-2e-4 0.0617,-6e-4 l 0.0203,-4e-4 0.0472,9e-4 z m -2.905,12.137 0.0102,-0.0177 c 0.015,-0.0256 0.0303,-0.0509 0.0459,-0.0761 0.0048,-0.0078 0.0097,-0.0155 0.0145,-0.0232 0.0044,-0.0069 0.0087,-0.0138 0.0131,-0.0207 0.0054,-0.0084 0.0108,-0.0167 0.0162,-0.025 0.0465,-0.0713 0.0954,-0.1409 0.1466,-0.2086 0.0252,-0.0333 0.0509,-0.066 0.0771,-0.0983 0.0424,-0.0522 0.0862,-0.1032 0.1314,-0.1528 0.0042,-0.0046 0.0083,-0.0092 0.0125,-0.0137 0.0083,-0.0091 0.0167,-0.0181 0.0252,-0.0272 0.0045,-0.0048 0.009,-0.0095 0.0134,-0.0142 0.0087,-0.0091 0.0174,-0.0183 0.0262,-0.0274 0.0773,-0.0799 0.1583,-0.1562 0.2427,-0.2287 0.0379,-0.0326 0.0765,-0.0644 0.1158,-0.0955 0.0051,-0.0041 0.0104,-0.0082 0.0157,-0.0123 0.0093,-0.0073 0.0187,-0.0146 0.0281,-0.0218 0.0084,-0.0064 0.0168,-0.0128 0.0253,-0.0192 0.0056,-0.0041 0.0112,-0.0083 0.0168,-0.0125 0.0248,-0.0185 0.0499,-0.0366 0.0752,-0.0544 0.0069,-0.0048 0.0138,-0.0096 0.0207,-0.0144 0.0242,-0.0168 0.0487,-0.0334 0.0734,-0.0496 0.0107,-0.0071 0.0215,-0.0141 0.0324,-0.021 0.0306,-0.0197 0.0614,-0.0389 0.0926,-0.0576 0.0069,-0.0042 0.0139,-0.0083 0.0209,-0.0124 0.0257,-0.0153 0.0516,-0.0301 0.0777,-0.0447 0.0071,-0.004 0.0142,-0.0079 0.0214,-0.0119 0.0089,-0.0049 0.0178,-0.0097 0.0267,-0.0145 0.028,-0.0151 0.0562,-0.0298 0.0848,-0.0442 0.0044,-0.0023 0.0089,-0.0045 0.0134,-0.0068 0.0109,-0.0054 0.0218,-0.0108 0.0328,-0.0161 0.0079,-0.0039 0.0158,-0.0077 0.0237,-0.0115 0.0265,-0.0126 0.0531,-0.025 0.0799,-0.037 0.0266,-0.0119 0.0533,-0.0234 0.0801,-0.0347 0.031,-0.013 0.0623,-0.0256 0.0938,-0.0378 0.0352,-0.0136 0.0706,-0.0266 0.1064,-0.0392 0.0049,-0.0017 0.0098,-0.0034 0.0147,-0.0051 0.0303,-0.0105 0.0608,-0.0205 0.0915,-0.0302 0.0071,-0.0023 0.0141,-0.0045 0.0211,-0.0066 0.0098,-0.0031 0.0198,-0.0061 0.0298,-0.0091 0.0091,-0.0027 0.0181,-0.0054 0.0271,-0.008 0.0108,-0.0031 0.0216,-0.0062 0.0325,-0.0093 0.005,-0.0014 0.01,-0.0028 0.0149,-0.0042 0.0094,-0.0026 0.0189,-0.0051 0.0284,-0.0077 l 0.0137,-0.0034 v -8.5592 l -4.0801,-10e-5 c -0.8323,0 -1.617,-0.2039 -2.3068,-0.5646 l -4.69797,2.7124 c 0.00943,0.0341 0.01834,0.0682 0.02673,0.1024 0.00741,0.0301 0.01442,0.0604 0.02103,0.0907 0.00618,0.0283 0.01199,0.0566 0.01746,0.085 0.00209,0.0108 0.00411,0.0215 0.00608,0.0323 0.00197,0.0107 0.0039,0.0215 0.00578,0.0323 0.01352,0.0778 0.02442,0.1556 0.03275,0.2336 0.00152,0.0142 0.00295,0.0284 0.0043,0.0426 0.00248,0.0262 0.00466,0.0522 0.00656,0.0783 6.5e-4,0.0089 0.00126,0.0177 0.00184,0.0266 7.8e-4,0.012 0.00151,0.0241 0.00218,0.0361 4.5e-4,0.0083 8.8e-4,0.0166 0.00128,0.0248 0.00164,0.0341 0.0028,0.0681 0.00348,0.1021 2e-4,0.0099 3.5e-4,0.0199 4.7e-4,0.0298 9e-5,0.0076 1.5e-4,0.0152 1.9e-4,0.0229 l -1.9e-4,-0.0229 c 5.4e-4,0.0464 1.8e-4,0.0926 -0.00106,0.1388 -7.8e-4,0.0291 -0.00191,0.0582 -0.00339,0.0873 -4.5e-4,0.0086 -9.2e-4,0.0173 -0.00142,0.0259 -5e-4,0.0087 -0.00104,0.0173 -0.00161,0.026 -0.00464,0.0709 -0.01137,0.1416 -0.02016,0.212 -0.00253,0.0203 -0.00524,0.0406 -0.00812,0.0608 -0.00164,0.0116 -0.00334,0.0232 -0.0051,0.0347 l 0.0051,-0.0347 c -0.00833,0.0587 -0.01809,0.1171 -0.02927,0.1752 -0.00127,0.0066 -0.00257,0.0132 -0.00388,0.0198 -0.01069,0.054 -0.02262,0.1078 -0.03576,0.1612 -0.0092,0.0374 -0.019,0.0747 -0.02939,0.1119 -0.00198,0.007 -0.00398,0.0141 -0.00599,0.0211 -0.00143,0.005 -0.0029,0.0101 -0.00438,0.0152 l 0.00438,-0.0152 c -0.01141,0.0398 -0.02349,0.0794 -0.03624,0.1188 -0.00179,0.0055 -0.00358,0.011 -0.0054,0.0165 -0.00394,0.012 -0.00794,0.024 -0.01201,0.0359 C 7.02704,31.6062 7.0253,31.6112 7.02356,31.6163 7.01221,31.6491 7.00039,31.6818 6.98809,31.7143 6.96628,31.772 6.943,31.8291 6.91827,31.8857 6.90029,31.9267 6.88153,31.9675 6.862,32.008 6.85729,32.0177 6.85249,32.0276 6.84763,32.0374 6.84376,32.0452 6.83989,32.053 6.83598,32.0608 6.83101,32.0707 6.82594,32.0806 6.82083,32.0906 6.81763,32.0968 6.81443,32.103 6.81121,32.1091 6.80567,32.1197 6.80009,32.1303 6.79445,32.1409 6.77663,32.1742 6.75821,32.2074 6.73927,32.2403 l -4e-4,7e-4 z m 6.2549,0 9.2322,-5.3301 C 31.4431,32.2148 31.4284,32.1885 31.414,32.162 31.4102,32.1549 31.4064,32.1478 31.4026,32.1408 31.397,32.1303 31.3914,32.1197 31.3859,32.1091 31.3826,32.103 31.3794,32.0968 31.3763,32.0906 31.3705,32.0793 31.3648,32.0681 31.3591,32.0568 31.3563,32.0511 31.3534,32.0454 31.3505,32.0396 31.3449,32.0283 31.3394,32.017 31.334,32.0057 31.3298,31.9971 31.3257,31.9883 31.3215,31.9796 31.3199,31.9761 31.3182,31.9725 31.3166,31.969 l 0.0049,0.0106 c -0.0079,-0.0168 -0.0157,-0.0336 -0.0233,-0.0505 -0.0126,-0.0278 -0.025,-0.0559 -0.0369,-0.0842 l -0.0014,-0.0032 c -0.0313,-0.0742 -0.0601,-0.1494 -0.0864,-0.2254 -0.0017,-0.0051 -0.0035,-0.0101 -0.0052,-0.0152 -0.0041,-0.0119 -0.0081,-0.0239 -0.012,-0.0359 -0.0018,-0.0055 -0.0036,-0.011 -0.0054,-0.0165 -0.0036,-0.0112 -0.0072,-0.0225 -0.0107,-0.0337 -0.0089,-0.0283 -0.0174,-0.0567 -0.0256,-0.0852 -0.002,-0.0069 -0.0039,-0.014 -0.0059,-0.021 -0.0104,-0.0372 -0.0202,-0.0745 -0.0294,-0.1119 -0.0084,-0.034 -0.0162,-0.0681 -0.0236,-0.1023 -0.0017,-0.008 -0.0034,-0.016 -0.0051,-0.0241 C 31.044,31.1388 31.0378,31.1071 31.0321,31.0753 31.0275,31.05 31.0232,31.0245 31.0191,30.999 l -0.0014,-0.0089 c -0.0284,-0.1817 -0.043,-0.3659 -0.0433,-0.5509 0,-0.0087 0,-0.0176 0,-0.0264 10e-5,-0.0077 10e-5,-0.0153 2e-4,-0.0229 l -2e-4,0.0229 c 10e-5,-0.0176 3e-4,-0.0351 7e-4,-0.0527 3e-4,-0.0141 6e-4,-0.0282 0.0011,-0.0423 3e-4,-0.0089 6e-4,-0.0179 9e-4,-0.0268 4e-4,-0.011 9e-4,-0.022 0.0015,-0.033 3e-4,-0.0071 7e-4,-0.0142 0.0011,-0.0214 0.0016,-0.0311 0.0037,-0.0621 0.0062,-0.0932 10e-4,-0.0114 0.0019,-0.0228 0.003,-0.0342 0.0071,-0.0795 0.0169,-0.159 0.0295,-0.2383 9e-4,-0.0059 0.0018,-0.0118 0.0028,-0.0176 0.0058,-0.0357 0.0122,-0.0714 0.0191,-0.107 0.0012,-0.0064 0.0025,-0.0127 0.0038,-0.0191 0.0027,-0.0138 0.0056,-0.0276 0.0085,-0.0414 0.0014,-0.0064 0.0028,-0.0129 0.0042,-0.0194 0.0022,-0.0102 0.0045,-0.0203 0.0068,-0.0304 0.0025,-0.0114 0.0052,-0.0228 0.0079,-0.0343 0.008,-0.0337 0.0166,-0.0674 0.0256,-0.101 0.0038,-0.014 0.0076,-0.0282 0.0116,-0.0423 0.0021,-0.0074 0.0042,-0.0149 0.0064,-0.0223 l -4.3497,-2.5113 c -0.548,0.257 -1.1598,0.4007 -1.8052,0.4007 l -4.8915,10e-5 v 8.5723 c 0.0178,0.0049 0.0356,0.01 0.0533,0.0152 0.0053,0.0016 0.0106,0.0032 0.016,0.0048 0.0127,0.0038 0.0253,0.0077 0.0379,0.0116 0.0064,0.002 0.0128,0.004 0.0192,0.0061 0.0116,0.0036 0.023,0.0074 0.0345,0.0111 0.0066,0.0022 0.0133,0.0044 0.02,0.0067 0.0313,0.0105 0.0624,0.0214 0.0933,0.0328 0.0052,0.0019 0.0105,0.0039 0.0158,0.0058 0.0104,0.0039 0.0206,0.0078 0.0308,0.0117 0.0276,0.0105 0.055,0.0214 0.0822,0.0326 0.0409,0.0169 0.0814,0.0344 0.1215,0.0527 0.0219,0.0099 0.0436,0.0201 0.0652,0.0304 0.0073,0.0035 0.0146,0.0071 0.022,0.0107 0.0449,0.0219 0.0893,0.0447 0.1332,0.0685 0.0113,0.0061 0.0225,0.0122 0.0337,0.0184 0.0051,0.0029 0.0102,0.0057 0.0153,0.0086 0.0094,0.0052 0.0188,0.0105 0.0281,0.0159 0.0097,0.0055 0.0193,0.0111 0.0289,0.0167 0.0067,0.0039 0.0134,0.0079 0.0202,0.0119 0.0114,0.0068 0.0228,0.0137 0.0342,0.0206 0.0035,0.0021 0.007,0.0043 0.0104,0.0064 0.0135,0.0082 0.0269,0.0166 0.0402,0.025 0.0048,0.003 0.0094,0.006 0.0141,0.009 0.0085,0.0054 0.017,0.0109 0.0255,0.0164 0.0084,0.0055 0.0169,0.011 0.0254,0.0166 0.0078,0.0052 0.0155,0.0103 0.0232,0.0155 0.0078,0.0053 0.0157,0.0106 0.0235,0.016 0.0108,0.0074 0.0216,0.0148 0.0323,0.0224 0.03,0.021 0.0597,0.0425 0.0891,0.0645 0.022,0.0164 0.0438,0.0331 0.0654,0.05 0.0073,0.0057 0.0145,0.0114 0.0218,0.0172 0.0533,0.0424 0.1054,0.0863 0.1562,0.1316 0.006,0.0054 0.0121,0.0109 0.0182,0.0164 0.0114,0.0103 0.0226,0.0206 0.0338,0.0309 0.0038,0.0035 0.0076,0.0071 0.0114,0.0106 0.0049,0.0046 0.0098,0.0092 0.0146,0.0138 0.0097,0.0092 0.0194,0.0184 0.029,0.0277 0.005,0.0048 0.0099,0.0096 0.0147,0.0143 0.006,0.0058 0.0119,0.0117 0.0179,0.0176 l 0.011,0.011 c 0.0032,0.0032 0.0063,0.0063 0.0095,0.0095 0.0213,0.0215 0.0424,0.0433 0.0632,0.0653 l 0.0045,0.0048 c 0.017,0.018 0.0338,0.0363 0.0504,0.0547 0.0138,0.0153 0.0275,0.0307 0.0411,0.0463 0.0198,0.0226 0.0393,0.0456 0.0585,0.0687 0.0052,0.0063 0.0104,0.0126 0.0155,0.0189 0.0075,0.0092 0.015,0.0184 0.0225,0.0277 0.0182,0.0228 0.0362,0.0458 0.054,0.069 0.0054,0.0072 0.0109,0.0144 0.0164,0.0217 0.0047,0.0062 0.0094,0.0125 0.014,0.0188 0.0075,0.0101 0.015,0.0203 0.0223,0.0304 0.004,0.0055 0.008,0.011 0.0119,0.0166 0.0076,0.0105 0.0152,0.0212 0.0227,0.0319 0.0036,0.0052 0.0073,0.0104 0.0109,0.0157 0.0066,0.0095 0.0132,0.0191 0.0197,0.0287 0.0048,0.0072 0.0096,0.0143 0.0144,0.0215 0.0361,0.054 0.0707,0.1089 0.1039,0.1649 z M 4.47106,31.9243 C 5.12055,31.5493 5.43284,30.8146 5.30156,30.1171 5.30069,30.1121 5.29971,30.107 5.2987,30.1019 l 0.00286,0.0152 C 5.29626,30.089 5.29024,30.0609 5.2835,30.033 5.25431,29.912 5.21165,29.7932 5.15539,29.6786 5.15276,29.6732 5.15005,29.6678 5.1473,29.6623 l 0.00809,0.0163 C 5.1494,29.6664 5.14325,29.6543 5.13695,29.6422 L 5.1473,29.6623 C 5.13956,29.647 5.13156,29.6317 5.12331,29.6165 L 5.10041,29.5756 C 5.07698,29.535 5.05209,29.4956 5.02583,29.4576 5.02191,29.4519 5.01796,29.4462 5.01398,29.4406 l 0.01185,0.017 C 5.0173,29.4452 5.00861,29.433 4.99979,29.4208 l 0.01419,0.0198 C 5.00477,29.4276 4.9954,29.4147 4.98587,29.402 l 0.01392,0.0188 C 4.98959,29.4068 4.97919,29.393 4.96861,29.3794 L 4.98587,29.402 C 4.97765,29.391 4.9693,29.3802 4.96085,29.3694 l 0.00776,0.01 C 4.95869,29.3666 4.94862,29.354 4.93838,29.3415 l 0.02247,0.0279 C 4.95134,29.3574 4.94168,29.3454 4.9319,29.3337 l 0.00648,0.0078 C 4.92036,29.3196 4.90185,29.2982 4.88287,29.2773 4.35064,28.6917 3.46494,28.5344 2.75166,28.9462 1.92928,29.421 1.64751,30.4726 2.12231,31.295 c 0.4748,0.8223 1.52637,1.1041 2.34875,0.6293 z M 36.0748,31.295 c 0.4748,-0.8224 0.193,-1.874 -0.6294,-2.3488 -0.6518,-0.3763 -1.4476,-0.2773 -1.9861,0.1894 -0.0112,0.0096 -0.0222,0.0194 -0.0332,0.0294 l -0.0323,0.0304 c -0.0178,0.0171 -0.0352,0.0347 -0.0524,0.0527 -0.0041,0.0043 -0.0083,0.0087 -0.0123,0.0131 l 0.0123,-0.0131 c -0.0091,0.0095 -0.018,0.0192 -0.0269,0.0289 l 0.0146,-0.0158 c -0.0099,0.0106 -0.0197,0.0213 -0.0293,0.0322 l 0.0147,-0.0164 c -0.0103,0.0114 -0.0205,0.0229 -0.0306,0.0345 l 0.0159,-0.0181 c -0.0103,0.0116 -0.0204,0.0233 -0.0304,0.0352 l 0.0145,-0.0171 c -0.0099,0.0116 -0.0198,0.0233 -0.0295,0.0352 l 0.015,-0.0181 c -0.0308,0.0367 -0.0602,0.0749 -0.0881,0.1145 -0.0032,0.0046 -0.0064,0.0092 -0.0097,0.0139 l 0.0097,-0.0139 c -0.0299,0.0425 -0.0582,0.0867 -0.0846,0.1325 -0.0079,0.0136 -0.0156,0.0274 -0.0231,0.0412 -0.0028,0.0052 -0.0056,0.0105 -0.0084,0.0157 l 0.0084,-0.0157 c -0.0083,0.0153 -0.0163,0.0307 -0.0241,0.0462 l 0.0157,-0.0305 c -0.0077,0.0146 -0.0152,0.0293 -0.0225,0.044 l 0.0068,-0.0135 c -0.0066,0.0129 -0.0129,0.0259 -0.0191,0.039 l 0.0123,-0.0255 c -0.0076,0.0155 -0.015,0.031 -0.0221,0.0465 l 0.0098,-0.021 c -0.015,0.0318 -0.029,0.0639 -0.0419,0.0962 -0.0019,0.0047 -0.0038,0.0093 -0.0056,0.014 l 0.0056,-0.014 c -0.0251,0.0627 -0.0463,0.1263 -0.0637,0.1907 -0.0021,0.008 -0.0042,0.0159 -0.0062,0.0238 l 0.0062,-0.0238 c -0.0039,0.0146 -0.0077,0.0292 -0.0112,0.0439 l 0.005,-0.0201 c -0.0036,0.0141 -0.007,0.0283 -0.0102,0.0425 l 0.0052,-0.0224 c -0.004,0.0165 -0.0078,0.0331 -0.0113,0.0497 l 0.0061,-0.0273 c -0.0035,0.0152 -0.0067,0.0304 -0.0097,0.0457 l 0.0036,-0.0184 c -0.0028,0.0134 -0.0054,0.0268 -0.0079,0.0401 l 0.0043,-0.0217 c -0.1393,0.7023 0.1728,1.4455 0.8273,1.8234 0.8224,0.4748 1.874,0.193 2.3488,-0.6293 z m -16.9763,9.8012 c 0.9496,0 1.7194,-0.7698 1.7194,-1.7194 0,-0.727 -0.4511,-1.3486 -1.0887,-1.6001 -0.0047,-0.002 -0.0094,-0.0038 -0.0141,-0.0056 l 0.0141,0.0056 c -0.0118,-0.0046 -0.0236,-0.0091 -0.0355,-0.0135 l 0.0214,0.0079 c -0.0139,-0.0053 -0.0279,-0.0105 -0.042,-0.0155 l 0.0206,0.0076 C 19.6804,37.7583 19.6671,37.7535 19.6536,37.749 l 0.0195,0.0066 c -0.0141,-0.005 -0.0283,-0.0098 -0.0425,-0.0144 l 0.023,0.0078 c -0.0148,-0.0051 -0.0298,-0.01 -0.0448,-0.0146 l 0.0218,0.0068 C 19.6158,37.7364 19.601,37.7319 19.5861,37.7275 l 0.0227,0.0069 c -0.0131,-0.0041 -0.0262,-0.008 -0.0393,-0.0117 l 0.0166,0.0048 c -0.0142,-0.0042 -0.0286,-0.0083 -0.043,-0.0121 l 0.0264,0.0073 c -0.0156,-0.0044 -0.0312,-0.0086 -0.0469,-0.0126 l 0.0205,0.0053 c -0.0349,-0.0093 -0.0702,-0.0175 -0.1059,-0.0247 -0.0075,-0.0015 -0.0151,-0.0029 -0.0226,-0.0043 l 0.0226,0.0043 C 19.4236,37.688 19.41,37.6855 19.3963,37.6831 l 0.0183,0.0033 c -0.0155,-0.0029 -0.031,-0.0056 -0.0466,-0.008 l 0.0283,0.0047 c -0.0165,-0.0029 -0.033,-0.0055 -0.0496,-0.0079 l 0.0213,0.0032 c -0.0109,-0.0017 -0.0219,-0.0033 -0.0328,-0.0049 l 0.0115,0.0017 c -0.0171,-0.0025 -0.0342,-0.0047 -0.0514,-0.0067 l 0.0399,0.005 C 19.32,37.6715 19.3049,37.6696 19.2897,37.6679 l 0.0056,6e-4 c -0.0144,-0.0016 -0.0289,-0.0031 -0.0434,-0.0044 l 0.0378,0.0038 c -0.0164,-0.0018 -0.0329,-0.0034 -0.0494,-0.0048 l 0.0116,10e-4 c -0.0162,-0.0014 -0.0324,-0.0026 -0.0487,-0.0036 l 0.0371,0.0026 c -0.0157,-0.0012 -0.0314,-0.0023 -0.0472,-0.0032 l 0.0101,6e-4 c -0.0153,-9e-4 -0.0307,-0.0016 -0.0461,-0.0021 l 0.036,0.0015 c -0.0313,-0.0017 -0.0628,-0.0025 -0.0946,-0.0025 l -0.0467,6e-4 c -0.0039,10e-5 -0.0078,2e-4 -0.0118,4e-4 l 0.0117,-4e-4 c -0.0159,4e-4 -0.0318,0.0011 -0.0477,0.0019 l 0.036,-0.0015 c -0.0154,5e-4 -0.0308,0.0012 -0.0461,0.0021 l 0.0101,-6e-4 c -0.0157,9e-4 -0.0315,0.002 -0.0472,0.0033 l 0.0371,-0.0027 c -0.0163,10e-4 -0.0325,0.0022 -0.0487,0.0036 l 0.0116,-9e-4 c -0.0165,0.0013 -0.033,0.0029 -0.0494,0.0047 l 0.0378,-0.0038 c -0.0145,0.0013 -0.029,0.0028 -0.0434,0.0044 l 0.0056,-6e-4 c -0.0154,0.0017 -0.0308,0.0036 -0.0462,0.0058 l 0.0406,-0.0052 c -0.0168,0.0019 -0.0335,0.0041 -0.0501,0.0065 l 0.0095,-0.0013 c -0.0112,0.0015 -0.0225,0.0032 -0.0337,0.0049 l 0.0242,-0.0036 c -0.0171,0.0024 -0.0341,0.0051 -0.0511,0.0081 l 0.0269,-0.0045 c -0.0136,0.0022 -0.0272,0.0045 -0.0408,0.007 l 0.0139,-0.0025 c -0.014,0.0025 -0.0279,0.0051 -0.0418,0.0079 l 0.0279,-0.0054 c -0.0383,0.007 -0.0761,0.0153 -0.1136,0.0248 -0.0055,0.0014 -0.011,0.0029 -0.0165,0.0043 l 0.0165,-0.0043 c -0.0154,0.0039 -0.0307,0.008 -0.0459,0.0124 l 0.0294,-0.0081 c -0.0142,0.0038 -0.0284,0.0077 -0.0424,0.0119 l 0.013,-0.0038 c -0.0138,0.0039 -0.0274,0.0079 -0.041,0.0122 l 0.028,-0.0084 c -0.0157,0.0045 -0.0312,0.0093 -0.0467,0.0144 l 0.0187,-0.006 c -0.0143,0.0044 -0.0285,0.009 -0.0427,0.0139 l 0.024,-0.0079 c -0.0146,0.0047 -0.0291,0.0096 -0.0436,0.0147 l 0.0196,-0.0068 c -0.0134,0.0045 -0.0268,0.0093 -0.0401,0.0142 l 0.0205,-0.0074 c -0.0142,0.0051 -0.0284,0.0103 -0.0425,0.0158 l 0.022,-0.0084 c -0.0114,0.0042 -0.0228,0.0085 -0.0341,0.0129 l 0.0121,-0.0045 c -0.6447,0.248 -1.1023,0.8732 -1.1023,1.6053 0,0.9496 0.7698,1.7194 1.7194,1.7194 z"
       fill="#276cff"
       id="path2" />
    <path
       fill-rule="evenodd"
       clip-rule="evenodd"
       d="m 105.558,9.20007 c 7.347,0 12.619,5.46853 12.619,12.22793 v 0.0678 c 0,6.7594 -5.34,12.2958 -12.687,12.2958 -7.3464,0 -12.6184,-5.4685 -12.6184,-12.2278 v -0.068 c 0,-6.7592 5.34,-12.29573 12.6864,-12.29573 z M 58.982,9.27941 c 3.4615,0 6.4139,1.08589 8.8234,3.02019 l -2.7149,3.9364 c -2.1041,-1.4591 -4.1742,-2.3415 -6.1764,-2.3415 -2.0022,0 -3.0542,0.9163 -3.0542,2.07 v 0.0679 c 0,1.561 1.018,2.07 5.1243,3.1219 4.819,1.2557 7.5339,2.9864 7.5339,7.1263 v 0.0679 c 0,4.717 -3.5973,7.3638 -8.7217,7.3638 -3.5972,0 -7.2283,-1.2555 -10.079,-3.8007 l 3.0882,-3.6989 c 2.138,1.7647 4.3778,2.8846 7.0926,2.8846 2.138,0 3.4276,-0.8485 3.4276,-2.2398 v -0.0678 c 0,-1.3234 -0.8145,-2.0021 -4.785,-3.0202 -4.785,-1.2217 -7.8732,-2.5451 -7.8732,-7.2621 v -0.0678 c 0,-4.3096 3.4615,-7.16019 8.3144,-7.16019 z M 161.966,9.59674 V 25.1529 c 0,5.7742 -3.393,8.5594 -8.414,8.5594 -3.698,0 -6.14,-1.6304 -7.769,-3.5663 l 3.291,-3.6684 c 1.357,1.4945 2.68,2.3777 4.343,2.3777 1.967,0 3.189,-1.1888 3.189,-3.9401 V 14.9116 l -7.808,10e-5 V 9.59674 Z m -71.2363,0 V 14.4244 H 83.5049 V 33.3951 H 78.2813 V 14.4244 H 71.0565 V 9.59674 Z m 42.7573,0 c 5.603,0 8.965,2.95776 8.965,7.85336 v 0.068 c 0,3.8417 -2.071,6.2556 -5.094,7.3775 l 5.807,8.4995 h -6.112 l -5.095,-7.6155 h -4.109 v 7.6155 H 122.62 V 9.59674 Z M 105.49,14.039 c -4.219,0 -7.1448,3.3217 -7.1448,7.3891 v 0.0677 c 0,4.0674 2.9938,7.4569 7.2128,7.4569 4.219,0 7.146,-3.3217 7.146,-7.3891 v -0.0678 c 0,-4.0673 -2.995,-7.4568 -7.214,-7.4568 z m 27.548,0.3174 h -5.183 v 6.8221 h 5.284 c 2.541,0 3.997,-1.3576 3.997,-3.3601 v -0.0678 c 0,-2.2403 -1.558,-3.3942 -4.098,-3.3942 z"
       fill="#091c45"
       id="path4" />
  </g>
</svg>
