<?xml version="1.0" encoding="UTF-8" standalone="no"?>
<!-- Created with Inkscape (http://www.inkscape.org/) -->

<svg
   version="1.1"
   id="svg2456"
   xml:space="preserve"
   width="647.45331"
   height="121.69333"
   viewBox="0 0 647.45331 121.69333"
   sodipodi:docname="Fairwinds-Logo-Warm-Navy.svg"
   inkscape:version="1.1.1 (3bf5ae0d25, 2021-09-20)"
   xmlns:inkscape="http://www.inkscape.org/namespaces/inkscape"
   xmlns:sodipodi="http://sodipodi.sourceforge.net/DTD/sodipodi-0.dtd"
   xmlns="http://www.w3.org/2000/svg"
   xmlns:svg="http://www.w3.org/2000/svg"><defs
     id="defs2460" /><sodipodi:namedview
     id="namedview2458"
     pagecolor="#ffffff"
     bordercolor="#666666"
     borderopacity="1.0"
     inkscape:pageshadow="2"
     inkscape:pageopacity="0.0"
     inkscape:pagecheckerboard="0"
     showgrid="false"
     inkscape:zoom="1.7499331"
     inkscape:cx="323.72665"
     inkscape:cy="60.859468"
     inkscape:window-width="1920"
     inkscape:window-height="1001"
     inkscape:window-x="-7"
     inkscape:window-y="-7"
     inkscape:window-maximized="1"
     inkscape:current-layer="g2462" /><g
     id="g2462"
     inkscape:groupmode="layer"
     inkscape:label="ink_ext_XXXXXX"
     transform="matrix(1.3333333,0,0,-1.3333333,0,121.69333)"><g
       id="g2464"
       transform="scale(0.1)"><path
         d="M 721.504,673.996 H 0 v 238.731 h 844.305 v -115.93 c 0,-67.82 -54.981,-122.801 -122.801,-122.801"
         style="fill:#191631;fill-opacity:1;fill-rule:nonzero;stroke:none"
         id="path2466" /><path
         d="M 414.461,337 H 0 V 575.73 H 537.285 V 459.828 C 537.285,391.988 482.293,337 414.461,337"
         style="fill:#191631;fill-opacity:1;fill-rule:nonzero;stroke:none"
         id="path2468" /><path
         d="M 115.965,-0.00390625 H 0 V 238.73 H 238.797 V 122.828 c 0,-67.8397 -55,-122.83190625 -122.832,-122.83190625"
         style="fill:#191631;fill-opacity:1;fill-rule:nonzero;stroke:none"
         id="path2470" /><path
         d="m 1213.45,146.797 v 600.691 h 369.06 v -42.461 c 0,-37.39 -30.32,-67.699 -67.72,-67.699 H 1331.18 V 502.445 h 165.99 v -35.472 c 0,-41.262 -33.45,-74.707 -74.72,-74.707 h -91.27 V 201.727 c 0,-30.34 -24.6,-54.93 -54.94,-54.93 h -62.79"
         style="fill:#191631;fill-opacity:1;fill-rule:nonzero;stroke:none"
         id="path2472" /><path
         d="m 1719.75,276.805 c 0,-11.895 4.45,-21.309 13.36,-28.262 8.91,-6.953 21.3,-10.43 37.17,-10.43 13.93,0 27.08,3.157 39.48,9.453 12.4,6.297 22.35,15.247 29.87,26.805 10.3,14.406 15.46,32.031 15.46,52.863 v 11.954 l -86.77,-18.008 c -15.77,-3.289 -27.81,-8.352 -36.12,-15.176 -8.3,-6.824 -12.45,-16.563 -12.45,-29.199 z m -111.87,-7.41 c 0,19.578 3.27,36.707 9.84,51.394 6.56,14.688 16.12,26.785 28.7,36.316 12.56,9.524 26.6,17.129 42.09,22.825 15.51,5.683 33.45,10.105 53.83,13.3 l 112.75,20.411 v 15.175 c 0,19.707 -5.23,34.887 -15.68,45.516 -10.43,10.641 -25.53,15.953 -45.31,15.953 -18.66,0 -34.11,-4.762 -46.37,-14.301 -12.25,-9.543 -18.39,-22.086 -18.39,-37.636 h -108.43 c 2.53,45.238 19.37,82.027 50.54,110.371 31.17,28.347 72.05,42.527 122.65,42.527 53.15,0 95.24,-13.48 126.29,-40.422 31.04,-26.965 46.56,-66.402 46.56,-118.344 V 146.797 h -46.82 c -27.8,0 -51.21,20.75 -54.55,48.34 l -1.27,10.523 c -27.31,-45.672 -68.67,-68.496 -124.1,-68.496 -39.21,0 -71.07,11.938 -95.57,35.832 -24.52,23.867 -36.76,56.008 -36.76,96.399"
         style="fill:#191631;fill-opacity:1;fill-rule:nonzero;stroke:none"
         id="path2474" /><path
         d="m 2078.3,146.797 v 434.812 h 111.88 V 201.727 c 0,-30.34 -24.59,-54.93 -54.94,-54.93 z m -11.71,560.848 c -0.39,18.066 6.77,36.019 19.69,48.656 12.66,12.387 27.94,18.804 45.82,19.234 17.96,0.434 35.86,-6.293 48.98,-18.558 13.89,-12.985 20.83,-28.844 20.83,-47.598 0,-18.723 -6.64,-34.352 -19.9,-46.918 -13.27,-12.57 -29.27,-18.859 -47.98,-18.859 -18.99,0 -34.98,6.289 -47.98,18.859 -12.57,12.176 -19.07,27.23 -19.46,45.184"
         style="fill:#191631;fill-opacity:1;fill-rule:nonzero;stroke:none"
         id="path2476" /><path
         d="m 2300.41,146.797 v 434.812 h 95.53 l 10.59,-68.425 c 8.12,21.183 22.74,38.652 43.89,52.406 21.14,13.754 48.93,20.629 83.37,20.629 V 476.047 c -35.49,0 -64.26,-8.555 -86.32,-25.684 -21.79,-17.406 -33.53,-44.496 -35.2,-81.254 V 201.727 c 0,-30.34 -24.6,-54.93 -54.94,-54.93 h -56.92"
         style="fill:#191631;fill-opacity:1;fill-rule:nonzero;stroke:none"
         id="path2478" /><path
         d="m 2592.09,581.609 h 119.41 l 66.27,-261.394 7.54,-46.485 9.66,46.485 73.82,261.394 h 98.98 l 73.82,-261.394 9.22,-46.485 7.98,46.485 66.69,261.394 h 119.41 l -118.9,-394.152 c -7.28,-24.141 -29.53,-40.66 -54.75,-40.66 h -74.52 L 2917.85,402.32 2846.5,186.055 c -7.72,-23.43 -29.62,-39.258 -54.29,-39.258 h -69.39 l -130.73,434.812"
         style="fill:#191631;fill-opacity:1;fill-rule:nonzero;stroke:none"
         id="path2480" /><path
         d="m 3313.59,146.797 v 434.812 h 111.89 V 201.727 c 0,-30.34 -24.6,-54.93 -54.95,-54.93 z m -11.73,562.582 c 0,18.426 6.57,34.059 19.7,46.914 13.12,12.84 29.04,19.266 47.77,19.266 18.43,0 34.35,-6.426 47.76,-19.266 13.41,-12.855 20.12,-28.488 20.12,-46.914 0,-18.723 -6.64,-34.352 -19.91,-46.918 -13.27,-12.57 -29.26,-18.859 -47.97,-18.859 -19,0 -34.99,6.289 -47.98,18.859 -12.98,12.566 -19.49,28.195 -19.49,46.918"
         style="fill:#191631;fill-opacity:1;fill-rule:nonzero;stroke:none"
         id="path2482" /><path
         d="m 3544.06,146.797 v 434.812 h 95.53 l 8.83,-57.757 c 10.62,20.195 25.97,36.472 46.1,48.839 20.13,12.368 44.01,18.555 71.68,18.555 45.24,0 79.86,-14.449 103.87,-43.363 24,-28.895 36,-68.485 36,-118.754 V 203.965 c 0,-31.574 -25.59,-57.168 -57.17,-57.168 h -54.7 V 403.23 c 0,25.254 -5.24,44.532 -15.68,57.864 -10.43,13.312 -25.69,19.976 -45.74,19.976 -22.56,0 -41.01,-9.011 -55.34,-27.058 -14.35,-18.028 -21.51,-44.27 -21.51,-78.672 V 203.965 c 0,-31.574 -25.61,-57.168 -57.19,-57.168 h -54.68"
         style="fill:#191631;fill-opacity:1;fill-rule:nonzero;stroke:none"
         id="path2484" /><path
         d="m 4101.76,364.617 c 0,-36.582 10.47,-66.179 31.42,-88.801 20.94,-22.625 47.06,-33.921 78.35,-33.921 29.34,0 54.96,10.808 76.89,32.46 21.92,21.629 32.89,50.887 32.89,87.75 v 5.032 c -0.29,24.57 -5.86,46.14 -16.76,64.718 -10.89,18.567 -24.51,32.325 -40.85,41.262 -16.35,8.934 -33.73,13.41 -52.17,13.41 -31,0 -57.06,-11.32 -78.14,-33.941 -21.09,-22.617 -31.63,-51.941 -31.63,-87.969 z m -114.81,0 c 0,64.238 19.12,118.059 57.4,161.485 38.27,43.425 86.59,65.144 144.97,65.144 29.34,0 55.31,-5.308 77.94,-15.918 22.62,-10.613 40.08,-24.156 52.38,-40.637 v 238.36 h 111.87 V 146.797 h -48.3 c -27.16,0 -50.24,19.844 -54.31,46.687 l -1.76,11.543 c -30.8,-45.246 -77.03,-67.863 -138.64,-67.863 -38.29,0 -72.85,10.063 -103.72,30.168 -30.86,20.106 -54.88,47.461 -72.07,82.102 -17.16,34.617 -25.76,73.023 -25.76,115.183"
         style="fill:#191631;fill-opacity:1;fill-rule:nonzero;stroke:none"
         id="path2486" /><path
         d="m 4518.19,278.758 h 69.38 c 20.21,0 37.36,-12.031 48.11,-29.153 2.48,-3.933 5.55,-7.417 9.21,-10.437 11.01,-9.082 26.13,-13.621 45.35,-13.621 16.98,0 30.19,3.699 39.64,11.101 9.47,7.391 14.2,17.52 14.2,30.379 0,13.95 -5.37,24.985 -16.07,33.086 -10.71,8.098 -31.51,15.078 -62.39,20.942 -47.53,8.101 -82.65,22.625 -105.37,43.562 -22.69,20.946 -34.05,49.297 -34.05,85.043 0,40.215 13.98,73.863 41.96,100.949 27.97,27.082 67.55,40.637 118.74,40.637 46.14,0 83.88,-12.641 113.24,-37.914 29.35,-25.281 44.88,-58.434 46.57,-99.48 h -110.97 c -0.84,33.222 -17.4,49.843 -49.67,49.843 -15.31,0 -27.13,-3.918 -35.48,-11.73 -8.34,-7.817 -12.52,-18.156 -12.52,-31 0,-13.676 5.36,-24.16 16.07,-31.406 10.7,-7.266 30.82,-13.411 60.31,-18.438 51.15,-8.664 87.52,-23.672 109.11,-45.039 21.6,-21.355 32.39,-50.469 32.39,-87.324 0,-24.024 -4.48,-45.242 -13.42,-63.672 -8.96,-18.438 -21.25,-33.242 -36.92,-44.402 -15.65,-11.184 -33.41,-19.563 -53.28,-25.137 -19.86,-5.59 -41.38,-8.383 -64.6,-8.383 -52.68,0 -93.77,12.707 -123.24,38.117 -29.46,25.41 -44.89,59.91 -46.3,103.477"
         style="fill:#191631;fill-opacity:1;fill-rule:nonzero;stroke:none"
         id="path2488" /></g></g></svg>
