<?xml version="1.0" encoding="UTF-8" standalone="no"?>
<!-- Generator: Adobe Illustrator 21.1.0, SVG Export Plug-In . SVG Version: 6.00 Build 0)  -->

<svg
   version="1.1"
   id="Layer_1"
   x="0px"
   y="0px"
   viewBox="0 0 217.63248 210.25813"
   xml:space="preserve"
   sodipodi:docname="Jfrog.svg"
   width="217.63248"
   height="210.25813"
   inkscape:version="1.1.1 (3bf5ae0d25, 2021-09-20)"
   xmlns:inkscape="http://www.inkscape.org/namespaces/inkscape"
   xmlns:sodipodi="http://sodipodi.sourceforge.net/DTD/sodipodi-0.dtd"
   xmlns="http://www.w3.org/2000/svg"
   xmlns:svg="http://www.w3.org/2000/svg"><defs
   id="defs10" /><sodipodi:namedview
   id="namedview8"
   pagecolor="#ffffff"
   bordercolor="#666666"
   borderopacity="1.0"
   inkscape:pageshadow="2"
   inkscape:pageopacity="0.0"
   inkscape:pagecheckerboard="0"
   showgrid="false"
   fit-margin-top="0"
   fit-margin-left="0"
   fit-margin-right="0"
   fit-margin-bottom="0"
   inkscape:zoom="2.7266667"
   inkscape:cx="114.6088"
   inkscape:cy="105.4401"
   inkscape:window-width="1920"
   inkscape:window-height="1001"
   inkscape:window-x="-7"
   inkscape:window-y="-7"
   inkscape:window-maximized="1"
   inkscape:current-layer="Layer_1" />
<style
   type="text/css"
   id="style2">
	.st0{fill:#41BF47;}
</style>
<g
   id="Layer_x0020_1"
   transform="translate(-35.16752,-44.841865)">
	<path
   class="st0"
   d="m 131.8,182.9 -11.5,3.2 c 1,2.9 1.8,8.1 1.8,15.1 v 34.4 H 135 v -36.4 c 2.4,-2.9 5,-4.3 7.8,-4.3 1.4,0 2.5,0.3 3.7,1 L 150,184 c -2,-0.9 -2.9,-1.1 -4.8,-1.1 -1.4,0 -3.1,0.3 -4.2,0.8 -2.4,1.2 -5.4,3.9 -7.3,6.5 0,-2.9 -0.7,-5.2 -1.9,-7.3 z m -44.4,-17 H 86 v 69.6 h 13.4 v -30.8 h 16.9 V 193.2 H 99.4 v -16 h 21.1 l 0.8,-6.1 c -12.7,-0.9 -24.2,-2.9 -33.9,-5.2 z m -31.3,78.9 6.2,7.2 c 6,-2.4 13.5,-7.8 15.5,-16.4 0.7,-2.8 0.9,-4.6 0.9,-13.7 V 166 H 65.2 v 57.4 c 0,7.5 -0.3,10.3 -1.3,12.9 -1.3,2.9 -4.4,6.3 -7.8,8.5 z m 121.7,-35.3 c 0,12.2 -2.4,17.4 -7.9,17.4 -2.5,0 -5.3,-1.4 -6.5,-4.2 -1,-2.6 -1.6,-7 -1.6,-13 0,-5.1 0.5,-8.7 1.3,-11.5 1,-3.2 3.5,-5.2 6.6,-5.2 2.3,0 4.3,1 5.5,2.7 1.8,2.4 2.6,6.9 2.6,13.8 z m 7.9,20 c 4.2,-5 6.1,-11.1 6.1,-19.9 0,-8.3 -1.7,-14 -5.6,-18.8 -4.2,-5.2 -9.6,-7.7 -16.6,-7.7 -13.2,0 -22,10.7 -22,26.9 0,16.2 8.7,26.6 22,26.6 7.5,0.1 12.4,-2.7 16.1,-7.1 z m 36.6,-28.8 c 0,4.7 -2.8,7.3 -7.8,7.3 -4.5,0 -7.5,-2.1 -7.5,-7.3 0,-4.8 2.8,-7.6 7.6,-7.6 4.8,0 7.7,2.8 7.7,7.6 z m 22.7,-11 -5.3,-8.5 c -3,2.8 -6.6,4.4 -10.1,4.4 -1.6,0 -2.5,-0.2 -6,-1.1 -3.5,-1 -6,-1.3 -8.8,-1.3 -12.5,0 -20.6,6.8 -20.6,17.4 0,7.6 3.4,12.4 10.5,14.3 -2.9,0.7 -6,2.2 -7.4,3.9 -1,1.2 -1.5,2.8 -1.5,4.7 0,1.6 0.4,3 1,4.2 0.7,1.1 1.6,2 2.8,2.5 2.3,0.9 6,1.5 11.7,1.6 3,0 4.8,0.1 5.4,0.1 3.5,0.2 5.3,0.8 6.7,1.5 1.3,0.8 2.3,2.6 2.3,4.6 0,2 -1.2,4 -3.1,5.2 -1.7,1.2 -4.5,1.7 -8.1,1.7 -5.9,0 -9.2,-2.2 -9.2,-6.3 0,-1.8 0.2,-2.2 0.6,-3.3 h -11.8 c -0.5,1 -1.1,2.4 -1.1,5.2 0,3.5 1.3,6.5 4,9.1 4.4,4.3 11.6,5.5 18.5,5.5 7.6,0 15,-1.8 19.3,-6.6 2.7,-3 3.9,-6.3 3.9,-10.6 0,-4.6 -1.3,-8.1 -4.2,-11 -3.4,-3.3 -7.3,-4.5 -14.8,-4.6 l -6.9,-0.1 c -1.3,0 -2.1,-0.5 -2.1,-1.2 0,-1.4 1.8,-2.6 5.1,-4.2 1,0.1 1.3,0.1 1.9,0.1 10.4,0 18,-6.4 18,-15.3 0,-3.4 -1,-6 -2.9,-8.4 1.6,0.2 2.1,0.3 3.3,0.3 3.4,0 6.1,-1.1 8.9,-3.8 z M 84,105.4 c -16,3.9 -26.9,11.6 -26.9,20.4 0,5.5 4.2,10.5 11.1,14.4 -2.1,-3.3 -3.2,-6.9 -3.2,-10.5 0.1,-9.1 7.2,-17.6 19,-24.3 z m 168.8,34.5 c 0,-5.8 -3.6,-11.1 -9.6,-15.5 0.5,1.8 0.9,3.6 0.9,5.4 0,16.5 -23.1,30.7 -55.9,36.6 3.7,0.4 7.5,0.6 11.5,0.6 29.3,-0.1 53.1,-12.2 53.1,-27.1 z m -18.9,-9 c 0,-6.1 -5.2,-11.7 -14.1,-16.3 2.1,2.5 3.2,5.2 3.2,8 0,14.7 -31.2,26.6 -69.8,26.6 -38.5,0 -69.8,-11.9 -69.8,-26.6 0,-1.9 0.5,-3.7 1.5,-5.4 -6.2,4.1 -9.7,8.8 -9.7,13.8 0,15.9 35.5,28.8 79.3,28.8 43.8,0 79.4,-13.1 79.4,-28.9 z m -34.6,-0.8 c -16.2,10.4 -66,14.4 -87.4,1 -16.8,-10.5 -11,-27.2 -59.1,-63.8 -6.3,-4.8 1.2,-9.9 5.9,-6.6 4.7,3.3 0.4,4.1 9.9,13.6 19.2,19.2 19,1.9 22,8.5 6.4,13.7 20.4,27.5 20.4,27.5 14.1,9.2 25.3,11.2 46.1,-2.9 13.2,-8.9 7.8,14.2 40.1,-2.5 11.8,-6.1 11.3,-2 23.3,-18.7 5,-6.9 14.5,5.3 3.7,7 -4.3,0.7 -11.6,5.4 -14.7,12.8 -4.5,11.1 -2.6,19.3 -10.2,24.1 z m -89.8,-28.2 c -4,-1.8 -8.2,-8.6 -9.8,-11.3 4.5,-4.4 2.7,-11.7 0.1,-15.7 -2.5,-4 -5.6,-2.9 -8.9,-6.6 -3.4,-3.7 1.3,-13.3 5.6,-5.9 16.1,27.7 26.7,16.2 39.8,14.5 12.6,-1.6 23.8,5.3 27.2,-14.2 0.6,-3.2 3.7,-3.9 4,1.3 0.3,5.3 2.3,18.1 9.2,19.7 6.9,1.7 12.5,-1.6 14.1,-3.4 1.6,-1.8 2.5,-1.6 3.2,3 0.7,4.5 2.5,10.8 12.2,3.8 19.9,-14.2 14.2,-19.7 22,-23.4 4.4,-2.1 11.4,4.7 1.3,9.8 -14.4,7.3 -15.9,16.3 -25,22 -15.3,9.6 -10.6,0.4 -35.2,-3.1 -9.5,-1.3 -12.5,9.2 -19.9,6.2 -16.9,-7 -28.8,-5.6 -39.9,3.3 z m 53.3,-51.3 c 0.6,4.2 1.3,4.1 2.8,4.4 1.5,0.4 3.4,-2 3.4,-4.2 0.1,-2.3 -1,-3.7 -3.2,-3.6 -2.3,0.1 -3.1,1.2 -3,3.4 z m 74,7.5 c 1.8,1.7 6.6,0.6 7.7,-0.7 2.9,-3.2 3,-5.1 1.5,-7.3 -1.5,-2.1 -4.6,-1.8 -7.7,0.5 -3.1,2.3 -2.5,6.6 -1.5,7.5 z m -1.3,21.2 c -1.5,2 -1.6,3.5 -0.5,4.6 1.2,1.2 3.6,2.2 5.3,0.9 1.7,-1.4 1.7,-3.4 0.3,-5.1 -1.5,-1.8 -3.5,-1.8 -5.1,-0.4 z M 83.7,54.3 C 86,55 87.1,57.2 89,54.7 90,53.5 90.1,51.8 88.8,50 88,48.9 84.2,48.1 82.6,49.7 81,51.3 82.5,53.9 83.7,54.3 Z M 36.8,52.9 c 4.2,2.6 6.9,6.5 10.1,3 1.1,-1.2 2.4,-3.3 0.1,-7.5 -1.7,-3.1 -7.2,-4.3 -9.1,-3.1 -2,1.1 -4.4,5.6 -1.1,7.6 z m 38.7,19.9 c 1.3,1.4 3.6,1.3 5,0.5 1.3,-0.8 1.1,-2.9 -0.2,-4.7 -0.8,-1.1 -3.2,-1.7 -4.8,0 -1.6,1.7 -0.9,3.2 0,4.2 z"
   id="path4" />
</g>
</svg>
