<?xml version="1.0" encoding="UTF-8" standalone="no"?>
<!-- Created with Inkscape (http://www.inkscape.org/) -->

<svg
   version="1.1"
   id="svg2"
   xml:space="preserve"
   width="3351.387"
   height="885.9361"
   viewBox="0 0 3351.3869 885.9361"
   sodipodi:docname="Rezilion_Logo.svg"
   inkscape:version="1.1.1 (3bf5ae0d25, 2021-09-20)"
   xmlns:inkscape="http://www.inkscape.org/namespaces/inkscape"
   xmlns:sodipodi="http://sodipodi.sourceforge.net/DTD/sodipodi-0.dtd"
   xmlns="http://www.w3.org/2000/svg"
   xmlns:svg="http://www.w3.org/2000/svg"><defs
     id="defs6"><clipPath
       clipPathUnits="userSpaceOnUse"
       id="clipPath16"><path
         d="M 0,1116 H 2984 V 0 H 0 Z"
         id="path14" /></clipPath></defs><sodipodi:namedview
     id="namedview4"
     pagecolor="#ffffff"
     bordercolor="#666666"
     borderopacity="1.0"
     inkscape:pageshadow="2"
     inkscape:pageopacity="0.0"
     inkscape:pagecheckerboard="0"
     showgrid="false"
     fit-margin-top="0"
     fit-margin-left="0"
     fit-margin-right="0"
     fit-margin-bottom="0"
     inkscape:zoom="0.27949061"
     inkscape:cx="1747.8226"
     inkscape:cy="404.30696"
     inkscape:window-width="1920"
     inkscape:window-height="1010"
     inkscape:window-x="-6"
     inkscape:window-y="-6"
     inkscape:window-maximized="1"
     inkscape:current-layer="g8" /><g
     id="g8"
     inkscape:groupmode="layer"
     inkscape:label="Rezilion Logo AI"
     transform="matrix(1.3333333,0,0,-1.3333333,-244.41773,1148.3641)"><g
       id="g10"><g
         id="g12"
         clip-path="url(#clipPath16)"><g
           id="g18"
           transform="translate(468.8374,464.0074)"><path
             d="m 0,0 c -79.683,-14.055 -112.611,-110.018 -59.09,-170.07 l 5.128,-5.35 c 30.284,-31.322 63.032,-60.246 97.931,-86.466 h 0.158 c 31.62,23.76 61.477,49.74 89.338,77.708 C 79.012,-172.347 27.868,-147.197 -14.5,-111.63 -53.488,-78.9 -43.459,-19.709 0,0"
             style="fill:#4664b9;fill-opacity:1;fill-rule:evenodd;stroke:none"
             id="path20" /></g><g
           id="g22"
           transform="translate(524.2073,463.7275)"><path
             d="m 0,0 c 38.411,-17.882 50.752,-67.59 23.745,-101.407 -12.258,-15.351 -30.65,-24.274 -49.847,-24.838 32.372,0.248 63.231,6.862 91.382,18.655 30.73,12.872 58.239,29.314 72.939,60.831 22.493,48.231 3.082,105.253 -43.283,130.043 l -428.2,201.615 c 6.751,-49.359 17.872,-97.328 32.956,-143.502 z"
             style="fill:#86d5b4;fill-opacity:1;fill-rule:evenodd;stroke:none"
             id="path24" /></g><g
           id="g26"
           transform="translate(624.027,827.4153)"><path
             d="m 0,0 c 0.801,-10.384 4.04,-20.442 9.408,-29.322 l 1.218,-1.939 c 6.506,-9.972 15.774,-18.309 27.339,-23.735 -3.96,-2.14 -7.68,-4.754 -11.07,-7.799 -5.594,-5.024 -10.284,-11.232 -13.663,-18.475 -13.429,-28.794 -0.973,-63.014 27.821,-76.44 l 24.335,-11.458 0.305,-0.148 c 17.3,-8.186 32.116,-19.874 43.879,-33.929 -0.944,4.995 -2.042,9.935 -3.289,14.819 -2.344,9.189 -5.217,18.163 -8.581,26.895 -0.676,1.451 -1.257,2.923 -1.746,4.406 l -0.933,2.255 0.226,0.137 c -2.309,8.836 -1.444,17.99 2.072,26.018 3.745,8.564 10.506,15.854 19.641,20.108 1.95,0.909 3.928,1.645 5.929,2.22 18.496,5.289 38.611,-3.494 46.999,-21.481 2.155,-4.621 3.344,-9.443 3.656,-14.24 2.194,2.725 4.097,5.756 5.641,9.067 10.248,21.979 0.869,48.073 -20.938,58.533 l -0.581,0.272 -0.123,0.062 -53.157,25.024 -65.475,30.834 -0.384,0.179 C 18.062,-8.409 6.079,12.026 6.158,33.326 L 6.032,33.06 C 1.041,22.357 -0.844,10.995 0,0"
             style="fill:#4664b9;fill-opacity:1;fill-rule:evenodd;stroke:none"
             id="path28" /></g><g
           id="g30"
           transform="translate(186.7133,785.8851)"><path
             d="M 0,0 156.693,-73.777 446.76,-210.355 c 39.966,-20.065 66.294,-62.307 69.799,-106.05 15.957,16.011 26.101,37.268 28.481,59.776 4.309,40.722 -17.02,81.47 -55.915,100.114 l -1.275,0.599 L -3.4,75.388 C -3.4,49.976 -2.251,24.827 0,0"
             style="fill:#4664b9;fill-opacity:1;fill-rule:evenodd;stroke:none"
             id="path32" /></g><g
           id="g34"
           transform="translate(1085.9874,489.4699)"><path
             d="M 0,0 C 8.826,-5.946 16.795,-12.701 23.893,-20.27 15.121,-32.393 7.752,-45.481 1.799,-59.413 c -3.325,-7.789 -6.1,-15.732 -8.341,-23.793 -3.882,8.636 -9.164,16.209 -15.682,22.73 -6.882,6.88 -14.851,12.291 -23.996,16.223 -9.046,3.932 -18.78,5.9 -29.006,5.9 -10.231,0 -20.062,-1.968 -29.305,-5.9 -9.343,-3.932 -17.308,-9.343 -23.993,-16.223 -6.69,-6.887 -12.098,-14.949 -16.029,-24.191 -3.936,-9.247 -5.904,-18.981 -5.904,-29.211 v -113.282 -64.311 h -60.77 v 177.593 136.299 h 60.77 L -149.965,0 c 10.625,7.077 22.324,12.586 35.11,16.521 12.78,3.931 26.059,5.9 39.823,5.9 13.767,0 27.142,-1.969 39.929,-5.9 C -22.323,12.586 -10.618,7.077 0,0"
             style="fill:#4664b9;fill-opacity:1;fill-rule:evenodd;stroke:none"
             id="path36" /></g><g
           id="g38"
           transform="translate(1262.3453,447.5797)"><path
             d="m 0,0 c -19.276,0 -36.482,-4.916 -51.629,-14.848 -15.142,-9.936 -26.65,-23.11 -34.513,-39.434 H 51.33 86.142 c -1.968,3.146 -3.834,6.195 -5.608,9.34 -1.767,3.149 -3.634,6 -5.602,8.754 C 65.887,-24.88 54.87,-16.03 41.89,-9.637 28.909,-3.242 14.944,0 0,0 M 25.369,-115.052 H -93.224 c 2.359,-10.622 6.392,-20.553 12.094,-29.8 5.705,-9.242 12.686,-17.211 20.945,-23.893 8.262,-6.686 17.505,-11.9 27.734,-15.634 10.224,-3.742 21.042,-5.609 32.451,-5.609 13.767,0 26.651,2.754 38.647,8.259 11.997,5.508 22.518,13.178 31.567,23.013 h 11.207 60.185 c -2.363,-5.9 -5.214,-11.505 -8.557,-16.819 -3.343,-5.307 -6.981,-10.521 -10.916,-15.634 -14.159,-18.094 -31.861,-32.547 -53.101,-43.366 C 47.793,-245.351 24.78,-250.758 0,-250.758 c -21.635,0 -41.894,4.028 -60.774,12.094 -18.88,8.065 -35.402,19.174 -49.56,33.336 -14.162,14.159 -25.275,30.68 -33.337,49.564 -8.061,18.88 -12.097,39.135 -12.097,60.77 0,21.635 4.036,41.893 12.097,60.77 8.062,18.884 19.175,35.405 33.337,49.564 14.158,14.158 30.68,25.275 49.56,33.336 18.88,8.062 39.139,12.094 60.774,12.094 24.78,0 47.793,-5.407 69.032,-16.226 21.24,-10.816 38.942,-25.47 53.101,-43.955 12.981,-15.732 22.42,-34.224 28.32,-55.463 3.541,-12.586 5.311,-25.962 5.311,-40.12 0,-7.081 -0.588,-13.767 -1.77,-20.058 H 92.631 Z"
             style="fill:#4664b9;fill-opacity:1;fill-rule:evenodd;stroke:none"
             id="path40" /></g><g
           id="g42"
           transform="translate(2236.1243,258.1808)"><path
             d="m 0,0 c 12.981,0 25.175,2.459 36.781,7.376 11.504,4.915 21.634,11.702 30.288,20.359 8.65,8.65 15.339,18.779 20.255,30.385 4.916,11.602 7.376,23.897 7.376,36.874 0,12.98 -2.46,25.275 -7.376,36.877 -4.916,11.602 -11.605,21.731 -20.255,30.389 -8.654,8.653 -18.784,15.436 -30.288,20.352 -11.606,4.919 -23.8,7.376 -36.781,7.376 -12.977,0 -25.171,-2.457 -36.776,-7.376 -11.506,-4.916 -21.635,-11.699 -30.289,-20.352 -8.654,-8.658 -15.437,-18.787 -20.554,-30.389 -5.112,-11.602 -7.669,-23.897 -7.669,-36.877 0,-12.977 2.557,-25.272 7.669,-36.874 5.117,-11.606 11.9,-21.735 20.554,-30.385 8.654,-8.657 18.783,-15.444 30.289,-20.359 C -25.171,2.459 -12.977,0 0,0 m -0.294,250.758 c 21.633,0 41.893,-4.029 60.769,-12.093 18.885,-8.062 35.406,-19.175 49.564,-33.337 14.163,-14.159 25.272,-30.68 33.337,-49.564 8.065,-18.876 12.094,-39.132 12.094,-60.77 0,-21.631 -4.029,-41.894 -12.094,-60.771 C 135.311,15.339 124.202,-1.182 110.039,-15.34 95.881,-29.499 79.36,-40.612 60.475,-48.677 41.599,-56.738 21.339,-60.77 -0.294,-60.77 c -21.634,0 -41.894,4.032 -60.77,12.093 -18.885,8.065 -35.406,19.178 -49.564,33.337 -14.159,14.158 -25.272,30.679 -33.337,49.563 -8.062,18.877 -12.094,39.14 -12.094,60.771 0,21.638 4.032,41.894 12.094,60.77 8.065,18.884 19.178,35.405 33.337,49.564 14.158,14.162 30.679,25.275 49.564,33.337 18.876,8.064 39.136,12.093 60.77,12.093"
             style="fill:#4664b9;fill-opacity:1;fill-rule:evenodd;stroke:none"
             id="path44" /></g><g
           id="g46"
           transform="translate(2636.0835,488.292)"><path
             d="M 0,0 C 18.683,-12.589 33.534,-28.813 44.447,-48.677 55.366,-68.544 60.77,-90.276 60.77,-113.878 V -291.471 H 0 v 64.311 113.282 c 0,10.23 -1.964,19.968 -5.9,29.211 -3.935,9.242 -9.44,17.304 -16.324,24.191 -6.883,6.88 -14.851,12.291 -23.996,16.223 -9.046,3.932 -18.78,5.9 -29.007,5.9 -10.231,0 -20.062,-1.968 -29.304,-5.9 -9.343,-3.932 -17.308,-9.343 -23.995,-16.223 -6.688,-6.887 -12.097,-14.949 -16.029,-24.191 -3.935,-9.243 -5.902,-18.981 -5.902,-29.211 v -113.282 -64.311 h -60.771 v 177.593 136.299 h 60.771 L -149.965,0 c 10.624,7.077 22.324,12.586 35.107,16.521 12.783,3.932 26.058,5.9 39.825,5.9 13.767,0 27.143,-1.968 39.929,-5.9 C -22.324,12.586 -10.619,7.077 0,0"
             style="fill:#4664b9;fill-opacity:1;fill-rule:evenodd;stroke:none"
             id="path48" /></g><path
           d="m 1986.034,508.939 h 60.771 V 196.821 h -60.771 z"
           style="fill:#4664b9;fill-opacity:1;fill-rule:evenodd;stroke:none"
           id="path50" /><path
           d="m 1863.901,601.577 h 60.77 V 196.821 h -60.77 z"
           style="fill:#4664b9;fill-opacity:1;fill-rule:evenodd;stroke:none"
           id="path52" /><path
           d="m 1741.765,508.939 h 60.77 V 196.821 h -60.77 z"
           style="fill:#4664b9;fill-opacity:1;fill-rule:evenodd;stroke:none"
           id="path54" /><g
           id="g56"
           transform="translate(1692.0356,508.3501)"><path
             d="M 0,0 -37.168,-60.085 -153.994,-250.759 H 0 v -60.77 h -191.166 -70.803 l 37.176,60.081 116.822,190.678 H -261.969 V 0.589 H -70.799 0 Z"
             style="fill:#4664b9;fill-opacity:1;fill-rule:evenodd;stroke:none"
             id="path58" /></g><g
           id="g60"
           transform="translate(1802.5342,601.5736)"><path
             d="M 0,0 H -60.77 L 0,-60.767 Z"
             style="fill:#86d5b4;fill-opacity:1;fill-rule:evenodd;stroke:none"
             id="path62" /></g><g
           id="g64"
           transform="translate(2046.8043,601.5736)"><path
             d="M 0,0 H -60.771 L 0,-60.767 Z"
             style="fill:#86d5b4;fill-opacity:1;fill-rule:evenodd;stroke:none"
             id="path66" /></g></g></g></g></svg>
