<?xml version="1.0" encoding="UTF-8" standalone="no"?>
<svg
   id="Layer_1"
   data-name="Layer 1"
   viewBox="0 0 500.00003 158.23488"
   version="1.1"
   sodipodi:docname="Styra.svg"
   width="500.00003"
   height="158.23488"
   inkscape:version="1.1.1 (3bf5ae0d25, 2021-09-20)"
   xmlns:inkscape="http://www.inkscape.org/namespaces/inkscape"
   xmlns:sodipodi="http://sodipodi.sourceforge.net/DTD/sodipodi-0.dtd"
   xmlns="http://www.w3.org/2000/svg"
   xmlns:svg="http://www.w3.org/2000/svg"
   xmlns:rdf="http://www.w3.org/1999/02/22-rdf-syntax-ns#"
   xmlns:cc="http://creativecommons.org/ns#"
   xmlns:dc="http://purl.org/dc/elements/1.1/">
  <sodipodi:namedview
     id="namedview16"
     pagecolor="#ffffff"
     bordercolor="#666666"
     borderopacity="1.0"
     inkscape:pageshadow="2"
     inkscape:pageopacity="0.0"
     inkscape:pagecheckerboard="0"
     showgrid="false"
     fit-margin-top="0"
     fit-margin-left="0"
     fit-margin-right="0"
     fit-margin-bottom="0"
     inkscape:zoom="2.645"
     inkscape:cx="193.38374"
     inkscape:cy="60.491493"
     inkscape:window-width="1920"
     inkscape:window-height="1010"
     inkscape:window-x="-6"
     inkscape:window-y="-6"
     inkscape:window-maximized="1"
     inkscape:current-layer="Layer_1" />
  <defs
     id="defs7">
    <style
       id="style2">.cls-1{fill:none}.cls-2{clip-path:url(#clip-path)}.cls-3{fill:#25b7e0}</style>
    <clipPath
       id="clip-path">
      <path
         class="cls-1"
         d="M -23.328,32.1 H 425.243 V 214.72 H -23.328 Z"
         id="path4" />
    </clipPath>
  </defs>
  <title
     id="title9">styra</title>
  <g
     class="cls-2"
     clip-path="url(#clip-path)"
     id="g13"
     transform="matrix(1.2874254,0,0,1.2874254,-8.4030256,-79.762441)">
    <path
       class="cls-3"
       d="m 276.694,143.22 c -2.807,4.732 -9.245,6.708 -15.18,6.708 a 20.462,20.462 0 0 1 -14.503,-5.574 c -4.214,-4.15 -6.436,-10.428 -6.426,-18.159 l 0.025,-18.75 a 5.057,5.057 0 0 1 5.05,-5.044 h 0.007 a 5.05,5.05 0 0 1 5.043,5.058 l -0.024,18.75 c -0.006,4.663 1.193,8.295 3.565,10.796 2.233,2.354 5.494,3.6 9.453,3.606 8.014,0 13,-5.506 13.01,-14.368 l 0.026,-18.75 a 5.0510042,5.0510042 0 0 1 10.102,0.013 l -0.054,40.88 c -0.01,7.713 -2.282,13.603 -6.756,17.508 -3.96,3.457 -9.677,5.284 -16.585,5.284 -8.002,-0.01 -14.375,-2.622 -18.43,-7.553 a 4.47,4.47 0 0 1 -0.584,-4.854 4.67,4.67 0 0 1 4.257,-2.708 4.563,4.563 0 0 1 3.713,1.853 c 2.278,3.173 5.894,4.72 11.088,4.726 8.743,0 13.182,-4.702 13.194,-13.975 l 0.008,-4.648 v -0.774 z m 42.366,-42.383 h 0.022 l 0.022,0.387 c 10.479,0.013 17.443,5.11 19.609,14.35 a 5.008,5.008 0 0 1 -0.952,4.277 4.94,4.94 0 0 1 -3.893,1.882 h -0.107 a 5.08,5.08 0 0 1 -4.852,-3.854 c -1.245,-4.723 -4.733,-7.33 -9.84,-7.335 -6.77,0 -10.353,3.954 -10.362,11.434 l -0.03,22.275 a 5.0510049,5.0510049 0 0 1 -10.102,-0.014 l 0.03,-22.274 c 0.016,-13.181 7.472,-20.74 20.455,-20.741 z m -113.913,0.737 v 0.775 h 0.774 l 19.682,0.026 a 4.513,4.513 0 0 1 -0.012,9.025 l -19.682,-0.026 h -0.774 l -0.002,0.774 -0.025,19.192 c -0.004,3.199 0.897,5.795 2.608,7.507 a 8.174,8.174 0 0 0 5.942,2.293 c 0.122,0 0.244,-0.003 0.353,-0.006 5.793,-0.09 7.88,-3.494 8.611,-6.334 a 5.148,5.148 0 0 1 4.929,-3.937 5.067,5.067 0 0 1 4.943,6.134 c -1.845,8.677 -8.404,13.455 -18.508,13.455 -5.76,-0.008 -10.517,-1.637 -13.756,-4.713 -3.474,-3.298 -5.23,-8.148 -5.223,-14.413 l 0.054,-45.365 a 5.058,5.058 0 0 1 5.05,-5.045 h 0.007 a 5.057,5.057 0 0 1 5.044,5.056 z m -39.055,-0.936 0.02,10e-4 0.02,0.386 c 6.31,0.009 11.615,2.017 14.939,5.654 a 4.69,4.69 0 0 1 0.83,5.118 4.746,4.746 0 0 1 -4.398,2.871 H 177 a 4.014,4.014 0 0 1 -3.303,-1.885 c -1.362,-2.01 -3.982,-3.12 -7.402,-3.125 -4.103,0 -8.49,1.667 -8.496,6.345 -0.005,4.045 4.775,4.72 10.31,5.503 8.243,1.165 17.586,2.485 17.571,13.824 -0.012,9.008 -7.837,15.06 -19.514,15.06 -6.983,-0.008 -12.73,-2.184 -16.185,-6.123 a 4.772,4.772 0 0 1 3.6,-7.911 4.76,4.76 0 0 1 4.044,2.066 c 0.958,1.518 3.185,3.329 8.39,3.335 8.227,0 9.46,-4.035 9.464,-6.44 0.005,-4.027 -4.724,-4.64 -10.2,-5.35 -8.295,-1.073 -17.695,-2.29 -17.68,-13.977 0.012,-8.95 7.444,-14.965 18.493,-14.965 z m 214.599,14.324 a 15.723,15.723 0 0 1 4.106,11.032 c -0.011,9.034 -6.168,15.344 -14.969,15.344 h -0.024 c -8.873,-0.012 -15.062,-6.338 -15.05,-15.383 0.011,-9.035 6.207,-15.344 15.065,-15.344 a 14.652,14.652 0 0 1 10.872,4.35 m 5.068,26.47 -0.001,0.774 -0.005,2.639 a 4.5610039,4.5610039 0 1 0 9.122,0.012 l 0.024,-18.459 c 0.01,-7.393 -2.39,-13.693 -6.943,-18.221 -4.52,-4.495 -10.779,-6.876 -18.1,-6.886 l -0.02,-0.385 -0.021,-0.001 v 0.387 c -14.619,0 -25.243,10.368 -25.26,24.65 -0.01,7.666 2.528,14.097 7.342,18.597 a 23.284,23.284 0 0 0 15.741,6.115 c 7.668,0 15.485,-3.093 18.12,-9.222 M 101.004,124.293 c 1.48,3.897 2.294,14.246 2.294,18.663 0,19.505 -0.548,3.711 -35.316,3.711 -34.117,0 -35.316,15.794 -35.316,-3.711 0,-4.417 0.812,-14.766 2.293,-18.663 -8.731,-6.62 -15.723,-17.336 -5.16,-32.729 1.221,-1.78 3.815,-0.463 3.367,1.702 -1.248,6.02 -0.644,15.01 9.585,18.858 a 35.308,35.308 0 0 1 50.461,0 c 10.23,-3.848 10.833,-12.838 9.586,-18.858 -0.449,-2.165 2.146,-3.481 3.367,-1.702 10.563,15.393 3.57,26.108 -5.16,32.73 M 67.981,61.955 a 61.454,61.454 0 1 0 61.454,61.454 61.454,61.454 0 0 0 -61.454,-61.454"
       id="path11" />
  </g>
  <metadata
     id="metadata833">
    <rdf:RDF>
      <cc:Work
         rdf:about="">
        <dc:title>styra</dc:title>
      </cc:Work>
    </rdf:RDF>
  </metadata>
</svg>
