<?xml version="1.0" encoding="UTF-8" standalone="no"?>
<svg
   enable-background="new 0 0 244.7 109.7"
   viewBox="0 0 1271.7634 500.00001"
   version="1.1"
   id="svg38"
   sodipodi:docname="puppet-logo-perforce-dark.svg"
   width="1271.7634"
   height="500"
   inkscape:version="1.1.1 (3bf5ae0d25, 2021-09-20)"
   xmlns:inkscape="http://www.inkscape.org/namespaces/inkscape"
   xmlns:sodipodi="http://sodipodi.sourceforge.net/DTD/sodipodi-0.dtd"
   xmlns="http://www.w3.org/2000/svg"
   xmlns:svg="http://www.w3.org/2000/svg">
  <defs
     id="defs42" />
  <sodipodi:namedview
     id="namedview40"
     pagecolor="#ffffff"
     bordercolor="#666666"
     borderopacity="1.0"
     inkscape:pageshadow="2"
     inkscape:pageopacity="0.0"
     inkscape:pagecheckerboard="0"
     showgrid="false"
     fit-margin-top="0"
     fit-margin-left="0"
     fit-margin-right="0"
     fit-margin-bottom="0"
     inkscape:zoom="6.7102575"
     inkscape:cx="114.52616"
     inkscape:cy="46.048903"
     inkscape:window-width="3840"
     inkscape:window-height="2036"
     inkscape:window-x="-12"
     inkscape:window-y="-12"
     inkscape:window-maximized="1"
     inkscape:current-layer="svg38" />
  <g
     id="g62"
     transform="matrix(5.5803571,0,0,5.5803571,-44.084821,-49.107142)"
     style="stroke-width:0.1792">
    <path
       d="M 65.6,85.6 H 58.1 C 58,85.6 58,85.5 58,85.5 V 47.3 c 0,-0.1 0.1,-0.1 0.1,-0.1 h 7.5 c 0.1,0 0.1,0.1 0.1,0.1 v 2.2 c 1.3,-1.5 4,-2.9 7,-2.9 8.2,0 12.8,6.8 12.8,14.7 0,7.9 -4.6,14.6 -12.8,14.6 -2.8,0 -5.4,-1.3 -6.8,-2.7 -0.1,-0.1 -0.2,0 -0.2,0.1 v 12.2 c 0,0 -0.1,0.1 -0.1,0.1 z m 0.1,-19.8 c 1,2 3,3.3 5.3,3.3 4.2,0 6.7,-3.4 6.7,-7.8 0,-4.5 -2.5,-7.9 -6.7,-7.9 -2.3,0 -4.3,1.4 -5.3,3.2 v 0.1 z"
       fill="#222222"
       id="path2"
       style="stroke-width:0.0321126" />
    <path
       d="m 113.7,75.2 h -7.5 c -0.1,0 -0.1,-0.1 -0.1,-0.1 V 73 c 0,-0.1 -0.2,-0.2 -0.2,-0.1 -1.6,1.6 -4.2,2.9 -7.3,2.9 -6.3,0 -9.9,-4.1 -9.9,-10.4 V 47.3 c 0,-0.1 0.1,-0.1 0.1,-0.1 h 7.5 c 0.1,0 0.1,0.1 0.1,0.1 v 16.6 c 0,2.9 1.4,5 4.5,5 2.4,0 4.4,-1.4 5,-3.9 V 47.3 c 0,-0.1 0.1,-0.1 0.1,-0.1 h 7.6 c 0.1,0 0.1,0.1 0.1,0.1 v 27.8 c 0.1,0 0.1,0.1 0,0.1 z"
       fill="#222222"
       id="path4"
       style="stroke-width:0.0321126" />
    <path
       d="m 126.7,85.6 h -7.5 c -0.1,0 -0.1,-0.1 -0.1,-0.1 V 47.3 c 0,-0.1 0.1,-0.1 0.1,-0.1 h 7.5 c 0.1,0 0.1,0.1 0.1,0.1 v 2.2 c 1.3,-1.5 4,-2.9 7,-2.9 8.2,0 12.8,6.8 12.8,14.7 0,7.9 -4.6,14.6 -12.8,14.6 -2.8,0 -5.4,-1.3 -6.8,-2.7 -0.1,-0.1 -0.2,0 -0.2,0.1 v 12.2 c 0,0 -0.1,0.1 -0.1,0.1 z m 0.1,-19.8 c 1,2 3,3.3 5.3,3.3 4.2,0 6.7,-3.4 6.7,-7.8 0,-4.5 -2.5,-7.9 -6.7,-7.9 -2.3,0 -4.3,1.4 -5.3,3.2 v 0.1 z"
       fill="#222222"
       id="path6"
       style="stroke-width:0.0321126" />
    <path
       d="m 157.7,85.6 h -7.5 c -0.1,0 -0.1,-0.1 -0.1,-0.1 V 47.3 c 0,-0.1 0.1,-0.1 0.1,-0.1 h 7.5 c 0.1,0 0.1,0.1 0.1,0.1 v 2.2 c 1.3,-1.5 4,-2.9 7,-2.9 8.2,0 12.8,6.8 12.8,14.7 0,7.9 -4.6,14.6 -12.8,14.6 -2.8,0 -5.4,-1.3 -6.8,-2.7 -0.1,-0.1 -0.2,0 -0.2,0.1 v 12.2 c 0.1,0 0,0.1 -0.1,0.1 z m 0.2,-19.8 c 1,2 3,3.3 5.3,3.3 4.2,0 6.7,-3.4 6.7,-7.8 0,-4.5 -2.5,-7.9 -6.7,-7.9 -2.3,0 -4.3,1.4 -5.3,3.2 v 0.1 z"
       fill="#222222"
       id="path8"
       style="stroke-width:0.0321126" />
    <path
       d="m 205.5,66 c 0.1,0 0.2,0.1 0.1,0.2 -1.1,5.9 -5.4,9.6 -12.4,9.6 -8.2,0 -13.6,-6 -13.6,-14.6 0,-7.4 4.3,-13 10.5,-14.4 8.1,-1.7 15.7,4.8 15.7,13.1 v 2.7 c 0,0.1 -0.1,0.1 -0.1,0.1 h -18.4 c -0.1,0 -0.2,0.1 -0.1,0.2 0.3,4.1 2.7,6.6 6.1,6.6 2.6,0 4.5,-1.1 5.2,-3.4 0,-0.1 0.1,-0.1 0.1,-0.1 z m -18,-7.9 H 198 c 0.1,0 0.2,-0.1 0.1,-0.2 -0.1,-2.9 -1.9,-5.1 -5,-5.1 -3,0 -5.1,1.8 -5.8,5.1 0.1,0.1 0.1,0.2 0.2,0.2 z"
       fill="#222222"
       id="path10"
       style="stroke-width:0.0321126" />
    <path
       d="m 210.9,53.4 h -4 c -0.1,0 -0.1,-0.1 -0.1,-0.1 v -6 c 0,-0.1 0.1,-0.1 0.1,-0.1 h 4 c 0.1,0 0.1,-0.1 0.1,-0.1 v -7.3 c 0,-0.1 0.1,-0.1 0.1,-0.1 h 7.4 c 0.1,0 0.1,0.1 0.1,0.1 V 47 c 0,0.1 0.1,0.1 0.1,0.1 h 5.9 c 0.1,0 0.1,0.1 0.1,0.1 v 6 c 0,0.1 -0.1,0.1 -0.1,0.1 h -5.9 c -0.1,0 -0.1,0.1 -0.1,0.1 v 12.2 c 0,2.2 1.2,3.2 3.2,3.2 1.1,0 2.3,-0.3 3.2,-0.8 0.1,-0.1 0.2,0 0.2,0.1 v 6.6 c 0,0.1 0,0.1 -0.1,0.1 -1.1,0.5 -2.9,0.8 -4.9,0.8 -5.7,0 -9.3,-2.8 -9.3,-9 v -13 c 0.1,-0.1 0,-0.2 0,-0.2 z"
       fill="#222222"
       id="path12"
       style="stroke-width:0.0321126" />
    <path
       d="M 46.2,47 V 29.6 c 0,-0.1 -0.1,-0.1 -0.1,-0.1 H 32.7 L 25.5,22.3 V 22.2 8.9 C 25.5,8.8 25.4,8.8 25.4,8.8 H 8 C 7.9,8.8 7.9,8.9 7.9,8.9 v 17.4 c 0,0.1 0.1,0.1 0.1,0.1 h 13.3 0.1 l 7.2,7.2 V 43 l -7.2,7.2 H 21.3 8 c -0.1,0 -0.1,0.1 -0.1,0.1 v 17.4 c 0,0.1 0.1,0.1 0.1,0.1 h 17.4 c 0.1,0 0.1,-0.1 0.1,-0.1 V 54.4 54.3 l 7.2,-7.2 h 0.1 13.3 c 0,0 0.1,0 0.1,-0.1 z M 13.9,14.6 h 5.6 c 0.1,0 0.1,0.1 0.1,0.1 v 5.6 c 0,0.1 -0.1,0.1 -0.1,0.1 h -5.6 c -0.1,0 -0.1,-0.1 -0.1,-0.1 v -5.6 c -0.1,0 0,-0.1 0.1,-0.1 z M 19.4,62 h -5.6 c -0.1,0 -0.1,-0.1 -0.1,-0.1 v -5.6 c 0,-0.1 0.1,-0.1 0.1,-0.1 h 5.6 c 0.1,0 0.1,0.1 0.1,0.1 v 5.6 c 0.1,0 0,0.1 -0.1,0.1 z"
       fill="#ffaa1a"
       id="path14"
       style="stroke-width:0.0321126" />
    <g
       fill="#222222"
       id="g36"
       style="stroke-width:0.0321126">
      <path
         d="m 167,95.6 h -1.2 V 85 h 1.2 v 4.2 c 0.4,-0.5 1.1,-1 2,-1 2.1,0 3.3,1.7 3.3,3.8 0,2.1 -1.1,3.8 -3.3,3.8 -0.9,0 -1.7,-0.5 -2,-1 z m 0,-2.1 c 0.4,0.8 1.1,1.2 1.9,1.2 1.4,0 2.2,-1.1 2.2,-2.7 0,-1.5 -0.8,-2.7 -2.2,-2.7 -0.8,0 -1.5,0.4 -1.9,1.2 z"
         id="path16"
         style="stroke-width:0.1792" />
      <path
         d="m 174.7,98.4 1.1,-2.7 -2.8,-7.3 h 1.3 l 2.1,5.7 2.1,-5.7 h 1.3 l -3.9,10 z"
         id="path18"
         style="stroke-width:0.1792" />
      <path
         d="m 186.1,91.6 v 4 h -1.3 v -10 h 3.8 c 2,0 3.3,1 3.3,3 0,2 -1.3,3 -3.3,3 z m 2.4,-4.9 h -2.4 v 3.7 h 2.4 c 1.4,0 2.1,-0.7 2.1,-1.9 -0.1,-1 -0.8,-1.8 -2.1,-1.8 z"
         id="path20"
         style="stroke-width:0.1792" />
      <path
         d="m 198.7,93.5 c -0.3,1.4 -1.3,2.3 -2.9,2.3 -2,0 -3.3,-1.5 -3.3,-3.8 0,-2.2 1.3,-3.8 3.3,-3.8 2,0 3.1,1.5 3.1,3.6 v 0.4 h -5.1 c 0,1.6 0.9,2.5 2.1,2.5 0.9,0 1.6,-0.5 1.8,-1.3 h 1 z m -5,-2.2 h 3.9 c 0,-1.1 -0.6,-2 -1.8,-2 -1.1,0 -1.9,0.7 -2.1,2 z"
         id="path22"
         style="stroke-width:0.1792" />
      <path
         d="m 204.1,89.6 c -0.2,-0.1 -0.5,-0.2 -0.8,-0.2 -0.8,0 -1.4,0.5 -1.7,1.4 v 4.9 h -1.2 v -7.2 h 1.2 v 0.9 c 0.3,-0.6 1,-1.1 1.8,-1.1 0.3,0 0.6,0 0.7,0.1 z"
         id="path24"
         style="stroke-width:0.1792" />
      <path
         d="M 209.2,86.2 C 209,86.1 208.7,86 208.4,86 c -0.7,0 -1.2,0.5 -1.2,1.3 v 1.1 h 1.6 v 1 h -1.6 v 6.2 H 206 v -6.2 h -1.2 v -1 h 1.2 v -1.2 c 0,-1.5 0.9,-2.3 2.2,-2.3 0.4,0 0.7,0 0.9,0.2 v 1.1 z"
         id="path26"
         style="stroke-width:0.1792" />
      <path
         d="m 212.9,95.8 c -2,0 -3.3,-1.6 -3.3,-3.8 0,-2.2 1.3,-3.8 3.3,-3.8 2,0 3.3,1.6 3.3,3.8 0,2.2 -1.4,3.8 -3.3,3.8 z m 0,-6.5 c -1.3,0 -2.1,1.1 -2.1,2.7 0,1.6 0.8,2.7 2.1,2.7 1.3,0 2.1,-1.1 2.1,-2.7 -0.1,-1.6 -0.8,-2.7 -2.1,-2.7 z"
         id="path28"
         style="stroke-width:0.1792" />
      <path
         d="m 221.5,89.6 c -0.2,-0.1 -0.5,-0.2 -0.8,-0.2 -0.8,0 -1.4,0.5 -1.7,1.4 v 4.9 h -1.2 v -7.2 h 1.2 v 0.9 c 0.3,-0.6 1,-1.1 1.8,-1.1 0.3,0 0.6,0 0.7,0.1 z"
         id="path30"
         style="stroke-width:0.1792" />
      <path
         d="m 225.5,88.2 c 1.6,0 2.7,0.9 2.9,2.3 h -1.3 c -0.2,-0.8 -0.8,-1.3 -1.6,-1.3 -1.2,0 -2.1,1.1 -2.1,2.7 0,1.6 0.8,2.7 2.1,2.7 0.9,0 1.5,-0.5 1.6,-1.3 h 1.3 c -0.2,1.4 -1.3,2.3 -2.9,2.3 -1.9,0 -3.3,-1.5 -3.3,-3.8 0,-2 1.3,-3.6 3.3,-3.6 z"
         id="path32"
         style="stroke-width:0.1792" />
      <path
         d="m 235.6,93.5 c -0.3,1.4 -1.3,2.3 -2.9,2.3 -2,0 -3.3,-1.5 -3.3,-3.8 0,-2.2 1.3,-3.8 3.3,-3.8 2,0 3.1,1.5 3.1,3.6 v 0.4 h -5.1 c 0,1.6 0.9,2.5 2.1,2.5 0.9,0 1.6,-0.5 1.8,-1.3 h 1 z m -5,-2.2 h 3.9 c 0,-1.1 -0.6,-2 -1.8,-2 -1.1,0 -1.9,0.7 -2.1,2 z"
         id="path34"
         style="stroke-width:0.1792" />
    </g>
  </g>
</svg>
