<?xml version="1.0" encoding="UTF-8" standalone="no"?>
<!-- Created with Inkscape (http://www.inkscape.org/) -->

<svg
   version="1.1"
   id="svg2"
   xml:space="preserve"
   width="500"
   height="102.91344"
   viewBox="0 0 500.00001 102.91344"
   sodipodi:docname="Tricentis-Logo-Blue_spot.svg"
   inkscape:version="1.1.1 (3bf5ae0d25, 2021-09-20)"
   xmlns:inkscape="http://www.inkscape.org/namespaces/inkscape"
   xmlns:sodipodi="http://sodipodi.sourceforge.net/DTD/sodipodi-0.dtd"
   xmlns="http://www.w3.org/2000/svg"
   xmlns:svg="http://www.w3.org/2000/svg"><defs
     id="defs6" /><sodipodi:namedview
     id="namedview4"
     pagecolor="#ffffff"
     bordercolor="#666666"
     borderopacity="1.0"
     inkscape:pageshadow="2"
     inkscape:pageopacity="0.0"
     inkscape:pagecheckerboard="0"
     showgrid="false"
     fit-margin-top="0"
     fit-margin-left="0"
     fit-margin-right="0"
     fit-margin-bottom="0"
     inkscape:zoom="2.3976845"
     inkscape:cx="175.37754"
     inkscape:cy="36.285008"
     inkscape:window-width="1920"
     inkscape:window-height="1010"
     inkscape:window-x="-6"
     inkscape:window-y="-6"
     inkscape:window-maximized="1"
     inkscape:current-layer="g8" /><g
     id="g8"
     inkscape:groupmode="layer"
     inkscape:label="ink_ext_XXXXXX"
     transform="matrix(1.3333333,0,0,-1.3333333,-55.867196,128.15733)"><g
       id="g10"
       transform="matrix(0.14236167,0,0,0.14236167,-17.749711,-40.717193)"><path
         d="M 1323.13,899.625 H 977.977 V 835.652 H 1116.84 V 482.441 h 67.43 v 353.211 h 138.86 v 63.973"
         style="fill:#214e8d;fill-opacity:1;fill-rule:nonzero;stroke:none"
         id="path12" /><path
         d="m 1335.49,755.168 -6.21,36.137 h -59.92 V 482.441 h 67.44 v 204.43 c 10.19,13.672 24.2,24.59 41.68,32.477 18.52,8.355 38.81,12.586 60.29,12.586 h 12.11 v 65.132 h -12.11 c -41.1,0 -75.77,-14.078 -103.28,-41.898"
         style="fill:#214e8d;fill-opacity:1;fill-rule:nonzero;stroke:none"
         id="path14" /><path
         d="m 1484.41,838.531 h 71.48 v 71.465 h -71.48 v -71.465"
         style="fill:#214e8d;fill-opacity:1;fill-rule:nonzero;stroke:none"
         id="path16" /><path
         d="m 1486.43,482.441 h 67.43 v 308.864 h -67.43 V 482.441"
         style="fill:#214e8d;fill-opacity:1;fill-rule:nonzero;stroke:none"
         id="path18" /><path
         d="m 2335.91,797.066 c -37.06,0 -70.92,-14.371 -100.83,-42.757 l -6.36,36.996 H 2168.8 V 482.441 h 67.44 v 200.754 c 27.46,33.493 56.72,50.469 86.99,50.469 38.13,0 55.88,-19.953 55.88,-62.793 v -188.43 h 67.44 v 194.192 c 0,33.949 -9.91,62.734 -29.46,85.551 -19.85,23.144 -47.16,34.882 -81.18,34.882"
         style="fill:#214e8d;fill-opacity:1;fill-rule:nonzero;stroke:none"
         id="path20" /><path
         d="M 2585.59,865.016 2463.42,745.469 v -14.11 h 54.73 V 560.234 c 0,-54.656 31.68,-83.554 91.62,-83.554 19.56,0 38.18,4.55 55.33,13.535 l 4.03,2.101 v 54.676 h -13.12 l -1.45,-0.644 c -25.67,-11.407 -47.78,-9.832 -60.24,-4.578 -5.79,2.507 -8.73,10.273 -8.73,23.074 v 166.515 h 83.54 v 59.946 h -83.54 v 73.711"
         style="fill:#214e8d;fill-opacity:1;fill-rule:nonzero;stroke:none"
         id="path22" /><path
         d="m 2708.64,838.531 h 71.47 v 71.465 h -71.47 v -71.465"
         style="fill:#214e8d;fill-opacity:1;fill-rule:nonzero;stroke:none"
         id="path24" /><path
         d="m 2710.66,482.441 h 67.44 v 308.864 h -67.44 V 482.441"
         style="fill:#214e8d;fill-opacity:1;fill-rule:nonzero;stroke:none"
         id="path26" /><path
         d="m 3033.84,627.578 c -12.6,14.543 -28.37,24.371 -46.87,29.219 l -51.03,13.398 c -16.37,4.293 -30.57,9.348 -42.22,15.028 -12.55,6.101 -14.01,13.48 -14.01,18.5 0,8.199 4.58,15.004 14.02,20.808 10.45,6.442 27.44,9.707 50.51,9.707 23.45,0 47.88,-5.234 72.58,-15.55 l 1.39,-0.583 h 13.04 v 60.536 l -4.89,1.82 c -29.53,11.019 -61.81,16.605 -95.95,16.605 -35.13,0 -63.44,-9.148 -84.16,-27.195 -21.02,-18.324 -31.67,-42.328 -31.67,-71.344 0,-21.468 6.7,-39.48 19.9,-53.531 12.8,-13.648 28.63,-23.07 47.04,-28.016 l 50.76,-13.609 c 16.23,-4.367 30.25,-9.301 41.65,-14.683 13.51,-6.383 13.51,-12.833 13.51,-14.958 0,-14.441 -5.85,-33.652 -56.46,-33.652 -35.72,0 -68.94,8.957 -98.73,26.613 l -1.77,1.043 h -12.45 v -62.058 l 3.9,-2.141 c 32.47,-17.82 68.88,-26.855 108.19,-26.855 39.84,0 70.53,8.73 91.23,25.937 21.1,17.551 31.79,39.395 31.79,64.934 0,25.066 -6.49,45.262 -19.3,60.027"
         style="fill:#214e8d;fill-opacity:1;fill-rule:nonzero;stroke:none"
         id="path28" /><path
         d="m 2063.7,665.906 h -139.47 l 0.18,1.426 c 1.23,9.125 3.51,18.125 6.76,26.746 3.28,8.742 7.96,16.594 13.91,23.324 5.95,6.758 13.35,12.301 21.99,16.477 8.63,4.176 18.83,6.297 30.32,6.297 11.08,0 20.77,-1.918 28.8,-5.703 8.04,-3.793 14.93,-9.047 20.49,-15.614 5.54,-6.562 9.82,-14.418 12.7,-23.371 2.86,-8.894 4.32,-18.425 4.32,-28.324 z m -66.92,131.16 c -18.38,0 -36.65,-3.437 -54.26,-10.211 -17.62,-6.773 -33.44,-16.976 -47.02,-30.304 -13.61,-13.371 -24.65,-30.352 -32.85,-50.461 -8.21,-20.125 -12.37,-43.906 -12.37,-70.688 0,-22.886 3.25,-44.218 9.66,-63.41 6.4,-19.148 16.33,-36.015 29.52,-50.125 13.18,-14.101 30.22,-25.273 50.63,-33.215 20.44,-7.937 44.84,-11.972 72.51,-11.972 10.83,0 21.62,0.597 32.09,1.758 10.49,1.183 20.39,2.656 29.38,4.398 9.04,1.746 17.19,3.719 24.2,5.848 6.51,1.984 11.79,3.906 15.69,5.711 l -9.31,55.742 c -8.42,-3.34 -19.76,-6.524 -33.74,-9.492 -14.8,-3.133 -31.34,-4.723 -49.19,-4.723 -30.57,0 -54.26,6.922 -70.42,20.582 -16.21,13.703 -25.47,33.277 -27.5,58.211 l -0.11,1.359 h 209.98 c 0.34,3.551 0.61,7.594 0.8,12.031 0.21,5.094 0.3,9.407 0.3,13.18 0,51.563 -12.26,90.856 -36.44,116.774 -24.18,25.882 -58.35,39.007 -101.55,39.007"
         style="fill:#214e8d;fill-opacity:1;fill-rule:nonzero;stroke:none"
         id="path30" /><path
         d="m 1765.84,799.211 c -98.93,0 -176.42,-70.484 -176.42,-160.457 v -1.184 c 0,-88.976 77.2,-158.683 175.76,-158.683 36.13,0 66.73,7.207 93.52,22.023 -0.26,0.223 -0.5,0.449 -0.74,0.676 -1.18,1.062 -2.35,2.137 -3.43,3.289 v 0 c -11.95,12.793 -21.72,27.82 -29.04,44.695 -17.62,-9.433 -36.08,-14.023 -56.38,-14.023 -60.46,0 -106.06,44.371 -106.06,103.207 v 1.18 c 0,57.207 44.86,102.023 102.13,102.023 22.61,0 42.51,-5.211 60.79,-15.934 9.08,20.379 20.61,37.696 34.31,51.504 -26.75,14.582 -57.67,21.684 -94.44,21.684"
         style="fill:#214e8d;fill-opacity:1;fill-rule:nonzero;stroke:none"
         id="path32" /><path
         d="m 486.18,522.188 -67.176,67.175 101.019,101.02 -100.261,100.254 67.179,67.176 L 654.379,690.383 486.18,522.188"
         style="fill:#214e8d;fill-opacity:1;fill-rule:nonzero;stroke:none"
         id="path34" /><path
         d="M 589.363,419.004 522.184,486.172 690.383,654.379 857.816,486.934 790.637,419.766 690.383,520.02 589.363,419.004"
         style="fill:#214e8d;fill-opacity:1;fill-rule:nonzero;stroke:none"
         id="path36" /><path
         d="M 689.801,725.801 522.367,893.238 589.543,960.418 689.801,860.156 790.816,961.18 857.996,894 689.801,725.801"
         style="fill:#214e8d;fill-opacity:1;fill-rule:nonzero;stroke:none"
         id="path38" /></g></g></svg>
