<?xml version="1.0" encoding="UTF-8" standalone="no"?>
<!-- Generator: Adobe Illustrator 19.2.1, SVG Export Plug-In . SVG Version: 6.00 Build 0)  -->

<svg
   version="1.1"
   id="layer"
   x="0px"
   y="0px"
   viewBox="0 0 600 79.5"
   xml:space="preserve"
   sodipodi:docname="Thousandeyes-seeklogo.svg"
   width="600"
   height="79.5"
   inkscape:version="1.1.1 (3bf5ae0d25, 2021-09-20)"
   xmlns:inkscape="http://www.inkscape.org/namespaces/inkscape"
   xmlns:sodipodi="http://sodipodi.sourceforge.net/DTD/sodipodi-0.dtd"
   xmlns="http://www.w3.org/2000/svg"
   xmlns:svg="http://www.w3.org/2000/svg"><defs
   id="defs95" /><sodipodi:namedview
   id="namedview93"
   pagecolor="#ffffff"
   bordercolor="#666666"
   borderopacity="1.0"
   inkscape:pageshadow="2"
   inkscape:pageopacity="0.0"
   inkscape:pagecheckerboard="0"
   showgrid="false"
   fit-margin-top="0"
   fit-margin-left="0"
   fit-margin-right="0"
   fit-margin-bottom="0"
   inkscape:zoom="1.2638037"
   inkscape:cx="305.03155"
   inkscape:cy="65.674757"
   inkscape:window-width="1920"
   inkscape:window-height="1010"
   inkscape:window-x="-6"
   inkscape:window-y="-6"
   inkscape:window-maximized="1"
   inkscape:current-layer="layer" />
<style
   type="text/css"
   id="style2">
	.st0{fill:#F15E22;}
	.st1{fill:#1C303B;}
</style>
<g
   id="g1009"
   transform="translate(-20.5,-260.1)"><g
     id="g36">
	<path
   class="st0"
   d="m 573.5,308 c 5.9,-3.3 13,-7.7 18.8,-15 -5.7,-7.1 -13.7,-11.3 -19.6,-14.5 14.2,-3.1 26.6,10.9 26.6,10.9 l 3.3,3.7 -3.3,3.7 C 586.4,310.7 573.5,308 573.5,308"
   id="path4" />
	<path
   class="st1"
   d="m 574.6,293.2 c 0,3.7 -3,6.7 -6.7,6.7 -3.7,0 -6.7,-3 -6.7,-6.7 0,-3.7 3,-6.7 6.7,-6.7 3.7,0.1 6.7,3.1 6.7,6.7"
   id="path6" />
	<path
   class="st0"
   d="m 544.8,293 c 4.4,5.8 16.7,20 32.4,20 10.8,0 21.5,-6.7 31.9,-20 -10.4,-12.9 -21.2,-19.5 -31.9,-19.5 -15.7,0 -28,13.8 -32.4,19.5 m 32.3,29.1 c -24.7,0 -41.1,-25.6 -41.8,-26.7 l -1.6,-2.5 1.6,-2.5 c 0.7,-1.1 17.2,-26.1 41.8,-26.1 14.5,0 28.4,8.7 41.4,25.8 l 2,2.7 -2,2.7 c -12.9,17.7 -26.8,26.6 -41.4,26.6"
   id="path8" />
	<path
   class="st0"
   d="m 558.3,322.1 c -24,-0.7 -39.5,-25.8 -40.2,-26.9 l -1.3,-2.5 1.5,-2.4 c 0.7,-1 15.9,-25 39.8,-25.9 -18.6,8.5 -31.5,28.8 -31.5,28.8 0,0 10.9,18.1 31.7,28.9"
   id="path10" />
	<path
   class="st0"
   d="m 491.5,311.3 c 1.1,0 4.2,2.3 8.1,2.3 3.5,0 5.1,-1.2 5.1,-3.7 0,-7.3 -16.6,-3 -16.6,-17.8 0,-8.3 5.9,-13.4 15.3,-13.4 2.7,0 12.3,0.6 12.3,5.2 0,1.1 -1.9,6.1 -3.6,6.1 -0.8,0 -3.3,-1.7 -7,-1.7 -2.8,0 -4.5,0.9 -4.5,3 0,6.1 16.6,2.9 16.6,17.7 0,8.7 -6.2,14.4 -15.5,14.4 -7.2,0 -14.5,-1.9 -14.5,-5.9 -0.1,-1.8 2.5,-6.2 4.3,-6.2"
   id="path12" />
	<path
   class="st0"
   d="m 368.7,267.9 c 0,-2.3 1,-3.3 3.3,-3.3 h 30.3 c 1.7,0 2.5,1.2 2.5,4.1 v 2.6 c 0,2.9 -0.7,4.1 -2.5,4.1 h -20.9 v 12 h 18.7 c 1.7,0 2.5,1.2 2.5,4.1 v 2.6 c 0,2.9 -0.7,4.1 -2.5,4.1 h -18.7 v 13.4 h 21 c 1.7,0 2.5,1.2 2.5,4.1 v 2.6 c 0,2.9 -0.7,4.1 -2.5,4.1 H 372 c -2.3,0 -3.3,-1 -3.3,-3.3 z"
   id="path14" />
	<path
   class="st0"
   d="m 407.8,282.4 c -0.2,-0.6 -0.3,-1.1 -0.3,-1.5 0,-1.2 1.6,-1.8 5.1,-1.8 h 2.7 c 2.4,0 4.2,0.4 4.6,1.7 l 4.9,15.3 c 0.6,1.9 1.6,6.5 2.3,10 h 0.3 c 0.7,-3.6 1.7,-8.2 2.3,-10 l 4.9,-15.3 c 0.4,-1.3 2.2,-1.7 4.6,-1.7 h 2 c 3.5,0 5,0.7 5,1.8 0,0.4 -0.1,0.9 -0.2,1.5 l -19,55.5 c -0.5,1.3 -2.2,1.7 -4.6,1.7 H 421 c -3.4,0 -5,-0.7 -5,-1.7 0,-0.4 0.1,-0.9 0.3,-1.5 l 5.2,-13.8 z"
   id="path16" />
	<path
   class="st0"
   d="m 472.7,296.7 c 0,-4.8 -1.8,-8.4 -6,-8.4 -3.5,0 -6.5,2 -7.5,8.4 z m -5.9,-18.1 c 13,0 17.9,9.9 17.9,21.4 0,1.4 -3.2,4.9 -4.2,4.9 h -21.1 c 0.6,6.6 4.1,8.7 9.5,8.7 5.2,0 8.9,-2.6 10,-2.6 1.8,0 4.3,4.6 4.3,6.3 0,4.1 -10.3,6 -14.9,6 -15,0 -21.6,-8.7 -21.6,-22.1 -0.1,-16.3 8.2,-22.6 20.1,-22.6"
   id="path18" />
	<path
   class="st1"
   d="m 347.3,308.4 v -18.5 c -1.3,-0.7 -3.2,-1.6 -5.8,-1.6 -5.2,0 -7.7,4.3 -7.7,12.6 0,8 2.2,12.4 6.7,12.4 3.1,-0.1 5.3,-2.4 6.8,-4.9 m -26,-7.5 c 0,-13.5 6.3,-22.3 17.5,-22.3 3.9,0 6.7,1.3 8.5,2.6 v -18.4 c 0,-1.7 1.5,-2.7 5,-2.7 h 2.3 c 3.5,0 5,0.9 5,2.7 V 308 c 0,8.5 1,10.3 1,12 0,2 -7.2,2.7 -9.3,2.7 -2.7,0 -2.8,-3.5 -3.3,-5.6 -1.9,3.6 -6,6.2 -11.1,6.2 -9,0 -15.6,-8 -15.6,-22.4"
   id="path20" />
	<path
   class="st1"
   d="m 280.1,293.8 c 0,-8.3 -1,-10 -1,-11.7 0,-2 7.2,-2.7 9.3,-2.7 2.7,0 2.8,3.3 3.3,5.4 2.4,-3.1 7,-6.3 12.4,-6.3 8.3,0 12.2,4.2 12.2,13.4 V 320 c 0,1.7 -1.5,2.7 -5,2.7 H 309 c -3.5,0 -5,-0.9 -5,-2.7 v -26.3 c 0,-3.2 -1.3,-5.1 -5,-5.1 -3.4,0 -5.6,2.9 -6.6,4.8 V 320 c 0,1.7 -1.5,2.7 -5,2.7 h -2.3 c -3.5,0 -5,-0.9 -5,-2.7 z"
   id="path22" />
	<path
   class="st1"
   d="m 251.3,313.6 c 3.1,0 6.1,-2.2 7.5,-5.2 v -4.6 c -7.9,0 -11.6,2.2 -11.6,6.1 -0.1,2.1 1.3,3.7 4.1,3.7 m 7.4,-17.8 V 293 c 0,-3.1 -1.9,-4.7 -6.5,-4.7 -6.1,0 -9.6,2.7 -10.6,2.7 -1.7,0 -4.3,-4.9 -4.3,-6.6 0,-2.8 6.6,-5.7 15.8,-5.7 13.1,0 17.8,5.8 17.8,13.8 V 308 c 0,8.5 1,10.3 1,12 0,2 -7.2,2.7 -9.3,2.7 -2.7,0 -2.8,-3.5 -3.3,-5.7 -0.6,1.1 -4.6,6.3 -12.2,6.3 -9,0 -12.3,-5.3 -12.3,-12.1 0.1,-6.8 2.9,-15.4 23.9,-15.4"
   id="path24" />
	<path
   class="st1"
   d="m 204.2,311.3 c 1.1,0 4.2,2.3 8.1,2.3 3.5,0 5.1,-1.2 5.1,-3.7 0,-7.3 -16.6,-3 -16.6,-17.8 0,-8.3 5.9,-13.4 15.3,-13.4 2.7,0 12.3,0.6 12.3,5.2 0,1.1 -1.9,6.1 -3.6,6.1 -0.8,0 -3.3,-1.7 -7,-1.7 -2.8,0 -4.5,0.9 -4.5,3 0,6.1 16.6,2.9 16.6,17.7 0,8.7 -6.2,14.4 -15.5,14.4 -7.2,0 -14.5,-1.9 -14.5,-5.9 -0.1,-1.8 2.6,-6.2 4.3,-6.2"
   id="path26" />
	<path
   class="st1"
   d="m 157.6,281.7 c 0,-1.7 1.5,-2.7 5,-2.7 h 2.3 c 3.5,0 5,0.9 5,2.7 V 308 c 0,3.2 1.3,5.1 5,5.1 3.4,0 5.6,-2.9 6.6,-4.8 v -26.6 c 0,-1.7 1.5,-2.7 5,-2.7 h 2.3 c 3.5,0 5,0.9 5,2.7 V 308 c 0,8.5 1,10.3 1,12 0,2 -7.2,2.7 -9.3,2.7 -2.7,0 -2.8,-3.5 -3.3,-5.7 -2.4,3.2 -7,6.3 -12.4,6.3 -8.3,0 -12.2,-4.2 -12.2,-13.4 z"
   id="path28" />
	<path
   class="st1"
   d="m 138.5,300.9 c 0,-8.3 -2.3,-12.6 -7.6,-12.6 -5.3,0 -7.7,4.3 -7.7,12.6 0,8.3 2.4,12.7 7.7,12.7 5.3,0 7.6,-4.4 7.6,-12.7 m -7.7,-22.3 c 13.2,0 20.1,7.9 20.1,22.3 0,14.4 -6.9,22.4 -20.1,22.4 -13.2,0 -20.1,-8 -20.1,-22.4 0,-14.4 7,-22.3 20.1,-22.3"
   id="path30" />
	<path
   class="st1"
   d="m 69.2,262.8 c 0,-1.7 1.5,-2.7 5,-2.7 h 2.3 c 3.5,0 5,0.9 5,2.7 v 21.5 c 2.6,-3.1 6.7,-5.6 11.7,-5.6 8.3,0 12.5,4.2 12.5,13.4 v 28.1 c 0,1.7 -1.5,2.7 -5,2.7 h -2.3 c -3.5,0 -5,-0.9 -5,-2.7 v -26.3 c 0,-3.2 -1.7,-5.1 -5.3,-5.1 -3.4,0 -5.6,2.9 -6.6,4.8 v 26.6 c 0,1.7 -1.5,2.7 -5,2.7 h -2.3 c -3.5,0 -5,-0.9 -5,-2.7 z"
   id="path32" />
	<path
   class="st1"
   d="M 36.2,275.4 H 23 c -1.7,0 -2.5,-1.2 -2.5,-4.1 v -2.6 c 0,-2.9 0.7,-4.1 2.5,-4.1 h 39.2 c 1.7,0 2.5,1.2 2.5,4.1 v 2.6 c 0,2.9 -0.7,4.1 -2.5,4.1 H 49 v 44.7 c 0,1.7 -1.5,2.7 -5,2.7 h -2.9 c -3.5,0 -5,-0.9 -5,-2.7 v -44.7 z"
   id="path34" />
</g></g>








</svg>
